{
.appVersion = "3151";
.formatVersion = 3;
.storedFormatVersion = 1;
DisplayStrings = (
"mooniak\012\012",
"/logo.mooniak.sin",
"mooniak\012/sin_MUu/sin_NI/sin_YA/aeMatra-sinhala/sin_K \012a/sin_MA m/sin_NA an/sin_YA/aeMatra-sinhala/sin_KA/sin_NA",
"/logo.mooniak.en",
"/logo.mooniak.tml"
);
axes = (
{
name = Weight;
tag = wght;
}
);
date = "2017-08-06 08:48:04 +0000";
familyName = Moonface;
featurePrefixes = (
{
automatic = 1;
code = "languagesystem DFLT dflt;
";
name = Languagesystems;
}
);
features = (
{
code = "sub [ less m o o n i a k greater] by logo.mooniak;";
tag = aalt;
}
);
fontMaster = (
{
axesValues = (
100
);
customParameters = (
{
name = "Alignment Zones";
value = (
{
pos = 15;
size = 0;
}
);
}
);
id = "B24528F6-199A-4A7E-931E-F430756048DC";
metricValues = (
{
over = 16;
pos = 800;
},
{
over = -15;
},
{
over = 7;
pos = 480;
},
{
over = -15;
},
{
over = -16;
pos = -200;
},
{
}
);
name = Regular;
userData = {
GSCornerRadius = 15;
};
},
{
axesValues = (
900
);
customParameters = (
{
name = "Alignment Zones";
value = (
{
pos = 15;
size = 0;
}
);
}
);
iconName = Bold;
id = "0EF112A6-69F8-47E9-9D72-C545F6D6A613";
metricValues = (
{
over = 16;
pos = 800;
},
{
over = -15;
},
{
over = 7;
pos = 480;
},
{
over = -15;
},
{
over = -16;
pos = -200;
},
{
}
);
name = Bold;
}
);
glyphs = (
{
glyphname = a;
lastChange = "2023-10-17 15:11:23 +0000";
layers = (
{
layerId = "0EF112A6-69F8-47E9-9D72-C545F6D6A613";
shapes = (
{
closed = 1;
nodes = (
(308,-20,o),
(364,45,o),
(378,96,c),
(364,108,l),
(350,52,l),
(354,56,o),
(358,69,o),
(362,69,c),
(374,0,l),
(566,0,l),
(565,107,o),
(563,262,o),
(563,341,cs),
(563,429,o),
(500,486,o),
(369,486,cs),
(248,486,o),
(159,434,o),
(110,377,c),
(155,311,l),
(178,328,o),
(227,345,o),
(260,345,cs),
(317,345,o),
(349,331,o),
(349,283,c),
(349,224,l),
(398,300,l),
(212,324,o),
(12,284,o),
(12,122,cs),
(12,33,o),
(83,-20,o),
(189,-20,cs)
);
},
{
closed = 1;
nodes = (
(234,110,o),
(215,131,o),
(215,151,cs),
(215,183,o),
(248,199,o),
(281,207,cs),
(316,215,o),
(355,213,o),
(411,213,c),
(351,228,l),
(351,184,l),
(351,131,o),
(310,110,o),
(274,110,cs)
);
}
);
width = 606;
},
{
layerId = "B24528F6-199A-4A7E-931E-F430756048DC";
shapes = (
{
closed = 1;
nodes = (
(293,-6,o),
(374,35,o),
(398,76,c),
(364,108,l),
(350,52,l),
(354,56,o),
(358,69,o),
(362,69,c),
(364,0,l),
(471,0,l),
(470,107,o),
(468,253,o),
(468,325,cs),
(468,420,o),
(419,487,o),
(290,487,cs),
(222,487,o),
(152,464,o),
(79,422,c),
(112,343,l),
(157,364,o),
(212,384,o),
(254,384,cs),
(322,384,o),
(349,361,o),
(349,289,c),
(349,234,l),
(416,260,l),
(357,282,o),
(301,300,o),
(222,300,cs),
(149,300,o),
(39,259,o),
(39,146,cs),
(39,68,o),
(94,-6,o),
(217,-6,cs)
);
},
{
closed = 1;
nodes = (
(176,93,o),
(144,115,o),
(144,150,cs),
(144,187,o),
(181,210,o),
(231,210,cs),
(306,210,o),
(371,195,o),
(401,173,c),
(351,238,l),
(351,124,l),
(331,111,o),
(269,93,o),
(230,93,cs)
);
}
);
width = 521;
},
{
associatedMasterId = "B24528F6-199A-4A7E-931E-F430756048DC";
layerId = "D96C34BD-538A-4AB5-B25C-CE5723F9AC80";
name = "Oct 18 17, 22:30";
shapes = (
{
closed = 1;
nodes = (
(266,-6,o),
(323,45,o),
(337,96,c),
(323,108,l),
(309,52,l),
(313,56,o),
(317,69,o),
(321,69,c),
(323,0,l),
(430,0,l),
(429,107,o),
(427,262,o),
(427,341,cs),
(427,429,o),
(369,487,o),
(264,487,cs),
(183,487,o),
(104,438,o),
(66,374,c),
(133,321,l),
(154,353,o),
(204,380,o),
(235,380,cs),
(273,380,o),
(308,361,o),
(308,313,c),
(308,234,l),
(357,298,l),
(328,308,o),
(251,308,o),
(195,297,cs),
(148,287,o),
(30,255,o),
(30,129,cs),
(30,70,o),
(71,-6,o),
(187,-6,cs)
);
},
{
closed = 1;
nodes = (
(172,96,o),
(143,115,o),
(143,144,cs),
(143,187,o),
(177,206,o),
(230,215,cs),
(275,221,o),
(314,223,o),
(370,223,c),
(310,238,l),
(310,184,l),
(308,131,o),
(258,96,o),
(206,96,cs)
);
}
);
width = 470;
},
{
associatedMasterId = "B24528F6-199A-4A7E-931E-F430756048DC";
layerId = "4216596A-FB49-423D-B948-26752BE507FD";
name = "28 Sep 23, 06:39";
shapes = (
{
closed = 1;
nodes = (
(266,-6,o),
(343,45,o),
(357,96,c),
(343,108,l),
(329,52,l),
(333,56,o),
(337,69,o),
(341,69,c),
(343,0,l),
(450,0,l),
(449,107,o),
(447,262,o),
(447,341,cs),
(447,429,o),
(389,487,o),
(264,487,cs),
(183,487,o),
(119,446,o),
(65,385,c),
(131,324,l),
(155,354,o),
(200,378,o),
(235,378,cs),
(273,378,o),
(328,361,o),
(328,313,c),
(328,234,l),
(377,298,l),
(348,308,o),
(251,308,o),
(195,297,cs),
(148,287,o),
(30,255,o),
(30,129,cs),
(30,70,o),
(71,-6,o),
(187,-6,cs)
);
},
{
closed = 1;
nodes = (
(172,96,o),
(143,115,o),
(143,144,cs),
(143,187,o),
(177,206,o),
(230,215,cs),
(275,221,o),
(334,223,o),
(390,223,c),
(330,238,l),
(330,184,l),
(328,131,o),
(258,96,o),
(206,96,cs)
);
}
);
width = 509;
},
{
associatedMasterId = "B24528F6-199A-4A7E-931E-F430756048DC";
layerId = "CACC062F-95F7-406E-AF10-C34C805BFBDB";
name = "28 Sep 23, 06:42";
shapes = (
{
closed = 1;
nodes = (
(276,-6,o),
(353,45,o),
(367,96,c),
(353,108,l),
(339,52,l),
(343,56,o),
(347,69,o),
(351,69,c),
(353,0,l),
(460,0,l),
(459,107,o),
(457,262,o),
(457,341,cs),
(457,429,o),
(399,487,o),
(280,487,cs),
(193,487,o),
(120,455,o),
(60,418,c),
(101,334,l),
(135,359,o),
(200,378,o),
(235,378,cs),
(283,378,o),
(338,361,o),
(338,313,c),
(338,234,l),
(387,298,l),
(358,308,o),
(261,308,o),
(195,297,cs),
(148,289,o),
(30,259,o),
(30,133,cs),
(30,74,o),
(81,-6,o),
(200,-6,cs)
);
},
{
closed = 1;
nodes = (
(172,96,o),
(143,115,o),
(143,147,cs),
(143,187,o),
(177,204,o),
(230,210,cs),
(285,216,o),
(344,218,o),
(400,218,c),
(340,238,l),
(340,184,l),
(338,131,o),
(268,96,o),
(206,96,cs)
);
}
);
width = 509;
},
{
associatedMasterId = "B24528F6-199A-4A7E-931E-F430756048DC";
layerId = "875ACFEE-BA72-4665-BF9B-CA2D4BDAF5C9";
name = "28 Sep 23, 06:55";
shapes = (
{
closed = 1;
nodes = (
(475,0,l),
(475,126,o),
(475,242,o),
(475,355,c),
(475,442,o),
(406,487,o),
(333,487,cs),
(248,487,o),
(172,419,o),
(135,369,c),
(165,287,l),
(186,333,o),
(248,366,o),
(288,366,cs),
(320,366,o),
(349,351,o),
(353,309,cs),
(358,253,o),
(356,110,o),
(356,0,c)
);
}
);
visible = 1;
width = 520;
},
{
associatedMasterId = "B24528F6-199A-4A7E-931E-F430756048DC";
layerId = "3BD658D6-AD02-4DE4-9AA8-AFE1B033EF14";
name = "16 Oct 23 at 15:59";
shapes = (
{
closed = 1;
nodes = (
(299,-6,o),
(380,35,o),
(404,76,c),
(370,108,l),
(356,52,l),
(360,56,o),
(364,69,o),
(368,69,c),
(370,0,l),
(477,0,l),
(476,107,o),
(474,253,o),
(474,335,cs),
(474,420,o),
(436,487,o),
(307,487,cs),
(230,487,o),
(167,475,o),
(107,438,c),
(148,344,l),
(182,369,o),
(227,378,o),
(252,378,cs),
(330,378,o),
(355,351,o),
(355,283,c),
(355,234,l),
(422,246,l),
(413,266,o),
(350,300,o),
(222,300,cs),
(155,300,o),
(45,259,o),
(45,138,cs),
(45,68,o),
(100,-6,o),
(223,-6,cs)
);
},
{
closed = 1;
nodes = (
(182,93,o),
(150,115,o),
(150,150,cs),
(150,187,o),
(187,210,o),
(237,210,cs),
(312,210,o),
(387,194,o),
(407,164,c),
(357,238,l),
(357,124,l),
(337,111,o),
(275,93,o),
(236,93,cs)
);
}
);
width = 527;
}
);
metricRight = n;
unicode = 97;
userData = {
com.typemytype.robofont.layerData = {
"Jan 31 17, 02:15" = {
anchors = (
);
components = (
);
contours = (
{
points = (
{
segmentType = line;
smooth = 0;
x = 337;
y = 258;
},
{
segmentType = line;
smooth = 0;
x = 398;
y = 196;
},
{
smooth = 0;
x = 203;
y = 262;
},
{
smooth = 0;
x = 147;
y = 196;
},
{
segmentType = curve;
smooth = 1;
x = 147.34;
y = 140.69;
},
{
smooth = 0;
x = 147.34;
y = 80.168;
},
{
smooth = 0;
x = 182.43401;
y = 56.967;
},
{
segmentType = curve;
smooth = 1;
x = 226.8;
y = 57.87;
},
{
smooth = 0;
x = 271.87701;
y = 58.85;
},
{
smooth = 0;
x = 315.39499;
y = 77.066;
},
{
segmentType = curve;
smooth = 0;
x = 337;
y = 114.331;
}
);
},
{
points = (
{
segmentType = curve;
smooth = 1;
x = 271.42001;
y = 491.31;
},
{
smooth = 0;
x = 360.78101;
y = 491.31;
},
{
smooth = 0;
x = 427.66;
y = 453.07401;
},
{
segmentType = curve;
smooth = 1;
x = 427.66;
y = 365.14999;
},
{
smooth = 0;
x = 427.66;
y = 281.51401;
},
{
smooth = 0;
x = 423.10001;
y = 165.65199;
},
{
segmentType = curve;
smooth = 1;
x = 423.10001;
y = 113.131;
},
{
smooth = 0;
x = 423.10001;
y = 54.032;
},
{
smooth = 0;
x = 448.11099;
y = 44.305;
},
{
segmentType = curve;
smooth = 0;
x = 483.5;
y = 45.25;
},
{
segmentType = line;
smooth = 0;
x = 492.23901;
y = 7.45;
},
{
smooth = 0;
x = 453.474;
y = -12.119;
},
{
smooth = 0;
x = 423.345;
y = -13.627;
},
{
segmentType = curve;
smooth = 1;
x = 400;
y = -10.524;
},
{
smooth = 0;
x = 351.465;
y = -4.496;
},
{
smooth = 0;
x = 340.75299;
y = 22.085;
},
{
segmentType = curve;
smooth = 0;
x = 340.12;
y = 55.971;
},
{
smooth = 0;
x = 319.254;
y = 36.344;
},
{
smooth = 0;
x = 286.03101;
y = -8.29;
},
{
segmentType = curve;
smooth = 1;
x = 195.22;
y = -8.29;
},
{
smooth = 0;
x = 111.486;
y = -8.29;
},
{
smooth = 0;
x = 51.5;
y = 42.136;
},
{
segmentType = curve;
smooth = 1;
x = 51.5;
y = 115.271;
},
{
smooth = 0;
x = 52;
y = 262;
},
{
smooth = 0;
x = 226;
y = 289;
},
{
segmentType = curve;
smooth = 0;
x = 367;
y = 289;
},
{
segmentType = line;
smooth = 0;
x = 335;
y = 244;
},
{
segmentType = line;
smooth = 0;
x = 335;
y = 333;
},
{
smooth = 0;
x = 335;
y = 401;
},
{
smooth = 0;
x = 292.66901;
y = 424;
},
{
segmentType = curve;
smooth = 1;
x = 217;
y = 421;
},
{
smooth = 0;
x = 169.591;
y = 419.12;
},
{
smooth = 0;
x = 133.19901;
y = 407.71399;
},
{
segmentType = curve;
smooth = 0;
x = 93.45;
y = 390.271;
},
{
segmentType = line;
smooth = 0;
x = 87.15;
y = 435.95001;
},
{
smooth = 0;
x = 127;
y = 464;
},
{
smooth = 0;
x = 202.043;
y = 491.31;
}
);
}
);
lib = {
};
name = a;
unicodes = (
);
width = 541;
};
};
};
},
{
glyphname = b;
lastChange = "2017-08-07 12:01:36 +0000";
layers = (
{
layerId = "0EF112A6-69F8-47E9-9D72-C545F6D6A613";
shapes = (
{
closed = 1;
nodes = (
(172,100,l),
(172,682,l),
(52,682,l),
(54,170,l),
(54,114,o),
(53,87,o),
(52,31,c),
(162,1,l)
);
},
{
closed = 1;
nodes = (
(52,31,l),
(125,0,o),
(206,-6,o),
(233,-6,cs),
(405,-6,o),
(465,108,o),
(465,257,cs),
(465,407,o),
(374,484,o),
(275,484,cs),
(176,484,o),
(116,433,o),
(79,383,c),
(137,314,l),
(158,360,o),
(215,374,o),
(245,374,cs),
(297,374,o),
(355,344,o),
(355,231,cs),
(355,178,o),
(337,92,o),
(249,92,cs),
(212,92,o),
(176,109,o),
(172,142,c)
);
}
);
width = 500;
},
{
layerId = "B24528F6-199A-4A7E-931E-F430756048DC";
shapes = (
{
closed = 1;
nodes = (
(172,100,l),
(172,682,l),
(52,682,l),
(54,170,l),
(54,114,o),
(53,87,o),
(52,31,c),
(162,1,l)
);
},
{
closed = 1;
nodes = (
(52,31,l),
(125,0,o),
(206,-6,o),
(233,-6,cs),
(405,-6,o),
(465,108,o),
(465,257,cs),
(465,407,o),
(374,484,o),
(275,484,cs),
(176,484,o),
(116,433,o),
(79,383,c),
(137,314,l),
(158,360,o),
(215,374,o),
(245,374,cs),
(297,374,o),
(355,344,o),
(355,231,cs),
(355,178,o),
(337,92,o),
(249,92,cs),
(212,92,o),
(176,109,o),
(172,142,c)
);
}
);
width = 500;
}
);
metricLeft = l;
metricRight = p;
unicode = 98;
userData = {
com.schriftgestaltung.Glyphs.leftMetricsKey = l;
com.schriftgestaltung.Glyphs.rightMetricsKey = p;
};
},
{
glyphname = c;
lastChange = "2017-08-07 12:01:36 +0000";
layers = (
{
layerId = "0EF112A6-69F8-47E9-9D72-C545F6D6A613";
shapes = (
{
closed = 1;
nodes = (
(422,432,l),
(396,452,o),
(350,482,o),
(266,482,cs),
(133,482,o),
(36,390,o),
(36,223,cs),
(36,60,o),
(132,-19,o),
(273,-19,cs),
(347,-19,o),
(407,19,o),
(426,51,c),
(396,126,l),
(362,104,o),
(338,91,o),
(292,91,cs),
(218,91,o),
(163,134,o),
(162,227,cs),
(161,321,o),
(213,372,o),
(285,372,cs),
(319,372,o),
(358,357,o),
(383,341,c)
);
}
);
width = 442;
},
{
layerId = "B24528F6-199A-4A7E-931E-F430756048DC";
shapes = (
{
closed = 1;
nodes = (
(422,432,l),
(396,452,o),
(350,482,o),
(266,482,cs),
(133,482,o),
(36,390,o),
(36,223,cs),
(36,60,o),
(132,-19,o),
(273,-19,cs),
(347,-19,o),
(407,19,o),
(426,51,c),
(396,126,l),
(362,104,o),
(338,91,o),
(292,91,cs),
(218,91,o),
(163,134,o),
(162,227,cs),
(161,321,o),
(213,372,o),
(285,372,cs),
(319,372,o),
(358,357,o),
(383,341,c)
);
}
);
width = 442;
}
);
unicode = 99;
userData = {
com.schriftgestaltung.Glyphs.ColorIndex = 0;
};
},
{
glyphname = d;
lastChange = "2017-08-09 10:49:32 +0000";
layers = (
{
layerId = "0EF112A6-69F8-47E9-9D72-C545F6D6A613";
shapes = (
{
closed = 1;
nodes = (
(623,0,l),
(622,56,o),
(621,113,o),
(621,169,c),
(623,680,l),
(403,670,l),
(403,99,l),
(423,0,l)
);
},
{
closed = 1;
nodes = (
(405,153,o),
(373,119,o),
(338,119,cs),
(278,119,o),
(256,177,o),
(256,230,cs),
(256,302,o),
(287,362,o),
(349,362,cs),
(359,362,o),
(417,358,o),
(438,312,c),
(496,381,l),
(459,431,o),
(389,482,o),
(264,482,cs),
(150,482,o),
(37,404,o),
(37,234,cs),
(37,36,o),
(165,-17,o),
(285,-17,cs),
(379,-17,o),
(429,42,o),
(446,125,c),
(403,210,l)
);
}
);
width = 703;
},
{
layerId = "B24528F6-199A-4A7E-931E-F430756048DC";
shapes = (
{
closed = 1;
nodes = (
(448,0,l),
(447,56,o),
(446,113,o),
(446,169,c),
(448,680,l),
(328,675,l),
(328,99,l),
(338,0,l)
);
},
{
closed = 1;
nodes = (
(330,123,o),
(288,99,o),
(251,99,cs),
(173,99,o),
(155,177,o),
(155,230,cs),
(155,342,o),
(202,372,o),
(254,372,cs),
(284,372,o),
(342,358,o),
(363,312,c),
(421,381,l),
(384,431,o),
(324,482,o),
(239,482,cs),
(126,482,o),
(35,405,o),
(35,225,cs),
(35,107,o),
(85,-7,o),
(227,-7,cs),
(294,-7,o),
(354,42,o),
(371,125,c),
(328,180,l)
);
}
);
width = 498;
}
);
unicode = 100;
userData = {
com.schriftgestaltung.Glyphs.ColorIndex = 0;
};
},
{
glyphname = e;
lastChange = "2017-08-09 11:16:48 +0000";
layers = (
{
layerId = "0EF112A6-69F8-47E9-9D72-C545F6D6A613";
shapes = (
{
closed = 1;
nodes = (
(133,207,l),
(451,207,l),
(461,360,o),
(402,487,o),
(254,487,cs),
(131,487,o),
(35,390,o),
(35,225,cs),
(35,60,o),
(139,-19,o),
(264,-19,cs),
(342,-19,o),
(405,13,o),
(432,53,c),
(400,125,l),
(366,103,o),
(337,87,o),
(290,87,cs),
(217,87,o),
(160,121,o),
(157,214,c),
(155,257,l),
(155,276,l),
(155,328,o),
(186,391,o),
(252,391,cs),
(301,391,o),
(335,350,o),
(334,293,c),
(96,293,l)
);
}
);
width = 495;
},
{
layerId = "B24528F6-199A-4A7E-931E-F430756048DC";
shapes = (
{
closed = 1;
nodes = (
(133,207,l),
(451,207,l),
(461,360,o),
(402,487,o),
(254,487,cs),
(131,487,o),
(35,390,o),
(35,225,cs),
(35,60,o),
(139,-19,o),
(264,-19,cs),
(342,-19,o),
(405,13,o),
(432,53,c),
(400,125,l),
(366,103,o),
(337,87,o),
(290,87,cs),
(217,87,o),
(160,121,o),
(157,214,c),
(155,257,l),
(155,276,l),
(155,328,o),
(186,391,o),
(252,391,cs),
(301,391,o),
(335,350,o),
(334,293,c),
(96,293,l)
);
}
);
width = 497;
}
);
unicode = 101;
},
{
glyphname = f;
lastChange = "2017-08-07 12:01:36 +0000";
layers = (
{
layerId = "0EF112A6-69F8-47E9-9D72-C545F6D6A613";
shapes = (
{
closed = 1;
nodes = (
(90,650,o),
(51,596,o),
(51,519,c),
(53,2,l),
(165,0,l),
(165,486,l),
(165,515,o),
(171,551,o),
(220,551,cs),
(247,551,o),
(269,542,o),
(269,542,c),
(282,629,l),
(259,643,o),
(218,650,o),
(181,650,cs)
);
},
{
closed = 1;
nodes = (
(0,328,l),
(251,328,l),
(251,417,l),
(0,417,l)
);
}
);
width = 282;
},
{
layerId = "B24528F6-199A-4A7E-931E-F430756048DC";
shapes = (
{
closed = 1;
nodes = (
(90,650,o),
(47,596,o),
(47,519,c),
(49,2,l),
(165,0,l),
(165,486,l),
(165,515,o),
(171,551,o),
(220,551,cs),
(247,551,o),
(269,542,o),
(269,542,c),
(282,629,l),
(259,643,o),
(218,650,o),
(181,650,cs)
);
},
{
closed = 1;
nodes = (
(0,328,l),
(251,328,l),
(251,417,l),
(0,417,l)
);
}
);
width = 282;
}
);
unicode = 102;
userData = {
com.schriftgestaltung.Glyphs.ColorIndex = 0;
};
},
{
glyphname = g;
lastChange = "2018-07-29 16:58:10 +0000";
layers = (
{
layerId = "0EF112A6-69F8-47E9-9D72-C545F6D6A613";
shapes = (
{
closed = 1;
nodes = (
(53,231,o),
(95,133,o),
(253,133,cs),
(345,133,o),
(436,186,o),
(436,312,cs),
(436,404,o),
(350,475,o),
(248,474,cs),
(125,473,o),
(55,393,o),
(54,300,cs)
);
},
{
closed = 1;
nodes = (
(153,340,o),
(180,374,o),
(246,373,cs),
(292,373,o),
(339,353,o),
(339,299,cs),
(339,268,o),
(314,231,o),
(251,230,cs),
(182,229,o),
(153,265,o),
(153,301,cs)
);
},
{
closed = 1;
nodes = (
(188,175,l),
(187,18,l),
(185,11,o),
(369,18,o),
(369,-28,cs),
(369,-83,o),
(319,-103,o),
(239,-103,cs),
(211,-103,o),
(152,-93,o),
(152,-51,cs),
(152,-7,o),
(211,12,o),
(255,12,c),
(220,73,l),
(123,77,o),
(49,10,o),
(49,-58,cs),
(49,-125,o),
(85,-207,o),
(263,-201,cs),
(401,-197,o),
(469,-130,o),
(468,-37,cs),
(467,89,o),
(323,94,o),
(284,86,c),
(282,185,l)
);
},
{
closed = 1;
nodes = (
(365,408,l),
(385,374,l),
(429,396,o),
(475,405,o),
(510,405,c),
(486,497,l),
(433,497,o),
(350,441,o),
(312,423,c)
);
}
);
width = 490;
},
{
layerId = "B24528F6-199A-4A7E-931E-F430756048DC";
shapes = (
{
closed = 1;
nodes = (
(41,242,o),
(90,150,o),
(234,150,cs),
(333,150,o),
(426,198,o),
(426,316,cs),
(426,416,o),
(348,486,o),
(237,485,cs),
(116,484,o),
(43,414,o),
(42,312,cs)
);
},
{
closed = 1;
nodes = (
(149,354,o),
(184,384,o),
(233,384,cs),
(282,384,o),
(316,355,o),
(316,320,cs),
(316,281,o),
(282,253,o),
(234,253,cs),
(179,253,o),
(149,282,o),
(149,316,cs)
);
},
{
closed = 1;
nodes = (
(167,186,l),
(245,14,l),
(299,14,o),
(342,-8,o),
(342,-43,cs),
(342,-83,o),
(298,-106,o),
(249,-106,cs),
(187,-106,o),
(148,-82,o),
(148,-46,cs),
(148,-8,o),
(188,14,o),
(245,14,c),
(226,109,l),
(133,109,o),
(40,45,o),
(40,-54,cs),
(40,-131,o),
(97,-213,o),
(251,-213,cs),
(365,-213,o),
(451,-141,o),
(450,-46,cs),
(449,45,o),
(361,109,o),
(256,109,c),
(323,57,l),
(270,196,l)
);
},
{
closed = 1;
nodes = (
(373,400,l),
(393,366,l),
(437,388,o),
(484,392,o),
(519,392,c),
(494,489,l),
(441,489,o),
(378,456,o),
(360,425,c)
);
}
);
width = 504;
},
{
associatedMasterId = "B24528F6-199A-4A7E-931E-F430756048DC";
layerId = "BBBA9109-4423-4F4B-87C3-3A982AA2ED1D";
name = "Aug 7 17, 15:43";
shapes = (
{
closed = 1;
nodes = (
(55,231,o),
(95,133,o),
(253,133,cs),
(345,133,o),
(434,186,o),
(434,312,cs),
(434,404,o),
(350,475,o),
(248,474,cs),
(125,473,o),
(57,393,o),
(56,300,cs)
);
},
{
closed = 1;
nodes = (
(152,334,o),
(184,374,o),
(246,373,cs),
(292,372,o),
(339,353,o),
(339,305,cs),
(339,268,o),
(311,230,o),
(250,230,cs),
(182,230,o),
(152,263,o),
(152,299,cs)
);
},
{
closed = 1;
nodes = (
(198,175,l),
(217,28,l),
(275,31,o),
(369,18,o),
(369,-38,cs),
(369,-83,o),
(318,-107,o),
(268,-107,cs),
(210,-107,o),
(157,-87,o),
(157,-45,cs),
(157,9,o),
(211,28,o),
(255,28,c),
(230,93,l),
(133,97,o),
(54,33,o),
(54,-52,cs),
(54,-115,o),
(95,-201,o),
(263,-201,cs),
(401,-201,o),
(469,-130,o),
(468,-37,cs),
(467,79,o),
(333,103,o),
(294,106,c),
(282,185,l)
);
},
{
closed = 1;
nodes = (
(365,408,l),
(385,374,l),
(429,396,o),
(475,405,o),
(510,405,c),
(486,497,l),
(433,497,o),
(340,444,o),
(312,423,c)
);
}
);
width = 490;
}
);
unicode = 103;
userData = {
com.schriftgestaltung.Glyphs.ColorIndex = 0;
};
},
{
glyphname = h;
lastChange = "2017-08-09 10:43:39 +0000";
layers = (
{
layerId = "0EF112A6-69F8-47E9-9D72-C545F6D6A613";
shapes = (
{
closed = 1;
nodes = (
(554,0,l),
(554,126,o),
(554,242,o),
(554,355,c),
(554,442,o),
(487,487,o),
(404,487,cs),
(323,487,o),
(237,436,o),
(202,386,c),
(230,227,l),
(239,273,o),
(260,306,o),
(289,306,cs),
(307,306,o),
(330,291,o),
(334,249,cs),
(339,193,o),
(337,110,o),
(337,0,c)
);
},
{
closed = 1;
nodes = (
(233,0,l),
(230,111,o),
(230,264,o),
(231,394,c),
(221,406,l),
(220,680,l),
(10,670,l),
(10,504,o),
(11,161,o),
(13,0,c)
);
}
);
width = 619;
},
{
layerId = "B24528F6-199A-4A7E-931E-F430756048DC";
shapes = (
{
closed = 1;
nodes = (
(474,0,l),
(474,126,o),
(474,242,o),
(474,355,c),
(474,442,o),
(407,487,o),
(334,487,cs),
(253,487,o),
(187,436,o),
(152,386,c),
(180,287,l),
(199,333,o),
(252,366,o),
(289,366,cs),
(321,366,o),
(348,351,o),
(352,309,cs),
(357,253,o),
(355,110,o),
(355,0,c)
);
},
{
closed = 1;
nodes = (
(183,0,l),
(180,111,o),
(180,264,o),
(181,394,c),
(178,406,l),
(177,680,l),
(58,676,l),
(58,510,o),
(59,161,o),
(61,0,c)
);
}
);
width = 529;
}
);
metricRight = n;
unicode = 104;
userData = {
com.schriftgestaltung.Glyphs.rightMetricsKey = n;
};
},
{
glyphname = i;
lastChange = "2023-10-16 10:27:21 +0000";
layers = (
{
layerId = "0EF112A6-69F8-47E9-9D72-C545F6D6A613";
shapes = (
{
closed = 1;
nodes = (
(187,0,l),
(187,73,o),
(186,313,o),
(183,479,c),
(66,474,l),
(68,308,o),
(70,158,o),
(70,0,c)
);
},
{
closed = 1;
nodes = (
(168,549,o),
(200,582,o),
(200,623,cs),
(200,665,o),
(168,698,o),
(126,698,cs),
(84,698,o),
(52,665,o),
(52,623,cs),
(52,582,o),
(84,549,o),
(126,549,cs)
);
}
);
width = 252;
},
{
layerId = "B24528F6-199A-4A7E-931E-F430756048DC";
shapes = (
{
closed = 1;
nodes = (
(196,0,l),
(195,73,o),
(194,313,o),
(192,479,c),
(73,474,l),
(75,308,o),
(77,158,o),
(77,0,c)
);
},
{
closed = 1;
nodes = (
(175,549,o),
(207,582,o),
(207,623,cs),
(207,665,o),
(175,698,o),
(133,698,cs),
(91,698,o),
(59,665,o),
(59,623,cs),
(59,582,o),
(91,549,o),
(133,549,cs)
);
}
);
width = 266;
}
);
unicode = 105;
},
{
glyphname = j;
lastChange = "2017-08-07 12:01:36 +0000";
layers = (
{
layerId = "B24528F6-199A-4A7E-931E-F430756048DC";
shapes = (
{
closed = 1;
nodes = (
(196,549,o),
(228,582,o),
(228,623,cs),
(228,665,o),
(196,698,o),
(154,698,cs),
(112,698,o),
(80,665,o),
(80,623,cs),
(80,582,o),
(112,549,o),
(154,549,cs)
);
},
{
closed = 1;
nodes = (
(179,-147,o),
(218,-103,o),
(218,-26,c),
(217,324,l),
(217,486,l),
(100,483,l),
(104,17,ls),
(104,-12,o),
(98,-48,o),
(49,-48,cs),
(22,-48,o),
(0,-39,o),
(0,-39,c),
(-13,-121,l),
(10,-135,o),
(51,-147,o),
(88,-147,cs)
);
}
);
width = 268;
},
{
layerId = "0EF112A6-69F8-47E9-9D72-C545F6D6A613";
width = 600;
}
);
unicode = 106;
},
{
glyphname = k;
lastChange = "2023-10-18 16:10:18 +0000";
layers = (
{
layerId = "0EF112A6-69F8-47E9-9D72-C545F6D6A613";
shapes = (
{
closed = 1;
nodes = (
(476,0,l),
(175,388,l),
(173,217,l),
(211,147,l),
(332,0,l)
);
},
{
closed = 1;
nodes = (
(179,0,l),
(181,680,l),
(58,674,l),
(62,0,l)
);
},
{
closed = 1;
nodes = (
(434,481,l),
(312,479,l),
(191,248,l),
(281,186,l)
);
}
);
width = 476;
},
{
layerId = "B24528F6-199A-4A7E-931E-F430756048DC";
shapes = (
{
closed = 1;
nodes = (
(542,0,l),
(284,259,l),
(256,275,l),
(166,362,l),
(166,232,l),
(237,141,l),
(388,0,l)
);
},
{
closed = 1;
nodes = (
(180,0,l),
(181,228,o),
(180,455,o),
(181,683,c),
(60,680,l),
(61,453,o),
(61,227,o),
(59,0,c)
);
},
{
closed = 1;
nodes = (
(496,479,l),
(362,476,l),
(214,278,l),
(299,215,l)
);
}
);
width = 542;
},
{
associatedMasterId = "B24528F6-199A-4A7E-931E-F430756048DC";
layerId = "99CCFA8E-6C3C-4B36-BFDC-6B2821FDD4E2";
name = "16 Oct 23 at 16:23";
shapes = (
{
closed = 1;
nodes = (
(537,0,l),
(176,353,l),
(166,222,l),
(232,147,l),
(383,0,l)
);
},
{
closed = 1;
nodes = (
(180,0,l),
(180,228,o),
(180,455,o),
(181,683,c),
(60,680,l),
(61,453,o),
(61,227,o),
(59,0,c)
);
},
{
closed = 1;
nodes = (
(491,479,l),
(357,476,l),
(209,278,l),
(294,215,l)
);
}
);
width = 527;
}
);
unicode = 107;
},
{
glyphname = l;
lastChange = "2017-08-07 12:01:36 +0000";
layers = (
{
layerId = "0EF112A6-69F8-47E9-9D72-C545F6D6A613";
shapes = (
{
closed = 1;
nodes = (
(166,0,l),
(168,678,l),
(52,676,l),
(56,0,l)
);
}
);
width = 220;
},
{
layerId = "B24528F6-199A-4A7E-931E-F430756048DC";
shapes = (
{
closed = 1;
nodes = (
(169,0,l),
(171,678,l),
(50,678,l),
(54,0,l)
);
}
);
width = 221;
}
);
unicode = 108;
},
{
glyphname = m;
lastChange = "2023-10-16 10:43:37 +0000";
layers = (
{
layerId = "0EF112A6-69F8-47E9-9D72-C545F6D6A613";
shapes = (
{
closed = 1;
nodes = (
(574,0,l),
(574,126,o),
(574,242,o),
(574,355,c),
(574,442,o),
(507,487,o),
(424,487,cs),
(343,487,o),
(277,436,o),
(222,386,c),
(270,227,l),
(289,273,o),
(300,306,o),
(329,306,cs),
(347,306,o),
(351,291,o),
(355,249,cs),
(360,193,o),
(358,110,o),
(358,0,c)
);
},
{
closed = 1;
nodes = (
(273,0,l),
(270,111,o),
(270,264,o),
(271,394,c),
(261,406,l),
(260,480,l),
(30,476,l),
(30,310,o),
(31,161,o),
(33,0,c)
);
},
{
closed = 1;
nodes = (
(874,0,l),
(874,126,o),
(874,242,o),
(874,355,c),
(874,442,o),
(807,487,o),
(724,487,cs),
(643,487,o),
(577,436,o),
(522,386,c),
(570,227,l),
(589,273,o),
(600,306,o),
(629,306,cs),
(647,306,o),
(651,291,o),
(655,249,cs),
(660,193,o),
(658,110,o),
(658,0,c)
);
}
);
width = 904;
},
{
layerId = "B24528F6-199A-4A7E-931E-F430756048DC";
shapes = (
{
closed = 1;
nodes = (
(776,0,l),
(776,126,o),
(776,242,o),
(776,338,cs),
(776,442,o),
(707,487,o),
(634,487,cs),
(549,487,o),
(473,419,o),
(436,369,c),
(466,287,l),
(487,333,o),
(549,366,o),
(589,366,cs),
(621,366,o),
(650,351,o),
(654,309,cs),
(659,253,o),
(657,110,o),
(657,0,c)
);
},
{
closed = 1;
nodes = (
(172,0,l),
(169,111,o),
(169,244,o),
(170,374,c),
(160,386,l),
(159,483,l),
(50,479,l),
(50,304,o),
(51,161,o),
(53,0,c)
);
},
{
closed = 1;
nodes = (
(471,0,l),
(471,126,o),
(471,242,o),
(471,355,c),
(471,442,o),
(414,486,o),
(343,486,cs),
(261,486,o),
(178,419,o),
(141,369,c),
(169,287,l),
(190,333,o),
(244,366,o),
(284,366,cs),
(316,366,o),
(345,351,o),
(349,309,cs),
(354,253,o),
(352,110,o),
(352,0,c)
);
}
);
width = 826;
},
{
associatedMasterId = "B24528F6-199A-4A7E-931E-F430756048DC";
layerId = "893059F4-3D10-4C5C-9713-7F5FAD8B601D";
name = "28 Sep 23, 06:33";
shapes = (
{
closed = 1;
nodes = (
(773,0,l),
(773,126,o),
(773,242,o),
(773,355,c),
(773,442,o),
(704,487,o),
(631,487,cs),
(546,487,o),
(470,436,o),
(433,386,c),
(463,287,l),
(484,333,o),
(546,366,o),
(586,366,cs),
(618,366,o),
(647,351,o),
(651,309,cs),
(656,253,o),
(654,110,o),
(654,0,c)
);
},
{
closed = 1;
nodes = (
(169,0,l),
(166,111,o),
(166,264,o),
(167,394,c),
(157,406,l),
(156,483,l),
(47,479,l),
(47,304,o),
(48,161,o),
(50,0,c)
);
},
{
closed = 1;
nodes = (
(468,0,l),
(468,126,o),
(468,242,o),
(468,355,c),
(468,442,o),
(411,486,o),
(340,486,cs),
(258,486,o),
(175,436,o),
(138,386,c),
(166,287,l),
(187,333,o),
(241,366,o),
(281,366,cs),
(313,366,o),
(342,351,o),
(346,309,cs),
(351,253,o),
(349,110,o),
(349,0,c)
);
}
);
width = 826;
}
);
metricLeft = n;
metricRight = "=n";
unicode = 109;
userData = {
com.schriftgestaltung.Glyphs.rightMetricsKey = "=n";
};
},
{
color = 0;
glyphname = n;
lastChange = "2023-10-16 10:42:59 +0000";
layers = (
{
layerId = "0EF112A6-69F8-47E9-9D72-C545F6D6A613";
shapes = (
{
closed = 1;
nodes = (
(273,0,l),
(270,111,o),
(270,264,o),
(271,394,c),
(261,406,l),
(260,480,l),
(30,476,l),
(30,310,o),
(31,161,o),
(33,0,c)
);
},
{
closed = 1;
nodes = (
(574,0,l),
(574,126,o),
(574,242,o),
(574,355,c),
(574,442,o),
(507,487,o),
(424,487,cs),
(343,487,o),
(277,436,o),
(222,386,c),
(270,227,l),
(278,273,o),
(300,306,o),
(329,306,cs),
(347,306,o),
(351,291,o),
(355,249,cs),
(360,193,o),
(358,110,o),
(358,0,c)
);
}
);
width = 604;
},
{
background = {
shapes = (
{
closed = 1;
nodes = (
(172,0,l),
(169,111,o),
(169,244,o),
(170,374,c),
(160,386,l),
(159,483,l),
(50,479,l),
(50,304,o),
(51,161,o),
(53,0,c)
);
}
);
};
layerId = "B24528F6-199A-4A7E-931E-F430756048DC";
shapes = (
{
closed = 1;
nodes = (
(172,0,l),
(169,111,o),
(170,264,o),
(171,394,c),
(161,386,l),
(160,482,l),
(50,480,l),
(50,308,o),
(51,161,o),
(53,0,c)
);
},
{
closed = 1;
nodes = (
(475,0,l),
(475,126,o),
(475,242,o),
(475,335,cs),
(475,442,o),
(406,487,o),
(333,487,cs),
(248,487,o),
(172,419,o),
(135,369,c),
(165,287,l),
(186,333,o),
(248,366,o),
(288,366,cs),
(320,366,o),
(349,355,o),
(354,309,cs),
(360,253,o),
(356,110,o),
(356,0,c)
);
}
);
width = 525;
}
);
unicode = 110;
},
{
glyphname = o;
lastChange = "2023-10-16 10:56:49 +0000";
layers = (
{
layerId = "0EF112A6-69F8-47E9-9D72-C545F6D6A613";
shapes = (
{
closed = 1;
nodes = (
(429,-12,o),
(514,96,o),
(514,242,cs),
(514,377,o),
(434,486,o),
(277,486,cs),
(140,486,o),
(40,385,o),
(40,229,cs),
(40,95,o),
(124,-12,o),
(278,-12,cs)
);
},
{
closed = 1;
nodes = (
(216,103,o),
(159,150,o),
(159,235,cs),
(159,316,o),
(205,369,o),
(274,369,cs),
(337,369,o),
(393,323,o),
(393,233,cs),
(393,152,o),
(350,103,o),
(283,103,cs)
);
}
);
width = 555;
},
{
layerId = "B24528F6-199A-4A7E-931E-F430756048DC";
shapes = (
{
closed = 1;
nodes = (
(440,-12,o),
(535,98,o),
(535,237,cs),
(535,389,o),
(437,486,o),
(289,486,cs),
(138,486,o),
(43,371,o),
(43,237,cs),
(43,98,o),
(138,-12,o),
(289,-12,cs)
);
},
{
closed = 1;
nodes = (
(218,99,o),
(162,149,o),
(162,237,cs),
(162,325,o),
(218,372,o),
(289,372,cs),
(360,372,o),
(416,325,o),
(416,237,cs),
(416,149,o),
(360,99,o),
(289,99,cs)
);
}
);
width = 578;
},
{
associatedMasterId = "B24528F6-199A-4A7E-931E-F430756048DC";
layerId = "B5262D3B-CF60-4F97-8785-34DEF67330A4";
name = "28 Sep 23, 06:37";
shapes = (
{
closed = 1;
nodes = (
(423,-12,o),
(504,99,o),
(504,245,cs),
(504,370,o),
(419,486,o),
(269,486,cs),
(136,486,o),
(40,389,o),
(40,236,cs),
(40,109,o),
(116,-12,o),
(278,-12,cs)
);
},
{
closed = 1;
nodes = (
(209,99,o),
(151,156,o),
(151,237,cs),
(151,318,o),
(196,372,o),
(265,372,cs),
(338,372,o),
(389,320,o),
(389,230,cs),
(389,149,o),
(343,99,o),
(276,99,cs)
);
}
);
width = 543;
},
{
associatedMasterId = "B24528F6-199A-4A7E-931E-F430756048DC";
layerId = "0D65C777-E0B3-4B9A-91E9-A610DD093C43";
name = "16 Oct 23 at 13:40";
shapes = (
{
closed = 1;
nodes = (
(435,-12,o),
(504,115,o),
(504,237,cs),
(504,376,o),
(415,486,o),
(271,486,cs),
(136,486,o),
(40,388,o),
(40,241,cs),
(40,109,o),
(117,-12,o),
(274,-12,cs)
);
},
{
closed = 1;
nodes = (
(209,99,o),
(151,154,o),
(151,241,cs),
(151,316,o),
(195,372,o),
(267,372,cs),
(336,372,o),
(389,321,o),
(389,232,cs),
(389,149,o),
(343,99,o),
(278,99,cs)
);
}
);
width = 543;
}
);
unicode = 111;
},
{
glyphname = p;
lastChange = "2017-08-09 10:50:09 +0000";
layers = (
{
layerId = "0EF112A6-69F8-47E9-9D72-C545F6D6A613";
shapes = (
{
closed = 1;
nodes = (
(20,473,l),
(21,417,o),
(22,360,o),
(22,304,c),
(20,-207,l),
(240,-197,l),
(240,374,l),
(220,473,l)
);
},
{
closed = 1;
nodes = (
(238,320,o),
(270,354,o),
(305,354,cs),
(365,354,o),
(387,296,o),
(387,243,cs),
(387,171,o),
(356,111,o),
(294,111,cs),
(284,111,o),
(226,115,o),
(205,161,c),
(147,92,l),
(184,42,o),
(254,-9,o),
(379,-9,cs),
(493,-9,o),
(606,69,o),
(606,239,cs),
(606,437,o),
(478,490,o),
(358,490,cs),
(264,490,o),
(214,431,o),
(197,348,c),
(240,263,l)
);
}
);
width = 636;
},
{
layerId = "B24528F6-199A-4A7E-931E-F430756048DC";
shapes = (
{
closed = 1;
nodes = (
(48,478,l),
(49,422,o),
(49,364,o),
(49,308,c),
(47,-173,l),
(167,-173,l),
(167,378,l),
(162,480,l)
);
},
{
closed = 1;
nodes = (
(165,349,o),
(207,378,o),
(244,378,cs),
(322,378,o),
(339,300,o),
(339,243,cs),
(339,134,o),
(293,104,o),
(241,104,cs),
(211,104,o),
(153,118,o),
(132,164,c),
(74,95,l),
(111,45,o),
(171,-6,o),
(256,-6,cs),
(372,-6,o),
(462,71,o),
(462,247,cs),
(462,372,o),
(410,484,o),
(284,484,cs),
(201,484,o),
(141,435,o),
(124,352,c),
(167,292,l)
);
}
);
width = 502;
}
);
metricLeft = n;
unicode = 112;
userData = {
com.schriftgestaltung.Glyphs.leftMetricsKey = n;
com.schriftgestaltung.Glyphs.rightMetricsKey = d;
};
},
{
glyphname = q;
lastChange = "2017-08-07 12:01:36 +0000";
layers = (
{
layerId = "B24528F6-199A-4A7E-931E-F430756048DC";
shapes = (
{
closed = 1;
nodes = (
(335,378,l),
(335,-173,l),
(455,-173,l),
(453,308,l),
(453,364,o),
(453,428,o),
(454,484,c),
(344,480,l)
);
},
{
closed = 1;
nodes = (
(378,352,l),
(361,435,o),
(301,484,o),
(218,484,cs),
(92,484,o),
(40,372,o),
(40,247,cs),
(40,71,o),
(130,-6,o),
(246,-6,cs),
(331,-6,o),
(391,45,o),
(428,95,c),
(370,164,l),
(349,118,o),
(291,104,o),
(261,104,cs),
(209,104,o),
(163,134,o),
(163,243,cs),
(163,300,o),
(180,378,o),
(258,378,cs),
(295,378,o),
(337,349,o),
(335,292,c)
);
}
);
width = 502;
},
{
layerId = "0EF112A6-69F8-47E9-9D72-C545F6D6A613";
width = 600;
}
);
unicode = 113;
},
{
glyphname = r;
lastChange = "2017-08-07 12:01:36 +0000";
layers = (
{
layerId = "0EF112A6-69F8-47E9-9D72-C545F6D6A613";
shapes = (
{
closed = 1;
nodes = (
(165,0,l),
(159,108,o),
(164,241,o),
(165,364,c),
(162,409,l),
(165,484,l),
(47,482,l),
(51,0,l)
);
},
{
closed = 1;
nodes = (
(177,318,o),
(224,386,o),
(334,347,c),
(358,474,l),
(262,507,o),
(193,453,o),
(152,402,c),
(163,277,l)
);
}
);
width = 358;
},
{
layerId = "B24528F6-199A-4A7E-931E-F430756048DC";
shapes = (
{
closed = 1;
nodes = (
(165,0,l),
(159,108,o),
(164,241,o),
(165,364,c),
(162,409,l),
(165,484,l),
(47,482,l),
(51,0,l)
);
},
{
closed = 1;
nodes = (
(177,318,o),
(224,386,o),
(334,347,c),
(358,474,l),
(262,507,o),
(193,453,o),
(152,402,c),
(163,277,l)
);
}
);
width = 358;
}
);
metricLeft = "=n";
unicode = 114;
userData = {
com.schriftgestaltung.Glyphs.leftMetricsKey = "=n";
};
},
{
glyphname = s;
lastChange = "2017-08-26 22:08:29 +0000";
layers = (
{
layerId = "0EF112A6-69F8-47E9-9D72-C545F6D6A613";
shapes = (
{
closed = 1;
nodes = (
(281,-15,o),
(352,41,o),
(353,134,cs),
(355,254,o),
(166,297,o),
(166,358,cs),
(166,378,o),
(180,392,o),
(207,392,cs),
(240,392,o),
(271,381,o),
(309,359,c),
(342,446,l),
(319,462,o),
(260,486,o),
(207,486,cs),
(88,486,o),
(44,420,o),
(44,350,cs),
(44,218,o),
(227,202,o),
(227,130,cs),
(227,102,o),
(212,84,o),
(181,84,cs),
(134,84,o),
(93,113,o),
(71,125,c),
(35,38,l),
(58,22,o),
(111,-15,o),
(199,-15,cs)
);
}
);
width = 386;
},
{
layerId = "B24528F6-199A-4A7E-931E-F430756048DC";
shapes = (
{
closed = 1;
nodes = (
(282,-16,o),
(349,46,o),
(350,126,cs),
(351,268,o),
(163,295,o),
(163,356,cs),
(163,378,o),
(184,392,o),
(214,392,cs),
(244,392,o),
(269,382,o),
(306,353,c),
(350,428,l),
(327,454,o),
(271,486,o),
(199,486,cs),
(94,486,o),
(41,417,o),
(41,349,cs),
(41,209,o),
(226,200,o),
(226,128,cs),
(226,100,o),
(205,83,o),
(170,83,cs),
(127,83,o),
(89,102,o),
(57,123,c),
(25,41,l),
(47,24,o),
(102,-16,o),
(190,-16,cs)
);
}
);
width = 381;
},
{
associatedMasterId = "B24528F6-199A-4A7E-931E-F430756048DC";
layerId = "902186E6-34AE-47F7-ADEB-81DA94DFFD47";
name = "Aug 7 17, 22:26";
shapes = (
{
closed = 1;
nodes = (
(287,-15,o),
(348,41,o),
(349,127,cs),
(351,254,o),
(163,280,o),
(163,347,cs),
(163,381,o),
(186,392,o),
(216,392,cs),
(246,392,o),
(277,381,o),
(315,359,c),
(348,446,l),
(325,462,o),
(266,486,o),
(209,486,cs),
(94,486,o),
(41,422,o),
(41,351,cs),
(41,214,o),
(225,201,o),
(225,129,cs),
(225,101,o),
(208,84,o),
(177,84,cs),
(130,84,o),
(89,113,o),
(67,125,c),
(31,38,l),
(54,22,o),
(107,-15,o),
(195,-15,cs)
);
}
);
width = 381;
}
);
unicode = 115;
},
{
glyphname = t;
lastChange = "2017-08-09 10:53:08 +0000";
layers = (
{
layerId = "0EF112A6-69F8-47E9-9D72-C545F6D6A613";
shapes = (
{
closed = 1;
nodes = (
(318,-16,o),
(369,-1,o),
(392,13,c),
(379,95,l),
(379,95,o),
(357,86,o),
(320,83,cs),
(271,79,o),
(265,139,o),
(265,168,cs),
(268,443,l),
(269,474,l),
(269,634,l),
(61,622,l),
(52,455,l),
(51,155,l),
(51,8,o),
(190,-16,o),
(281,-16,cs)
);
},
{
closed = 1;
nodes = (
(371,367,l),
(371,480,l),
(0,480,l),
(0,367,l)
);
}
);
width = 422;
},
{
layerId = "B24528F6-199A-4A7E-931E-F430756048DC";
shapes = (
{
closed = 1;
nodes = (
(238,-16,o),
(279,-4,o),
(302,10,c),
(289,92,l),
(289,92,o),
(267,83,o),
(240,83,cs),
(191,83,o),
(185,119,o),
(185,148,cs),
(188,443,l),
(189,474,l),
(189,634,l),
(81,631,l),
(72,455,l),
(71,105,l),
(71,28,o),
(110,-16,o),
(201,-16,cs)
);
},
{
closed = 1;
nodes = (
(279,387,l),
(281,480,l),
(20,480,l),
(17,387,l)
);
}
);
width = 332;
}
);
unicode = 116;
},
{
glyphname = u;
lastChange = "2017-08-09 10:49:14 +0000";
layers = (
{
layerId = "0EF112A6-69F8-47E9-9D72-C545F6D6A613";
shapes = (
{
closed = 1;
nodes = (
(20,477,l),
(20,351,o),
(20,235,o),
(20,122,c),
(20,35,o),
(87,-10,o),
(170,-10,cs),
(251,-10,o),
(317,41,o),
(372,91,c),
(324,250,l),
(305,204,o),
(294,171,o),
(265,171,cs),
(247,171,o),
(243,186,o),
(239,228,cs),
(234,284,o),
(236,367,o),
(236,477,c)
);
},
{
closed = 1;
nodes = (
(321,477,l),
(324,366,o),
(324,213,o),
(323,83,c),
(333,71,l),
(334,-3,l),
(564,1,l),
(564,167,o),
(563,316,o),
(561,477,c)
);
}
);
width = 594;
},
{
layerId = "B24528F6-199A-4A7E-931E-F430756048DC";
shapes = (
{
closed = 1;
nodes = (
(280,-7,o),
(337,34,o),
(374,86,c),
(346,185,l),
(325,139,o),
(280,114,o),
(240,114,cs),
(208,114,o),
(189,129,o),
(185,171,cs),
(180,228,o),
(182,371,o),
(182,481,c),
(65,481,l),
(65,355,o),
(65,239,o),
(65,126,c),
(65,39,o),
(122,-7,o),
(205,-7,cs)
);
},
{
closed = 1;
nodes = (
(463,1,l),
(463,162,o),
(463,319,o),
(461,481,c),
(344,481,l),
(347,369,o),
(346,208,o),
(345,78,c),
(355,66,l),
(356,1,l)
);
}
);
width = 518;
}
);
metricRight = "=n";
unicode = 117;
userData = {
com.schriftgestaltung.Glyphs.rightMetricsKey = "=n";
};
},
{
glyphname = v;
lastChange = "2017-08-07 12:01:36 +0000";
layers = (
{
layerId = "0EF112A6-69F8-47E9-9D72-C545F6D6A613";
shapes = (
{
closed = 1;
nodes = (
(227,2,l),
(204,252,l),
(133,479,l),
(6,479,l),
(157,2,l)
);
},
{
closed = 1;
nodes = (
(272,2,l),
(434,479,l),
(326,479,l),
(197,90,l),
(166,2,l)
);
}
);
width = 438;
},
{
layerId = "B24528F6-199A-4A7E-931E-F430756048DC";
shapes = (
{
closed = 1;
nodes = (
(227,2,l),
(204,252,l),
(133,479,l),
(6,479,l),
(157,2,l)
);
},
{
closed = 1;
nodes = (
(272,2,l),
(434,479,l),
(326,479,l),
(197,90,l),
(166,2,l)
);
}
);
width = 438;
}
);
unicode = 118;
userData = {
com.schriftgestaltung.Glyphs.ColorIndex = 0;
};
},
{
glyphname = w;
lastChange = "2017-08-09 10:47:30 +0000";
layers = (
{
layerId = "0EF112A6-69F8-47E9-9D72-C545F6D6A613";
shapes = (
{
closed = 1;
nodes = (
(211,2,l),
(193,252,l),
(120,479,l),
(-90,479,l),
(51,2,l)
);
},
{
closed = 1;
nodes = (
(266,2,l),
(374,388,l),
(359,479,l),
(290,479,l),
(181,90,l),
(60,2,l)
);
},
{
closed = 1;
nodes = (
(481,2,l),
(458,241,l),
(378,479,l),
(300,479,l),
(294,344,l),
(411,2,l)
);
},
{
closed = 1;
nodes = (
(529,2,l),
(668,479,l),
(560,479,l),
(451,90,l),
(420,2,l)
);
}
);
width = 668;
},
{
layerId = "B24528F6-199A-4A7E-931E-F430756048DC";
shapes = (
{
closed = 1;
nodes = (
(211,2,l),
(193,252,l),
(120,479,l),
(0,479,l),
(141,2,l)
);
},
{
closed = 1;
nodes = (
(266,2,l),
(374,388,l),
(359,479,l),
(290,479,l),
(181,90,l),
(150,2,l)
);
},
{
closed = 1;
nodes = (
(481,2,l),
(458,241,l),
(378,479,l),
(300,479,l),
(294,344,l),
(411,2,l)
);
},
{
closed = 1;
nodes = (
(529,2,l),
(668,479,l),
(560,479,l),
(451,90,l),
(420,2,l)
);
}
);
width = 668;
}
);
unicode = 119;
},
{
glyphname = x;
lastChange = "2017-08-07 12:01:36 +0000";
layers = (
{
layerId = "0EF112A6-69F8-47E9-9D72-C545F6D6A613";
shapes = (
{
closed = 1;
nodes = (
(420,0,l),
(265,255,l),
(251,269,l),
(132,481,l),
(5,481,l),
(164,207,l),
(184,189,l),
(288,0,l)
);
},
{
closed = 1;
nodes = (
(129,0,l),
(233,204,l),
(264,224,l),
(405,481,l),
(291,482,l),
(175,258,l),
(150,245,l),
(5,0,l)
);
}
);
width = 425;
},
{
layerId = "B24528F6-199A-4A7E-931E-F430756048DC";
shapes = (
{
closed = 1;
nodes = (
(420,0,l),
(265,255,l),
(251,269,l),
(132,481,l),
(5,481,l),
(164,207,l),
(184,189,l),
(288,0,l)
);
},
{
closed = 1;
nodes = (
(129,0,l),
(233,204,l),
(264,224,l),
(405,481,l),
(291,482,l),
(175,258,l),
(150,245,l),
(5,0,l)
);
}
);
width = 425;
}
);
unicode = 120;
},
{
glyphname = y;
lastChange = "2017-08-07 12:01:36 +0000";
layers = (
{
layerId = "0EF112A6-69F8-47E9-9D72-C545F6D6A613";
shapes = (
{
closed = 1;
nodes = (
(225,157,l),
(218,283,l),
(132,479,l),
(5,479,l),
(176,59,l)
);
},
{
closed = 1;
nodes = (
(230,-136,l),
(453,479,l),
(327,479,l),
(106,-135,l)
);
}
);
width = 448;
},
{
layerId = "B24528F6-199A-4A7E-931E-F430756048DC";
shapes = (
{
closed = 1;
nodes = (
(225,157,l),
(218,283,l),
(132,479,l),
(5,479,l),
(176,59,l)
);
},
{
closed = 1;
nodes = (
(230,-136,l),
(453,479,l),
(327,479,l),
(106,-135,l)
);
}
);
width = 448;
}
);
unicode = 121;
userData = {
com.schriftgestaltung.Glyphs.ColorIndex = 0;
};
},
{
glyphname = tml_I;
lastChange = "2017-08-07 23:54:18 +0000";
layers = (
{
layerId = "B24528F6-199A-4A7E-931E-F430756048DC";
shapes = (
{
closed = 1;
nodes = (
(481,524,o),
(456,519,o),
(433,508,c),
(443,508,ls),
(495,508,o),
(563,469,o),
(563,376,cs),
(563,352,o),
(558,330,o),
(547,310,cs),
(524,269,o),
(487,249,o),
(436,249,cs),
(412,249,o),
(390,254,o),
(370,265,cs),
(327,288,o),
(305,328,o),
(305,385,cs),
(305,472,o),
(372,573,o),
(513,573,cs),
(622,573,o),
(746,498,o),
(746,307,cs),
(746,252,o),
(734,196,o),
(711,141,c),
(788,91,o),
(826,28,o),
(827,-48,cs),
(827,-85,o),
(817,-116,o),
(796,-143,cs),
(761,-188,o),
(704,-210,o),
(626,-210,cs),
(560,-210,o),
(493,-193,o),
(424,-158,c),
(355,-192,o),
(291,-209,o),
(230,-210,cs),
(194,-210,o),
(162,-203,o),
(133,-190,cs),
(12,-135,o),
(9,35,o),
(146,134,c),
(114,206,o),
(98,282,o),
(98,361,cs),
(98,565,o),
(212,754,o),
(525,754,cs),
(596,754,o),
(658,744,o),
(711,724,cs),
(874,663,o),
(955,501,o),
(955,239,cs),
(955,0,l),
(904,0,l),
(904,223,ls),
(904,308,o),
(896,381,o),
(879,443,cs),
(832,616,o),
(713,703,o),
(524,703,cs),
(320,703,o),
(152,597,o),
(152,357,cs),
(152,290,o),
(166,224,o),
(193,161,c),
(265,198,o),
(346,216,o),
(436,216,cs),
(519,216,o),
(595,199,o),
(665,166,c),
(686,214,o),
(696,263,o),
(696,314,cs),
(696,417,o),
(638,524,o),
(509,524,cs)
);
},
{
closed = 1;
nodes = (
(449,296,o),
(460,298,o),
(471,303,cs),
(501,317,o),
(516,342,o),
(516,379,cs),
(516,391,o),
(514,402,o),
(510,413,cs),
(498,446,o),
(473,463,o),
(435,463,cs),
(422,463,o),
(409,460,o),
(398,455,cs),
(369,442,o),
(354,418,o),
(353,383,cs),
(353,382,ls),
(353,367,o),
(356,354,o),
(361,342,cs),
(375,311,o),
(400,296,o),
(436,296,cs)
);
},
{
closed = 1;
nodes = (
(346,166,o),
(274,150,o),
(214,119,c),
(265,26,o),
(335,-47,o),
(425,-100,c),
(428,-98,o),
(432,-96,o),
(437,-93,cs),
(526,-37,o),
(595,34,o),
(643,121,c),
(581,151,o),
(510,166,o),
(430,166,cs)
);
},
{
closed = 1;
nodes = (
(690,-161,o),
(775,-137,o),
(775,-48,c),
(773,3,o),
(744,51,o),
(689,94,c),
(640,5,o),
(569,-69,o),
(478,-127,c),
(529,-150,o),
(579,-161,o),
(627,-161,cs)
);
},
{
closed = 1;
nodes = (
(273,-161,o),
(320,-150,o),
(371,-127,c),
(286,-73,o),
(219,-1,o),
(168,89,c),
(119,50,o),
(94,4,o),
(93,-47,cs),
(93,-69,o),
(99,-89,o),
(110,-106,cs),
(135,-143,o),
(174,-161,o),
(229,-161,cs)
);
}
);
width = 1005;
},
{
layerId = "0EF112A6-69F8-47E9-9D72-C545F6D6A613";
width = 600;
}
);
note = tml_I;
unicode = 2951;
},
{
glyphname = tml_Ii;
lastChange = "2017-08-09 15:37:24 +0000";
layers = (
{
layerId = "B24528F6-199A-4A7E-931E-F430756048DC";
shapes = (
{
closed = 1;
nodes = (
(270,160,o),
(294,184,o),
(294,214,cs),
(294,243,o),
(270,267,o),
(241,267,cs),
(211,267,o),
(187,243,o),
(187,214,cs),
(187,184,o),
(211,160,o),
(241,160,cs)
);
},
{
closed = 1;
nodes = (
(530,160,o),
(554,184,o),
(554,214,cs),
(554,243,o),
(530,267,o),
(501,267,cs),
(471,267,o),
(447,243,o),
(447,214,cs),
(447,184,o),
(471,160,o),
(501,160,cs)
);
},
{
ref = tml_Ra.alt;
}
);
width = 637;
},
{
layerId = "0EF112A6-69F8-47E9-9D72-C545F6D6A613";
width = 600;
}
);
note = tml_Ii;
unicode = 2952;
},
{
glyphname = tml_U;
lastChange = "2017-08-07 23:54:18 +0000";
layers = (
{
layerId = "B24528F6-199A-4A7E-931E-F430756048DC";
shapes = (
{
closed = 1;
nodes = (
(173,0,ls),
(152,0,o),
(132,3,o),
(115,8,cs),
(70,22,o),
(48,51,o),
(48,95,cs),
(48,111,o),
(51,126,o),
(57,140,cs),
(74,179,o),
(109,198,o),
(163,198,cs),
(211,198,ls),
(344,199,o),
(411,258,o),
(412,376,cs),
(412,422,o),
(400,460,o),
(376,491,cs),
(313,570,o),
(205,557,o),
(156,524,c),
(165,525,o),
(172,526,o),
(178,526,cs),
(199,526,o),
(219,522,o),
(238,515,cs),
(290,494,o),
(316,452,o),
(316,389,cs),
(316,326,o),
(277,247,o),
(184,247,cs),
(124,247,o),
(42,286,o),
(42,402,cs),
(42,490,o),
(97,596,o),
(248,597,cs),
(349,597,o),
(462,539,o),
(462,376,cs),
(462,337,o),
(455,301,o),
(442,270,cs),
(408,191,o),
(339,151,o),
(236,150,cs),
(159,149,ls),
(155,149,o),
(151,149,o),
(146,148,c),
(82,139,o),
(76,50,o),
(169,49,cs),
(786,49,l),
(786,0,l)
);
},
{
closed = 1;
nodes = (
(198,295,o),
(214,299,o),
(228,308,cs),
(255,325,o),
(268,353,o),
(268,390,cs),
(268,407,o),
(265,422,o),
(259,435,cs),
(244,466,o),
(218,482,o),
(179,482,cs),
(169,482,o),
(159,481,o),
(150,478,c),
(111,467,o),
(91,436,o),
(91,385,cs),
(91,384,ls),
(91,370,o),
(94,357,o),
(101,344,c),
(117,311,o),
(144,295,o),
(181,295,cs)
);
}
);
width = 828;
},
{
layerId = "0EF112A6-69F8-47E9-9D72-C545F6D6A613";
width = 600;
}
);
note = tml_U;
unicode = 2953;
},
{
glyphname = tml_Uu;
lastChange = "2017-08-07 23:54:18 +0000";
layers = (
{
layerId = "B24528F6-199A-4A7E-931E-F430756048DC";
shapes = (
{
closed = 1;
nodes = (
(145,0,o),
(129,2,o),
(114,6,cs),
(70,19,o),
(48,49,o),
(48,94,cs),
(48,113,o),
(52,129,o),
(61,144,cs),
(80,175,o),
(112,191,o),
(157,191,cs),
(229,191,ls),
(357,192,o),
(422,249,o),
(423,362,cs),
(423,458,o),
(364,542,o),
(244,542,cs),
(209,542,o),
(178,533,o),
(153,516,c),
(164,517,o),
(173,518,o),
(180,518,cs),
(201,518,o),
(222,514,o),
(241,505,cs),
(290,483,o),
(314,442,o),
(314,383,cs),
(314,322,o),
(279,239,o),
(180,239,cs),
(151,239,o),
(126,247,o),
(103,263,cs),
(62,292,o),
(42,337,o),
(42,397,cs),
(42,481,o),
(95,588,o),
(247,589,cs),
(358,589,o),
(474,523,o),
(474,363,cs),
(474,329,o),
(469,298,o),
(458,270,cs),
(427,187,o),
(356,144,o),
(246,142,cs),
(159,141,ls),
(154,141,o),
(149,141,o),
(144,140,c),
(87,131,o),
(80,50,o),
(168,49,cs),
(1156,49,l),
(1156,0,l),
(162,0,ls)
);
},
{
closed = 1;
nodes = (
(196,287,o),
(211,291,o),
(224,298,c),
(252,315,o),
(266,343,o),
(266,384,cs),
(266,401,o),
(263,416,o),
(257,429,cs),
(242,460,o),
(215,475,o),
(176,475,cs),
(165,475,o),
(154,473,o),
(143,469,cs),
(108,456,o),
(90,425,o),
(90,376,cs),
(90,362,o),
(93,348,o),
(100,335,cs),
(117,303,o),
(144,287,o),
(181,287,cs)
);
},
{
closed = 1;
nodes = (
(621,100,o),
(602,106,o),
(585,119,cs),
(544,152,o),
(524,213,o),
(524,302,cs),
(524,365,o),
(535,418,o),
(558,462,cs),
(623,589,o),
(766,579,o),
(826,488,c),
(826,547,l),
(1153,547,l),
(1153,499,l),
(1061,499,l),
(1061,123,l),
(1015,123,l),
(1015,499,l),
(873,499,l),
(873,123,l),
(825,123,l),
(825,332,ls),
(825,361,o),
(822,388,o),
(816,411,cs),
(799,477,o),
(763,510,o),
(706,510,cs),
(693,510,o),
(681,508,o),
(669,504,cs),
(617,487,o),
(585,440,o),
(574,361,c),
(592,387,o),
(616,400,o),
(646,401,cs),
(660,401,o),
(673,398,o),
(686,393,c),
(731,373,o),
(753,326,o),
(753,251,cs),
(753,195,o),
(735,100,o),
(642,100,cs)
);
},
{
closed = 1;
nodes = (
(651,145,o),
(659,147,o),
(666,150,cs),
(695,163,o),
(709,197,o),
(709,252,cs),
(709,287,o),
(703,356,o),
(644,356,cs),
(631,356,o),
(620,352,o),
(609,344,c),
(584,324,o),
(572,291,o),
(574,244,c),
(583,179,o),
(607,146,o),
(644,145,cs)
);
}
);
width = 1198;
},
{
layerId = "0EF112A6-69F8-47E9-9D72-C545F6D6A613";
width = 600;
}
);
note = tml_Uu;
unicode = 2954;
},
{
glyphname = tml_E;
lastChange = "2017-08-08 00:00:50 +0000";
layers = (
{
layerId = "B24528F6-199A-4A7E-931E-F430756048DC";
shapes = (
{
closed = 1;
nodes = (
(304,389,l),
(203,387,o),
(141,338,o),
(135,239,cs),
(133,207,o),
(141,79,o),
(235,79,cs),
(263,79,o),
(284,96,o),
(284,125,cs),
(284,157,o),
(263,179,o),
(227,179,cs),
(195,179,o),
(148,152,o),
(138,117,c),
(111,180,l),
(120,230,o),
(179,274,o),
(241,274,cs),
(339,274,o),
(380,202,o),
(380,133,cs),
(380,53,o),
(330,-12,o),
(230,-12,cs),
(113,-12,o),
(40,78,o),
(40,219,cs),
(40,430,o),
(207,483,o),
(304,483,c)
);
},
{
closed = 1;
nodes = (
(587,483,l),
(707,483,l),
(696,396,l),
(586,397,l),
(586,0,l),
(468,-1,l),
(468,389,l),
(304,389,l),
(304,483,l)
);
}
);
width = 727;
},
{
layerId = "0EF112A6-69F8-47E9-9D72-C545F6D6A613";
width = 600;
}
);
note = tml_E;
unicode = 2958;
},
{
glyphname = tml_Ee;
lastChange = "2017-08-26 22:06:29 +0000";
layers = (
{
layerId = "B24528F6-199A-4A7E-931E-F430756048DC";
shapes = (
{
closed = 1;
nodes = (
(585,0,l),
(339,-201,l),
(267,-127,l),
(468,59,l)
);
},
{
ref = tml_E;
}
);
width = 727;
},
{
layerId = "0EF112A6-69F8-47E9-9D72-C545F6D6A613";
width = 600;
}
);
metricRight = tml_E;
note = tml_Ee;
unicode = 2959;
},
{
glyphname = tml_Ai;
lastChange = "2017-08-07 23:54:18 +0000";
layers = (
{
layerId = "B24528F6-199A-4A7E-931E-F430756048DC";
shapes = (
{
closed = 1;
nodes = (
(45,40,o),
(47,57,o),
(51,74,c),
(84,195,o),
(195,200,o),
(380,221,cs),
(568,242,o),
(687,264,o),
(687,401,cs),
(687,414,o),
(686,427,o),
(684,439,cs),
(672,501,o),
(633,532,o),
(566,532,cs),
(547,532,o),
(530,528,o),
(515,521,cs),
(458,492,o),
(429,418,o),
(430,299,c),
(380,299,l),
(380,316,o),
(380,333,o),
(379,349,cs),
(370,473,o),
(324,535,o),
(240,535,cs),
(190,535,o),
(151,518,o),
(124,485,c),
(137,492,o),
(152,495,o),
(169,495,cs),
(183,495,o),
(197,492,o),
(211,487,c),
(260,467,o),
(284,425,o),
(284,362,cs),
(284,309,o),
(261,234,o),
(164,234,cs),
(145,234,o),
(127,238,o),
(111,245,cs),
(18,286,o),
(32,437,o),
(75,502,cs),
(146,610,o),
(349,618,o),
(406,465,c),
(436,542,o),
(489,580,o),
(566,581,cs),
(601,581,o),
(632,573,o),
(659,558,cs),
(763,498,o),
(785,274,o),
(584,203,cs),
(546,191,o),
(478,180,o),
(381,170,c),
(379,170,l),
(378,170,l),
(163,146,o),
(96,125,o),
(96,22,cs),
(96,-4,o),
(104,-28,o),
(119,-49,cs),
(146,-86,o),
(185,-105,o),
(236,-105,cs),
(250,-105,o),
(263,-104,o),
(276,-101,c),
(344,-88,o),
(378,-29,o),
(378,74,c),
(430,74,l),
(431,-44,o),
(473,-103,o),
(557,-104,c),
(632,-101,o),
(696,-37,o),
(659,74,c),
(709,81,l),
(721,42,o),
(722,2,o),
(712,-39,cs),
(676,-191,o),
(474,-175,o),
(415,-83,c),
(407,-66,o),
(403,-57,o),
(403,-57,cs),
(403,-57,o),
(400,-64,o),
(394,-79,c),
(366,-130,o),
(311,-155,o),
(230,-155,cs),
(195,-155,o),
(162,-147,o),
(132,-131,cs),
(74,-100,o),
(45,-49,o),
(45,21,cs)
);
},
{
closed = 1;
nodes = (
(179,280,o),
(192,284,o),
(203,292,c),
(227,308,o),
(239,332,o),
(239,363,cs),
(239,377,o),
(237,390,o),
(233,402,cs),
(222,435,o),
(201,451,o),
(170,451,cs),
(154,451,o),
(140,447,o),
(127,440,cs),
(102,426,o),
(90,403,o),
(90,370,cs),
(90,355,o),
(92,342,o),
(96,329,cs),
(107,296,o),
(130,280,o),
(164,280,cs)
);
}
);
width = 779;
},
{
layerId = "0EF112A6-69F8-47E9-9D72-C545F6D6A613";
width = 600;
}
);
note = tml_Ai;
unicode = 2960;
},
{
glyphname = tml_O;
lastChange = "2017-08-07 23:54:18 +0000";
layers = (
{
layerId = "B24528F6-199A-4A7E-931E-F430756048DC";
shapes = (
{
closed = 1;
nodes = (
(188,194,o),
(201,197,o),
(214,204,c),
(243,221,o),
(257,248,o),
(257,286,cs),
(257,299,o),
(255,312,o),
(251,323,cs),
(238,358,o),
(214,375,o),
(177,375,cs),
(164,375,o),
(153,373,o),
(142,369,cs),
(108,357,o),
(91,331,o),
(90,290,c),
(91,277,o),
(93,264,o),
(96,252,c),
(109,213,o),
(134,194,o),
(173,194,cs)
);
},
{
closed = 1;
nodes = (
(248,-164,o),
(149,-108,o),
(149,23,c),
(198,23,l),
(198,0,o),
(203,-22,o),
(214,-43,cs),
(238,-90,o),
(278,-114,o),
(334,-114,cs),
(355,-114,o),
(375,-110,o),
(392,-103,cs),
(442,-82,o),
(469,-37,o),
(474,31,c),
(459,32,o),
(445,36,o),
(432,41,c),
(387,62,o),
(364,104,o),
(364,169,cs),
(364,299,l),
(414,299,l),
(414,292,o),
(415,284,o),
(416,277,cs),
(423,226,o),
(447,200,o),
(490,200,cs),
(506,200,o),
(521,203,o),
(534,210,cs),
(574,231,o),
(594,276,o),
(594,345,cs),
(594,469,o),
(490,561,o),
(355,561,cs),
(324,561,o),
(294,557,o),
(266,548,cs),
(191,525,o),
(139,477,o),
(110,403,c),
(131,416,o),
(155,422,o),
(182,422,cs),
(206,422,o),
(228,415,o),
(249,401,cs),
(286,376,o),
(304,337,o),
(304,285,cs),
(304,225,o),
(268,146,o),
(177,146,cs),
(154,146,o),
(133,151,o),
(114,160,cs),
(66,184,o),
(42,233,o),
(42,307,cs),
(42,458,o),
(132,610,o),
(355,610,cs),
(506,610,o),
(644,513,o),
(644,341,cs),
(644,252,o),
(598,152,o),
(490,152,cs),
(459,152,o),
(433,161,o),
(412,179,c),
(412,168,ls),
(413,108,o),
(438,77,o),
(487,76,cs),
(608,76,l),
(608,29,l),
(522,29,l),
(518,-54,o),
(472,-164,o),
(333,-164,cs)
);
}
);
width = 686;
},
{
layerId = "0EF112A6-69F8-47E9-9D72-C545F6D6A613";
width = 600;
}
);
note = tml_O;
unicode = 2962;
},
{
glyphname = tml_Oo;
lastChange = "2017-08-07 23:54:18 +0000";
layers = (
{
layerId = "B24528F6-199A-4A7E-931E-F430756048DC";
shapes = (
{
closed = 1;
nodes = (
(188,194,o),
(201,197,o),
(214,204,c),
(243,221,o),
(257,248,o),
(257,286,cs),
(257,299,o),
(255,312,o),
(251,323,cs),
(238,358,o),
(214,375,o),
(177,375,cs),
(164,375,o),
(153,373,o),
(142,369,cs),
(108,357,o),
(91,331,o),
(90,290,c),
(91,277,o),
(93,264,o),
(96,252,c),
(109,213,o),
(134,194,o),
(173,194,cs)
);
},
{
closed = 1;
nodes = (
(247,-164,o),
(129,-122,o),
(129,1,cs),
(129,61,o),
(165,121,o),
(246,121,cs),
(261,121,o),
(276,119,o),
(291,114,cs),
(383,81,o),
(379,-54,o),
(298,-114,c),
(311,-115,o),
(321,-116,o),
(330,-116,cs),
(355,-116,o),
(377,-111,o),
(397,-101,cs),
(444,-78,o),
(470,-34,o),
(473,31,c),
(460,32,o),
(447,36,o),
(434,41,c),
(387,61,o),
(364,104,o),
(364,169,cs),
(364,299,l),
(414,299,l),
(414,292,o),
(415,284,o),
(416,277,cs),
(423,226,o),
(447,200,o),
(490,200,cs),
(506,200,o),
(521,203,o),
(534,210,cs),
(574,231,o),
(594,276,o),
(594,345,cs),
(594,469,o),
(490,561,o),
(355,561,cs),
(324,561,o),
(294,557,o),
(266,548,cs),
(191,525,o),
(139,477,o),
(110,403,c),
(131,416,o),
(155,422,o),
(182,422,cs),
(206,422,o),
(228,415,o),
(249,401,cs),
(286,376,o),
(304,337,o),
(304,285,cs),
(304,225,o),
(268,146,o),
(177,146,cs),
(154,146,o),
(133,151,o),
(114,160,cs),
(66,184,o),
(42,233,o),
(42,307,cs),
(42,458,o),
(132,610,o),
(355,610,cs),
(506,610,o),
(644,513,o),
(644,341,cs),
(644,252,o),
(598,152,o),
(490,152,cs),
(459,152,o),
(433,161,o),
(412,179,c),
(412,168,ls),
(413,108,o),
(438,77,o),
(487,76,cs),
(608,76,l),
(608,29,l),
(522,29,l),
(518,-56,o),
(468,-164,o),
(331,-164,cs)
);
},
{
closed = 1;
nodes = (
(177,-3,o),
(177,-7,o),
(178,-12,c),
(183,-50,o),
(205,-78,o),
(244,-97,c),
(245,-97,o),
(245,-97,o),
(246,-96,c),
(291,-71,o),
(314,-38,o),
(314,3,cs),
(314,13,o),
(312,23,o),
(309,32,cs),
(299,60,o),
(278,74,o),
(247,74,cs),
(237,74,o),
(227,72,o),
(218,69,cs),
(191,59,o),
(177,36,o),
(177,1,cs)
);
}
);
width = 686;
},
{
layerId = "0EF112A6-69F8-47E9-9D72-C545F6D6A613";
width = 600;
}
);
note = tml_Oo;
unicode = 2963;
},
{
glyphname = tml_Au;
lastChange = "2017-08-07 23:58:39 +0000";
layers = (
{
layerId = "B24528F6-199A-4A7E-931E-F430756048DC";
shapes = (
{
closed = 1;
nodes = (
(823,-21,o),
(798,-12,o),
(777,7,cs),
(730,49,o),
(706,126,o),
(706,238,cs),
(706,320,o),
(719,389,o),
(746,445,cs),
(827,613,o),
(1020,601,o),
(1096,477,c),
(1096,560,l),
(1527,560,l),
(1527,511,l),
(1395,511,l),
(1395,1,l),
(1345,1,l),
(1345,511,l),
(1146,511,l),
(1146,1,l),
(1094,1,l),
(1094,278,ls),
(1094,379,o),
(1071,524,o),
(934,524,cs),
(905,524,o),
(879,516,o),
(855,501,cs),
(800,465,o),
(768,397,o),
(758,298,c),
(783,335,o),
(816,354,o),
(857,355,cs),
(879,355,o),
(899,349,o),
(918,336,cs),
(963,305,o),
(986,250,o),
(986,171,cs),
(986,86,o),
(953,-21,o),
(850,-21,cs)
);
},
{
closed = 1;
nodes = (
(865,29,o),
(877,32,o),
(888,39,cs),
(921,60,o),
(938,105,o),
(938,173,cs),
(938,225,o),
(926,310,o),
(853,310,cs),
(832,310,o),
(814,302,o),
(798,285,cs),
(769,255,o),
(757,210,o),
(762,150,c),
(776,71,o),
(806,30,o),
(852,29,cs)
);
},
{
closed = 1;
nodes = (
(188,194,o),
(201,197,o),
(214,204,c),
(243,221,o),
(257,248,o),
(257,286,cs),
(257,299,o),
(255,312,o),
(251,323,cs),
(238,358,o),
(214,375,o),
(177,375,cs),
(164,375,o),
(151,373,o),
(140,369,cs),
(107,356,o),
(91,330,o),
(91,291,cs),
(91,278,o),
(93,266,o),
(97,254,c),
(108,214,o),
(134,194,o),
(173,194,cs)
);
},
{
closed = 1;
nodes = (
(248,-164,o),
(149,-108,o),
(149,23,c),
(199,23,l),
(199,1,o),
(204,-20,o),
(214,-41,cs),
(237,-90,o),
(277,-114,o),
(334,-114,cs),
(355,-114,o),
(375,-110,o),
(394,-102,cs),
(443,-81,o),
(470,-36,o),
(474,32,c),
(459,33,o),
(444,37,o),
(431,43,cs),
(386,64,o),
(364,106,o),
(364,169,cs),
(364,299,l),
(414,299,l),
(414,292,o),
(415,284,o),
(416,277,cs),
(423,226,o),
(447,200,o),
(490,200,cs),
(506,200,o),
(521,203,o),
(534,210,cs),
(574,231,o),
(594,276,o),
(594,345,cs),
(594,469,o),
(490,561,o),
(355,561,cs),
(322,561,o),
(291,556,o),
(262,547,cs),
(189,524,o),
(139,476,o),
(111,403,c),
(151,427,o),
(208,429,o),
(249,401,cs),
(286,376,o),
(304,337,o),
(304,285,cs),
(304,225,o),
(268,146,o),
(177,146,cs),
(154,146,o),
(133,151,o),
(114,160,cs),
(66,184,o),
(42,233,o),
(42,307,cs),
(42,458,o),
(132,610,o),
(355,610,cs),
(506,610,o),
(644,513,o),
(644,341,cs),
(644,252,o),
(598,152,o),
(490,152,cs),
(459,152,o),
(434,161,o),
(413,179,c),
(413,168,ls),
(414,108,o),
(438,77,o),
(487,76,cs),
(608,76,l),
(608,29,l),
(522,29,l),
(518,-54,o),
(472,-164,o),
(333,-164,cs)
);
}
);
width = 1525;
},
{
layerId = "0EF112A6-69F8-47E9-9D72-C545F6D6A613";
width = 600;
}
);
note = tml_Au;
unicode = 2964;
},
{
glyphname = tml_Ka;
lastChange = "2017-08-07 23:31:23 +0000";
layers = (
{
layerId = "B24528F6-199A-4A7E-931E-F430756048DC";
shapes = (
{
closed = 1;
nodes = (
(36,253,o),
(98,309,o),
(216,309,cs),
(467,309,ls),
(541,309,o),
(653,280,o),
(653,146,cs),
(653,16,o),
(554,-21,o),
(472,-21,cs),
(451,-21,l),
(441,57,l),
(512,59,o),
(539,106,o),
(539,147,cs),
(539,204,o),
(484,219,o),
(443,219,cs),
(207,221,ls),
(154,221,o),
(126,192,o),
(126,152,cs),
(126,109,o),
(168,68,o),
(229,68,cs),
(284,68,o),
(328,109,o),
(328,186,cs),
(328,257,l),
(338,269,l),
(338,398,l),
(240,398,l),
(240,277,l),
(155,277,l),
(155,480,l),
(544,480,l),
(537,398,l),
(441,398,l),
(441,176,ls),
(441,72,o),
(381,-23,o),
(238,-23,cs),
(98,-23,o),
(36,70,o),
(36,145,cs)
);
}
);
width = 665;
},
{
layerId = "0EF112A6-69F8-47E9-9D72-C545F6D6A613";
width = 600;
}
);
note = tml_Ka;
unicode = 2965;
},
{
glyphname = tml_Nga;
lastChange = "2017-08-26 22:00:25 +0000";
layers = (
{
layerId = "B24528F6-199A-4A7E-931E-F430756048DC";
shapes = (
{
closed = 1;
nodes = (
(57,481,l),
(488,481,l),
(483,380,l),
(363,380,l),
(363,165,l),
(253,165,l),
(253,380,l),
(173,380,l),
(173,-5,l),
(57,-5,l)
);
},
{
closed = 1;
nodes = (
(748,-4,l),
(278,-4,l),
(295,90,l),
(427,90,l),
(482,150,o),
(453,227,o),
(409,227,cs),
(372,227,o),
(364,202,o),
(364,166,c),
(310,193,l),
(312,236,o),
(338,322,o),
(450,321,cs),
(550,320,o),
(624,196,o),
(542,90,c),
(629,90,l),
(629,480,l),
(747,470,l),
(747,82,l)
);
}
);
width = 798;
},
{
layerId = "0EF112A6-69F8-47E9-9D72-C545F6D6A613";
width = 600;
}
);
note = tml_Nga;
unicode = 2969;
},
{
glyphname = tml_Ca;
lastChange = "2017-08-26 22:03:21 +0000";
layers = (
{
layerId = "B24528F6-199A-4A7E-931E-F430756048DC";
shapes = (
{
closed = 1;
nodes = (
(36,253,o),
(98,309,o),
(216,309,cs),
(537,309,l),
(535,219,l),
(207,221,ls),
(154,221,o),
(126,192,o),
(126,152,cs),
(126,109,o),
(168,68,o),
(229,68,cs),
(284,68,o),
(328,109,o),
(328,186,cs),
(328,257,l),
(338,269,l),
(338,398,l),
(240,398,l),
(240,277,l),
(155,277,l),
(155,480,l),
(546,480,l),
(544,398,l),
(441,398,l),
(441,176,ls),
(441,72,o),
(381,-23,o),
(238,-23,cs),
(98,-23,o),
(36,70,o),
(36,145,cs)
);
}
);
width = 567;
},
{
layerId = "0EF112A6-69F8-47E9-9D72-C545F6D6A613";
width = 600;
}
);
note = tml_Ca;
unicode = 2970;
},
{
glyphname = tml_Ja;
lastChange = "2017-08-07 23:54:18 +0000";
layers = (
{
layerId = "B24528F6-199A-4A7E-931E-F430756048DC";
shapes = (
{
closed = 1;
nodes = (
(191,-155,o),
(160,-148,o),
(133,-135,cs),
(74,-105,o),
(45,-53,o),
(45,21,cs),
(45,43,o),
(48,63,o),
(54,82,cs),
(95,199,o),
(200,198,o),
(380,222,c),
(381,222,l),
(382,222,l),
(383,222,l),
(384,223,l),
(385,223,l),
(386,223,l),
(387,223,l),
(388,223,l),
(389,223,l),
(390,223,l),
(391,224,l),
(392,224,l),
(393,224,l),
(394,224,l),
(395,224,l),
(396,224,l),
(581,251,o),
(686,270,o),
(686,401,cs),
(686,418,o),
(684,434,o),
(680,449,cs),
(666,504,o),
(630,531,o),
(573,531,cs),
(564,531,o),
(554,530,o),
(545,528,cs),
(470,513,o),
(432,441,o),
(432,312,cs),
(432,299,l),
(381,299,l),
(381,314,ls),
(381,347,o),
(378,376,o),
(373,403,cs),
(354,491,o),
(310,535,o),
(241,535,cs),
(190,535,o),
(151,518,o),
(124,485,c),
(137,492,o),
(152,495,o),
(169,495,cs),
(183,495,o),
(197,492,o),
(210,487,cs),
(259,468,o),
(284,426,o),
(284,362,cs),
(284,309,o),
(261,234,o),
(164,234,cs),
(146,234,o),
(129,237,o),
(114,243,cs),
(17,284,o),
(32,437,o),
(75,502,cs),
(147,610,o),
(347,619,o),
(407,463,c),
(436,541,o),
(491,580,o),
(573,581,cs),
(601,581,o),
(626,576,o),
(649,566,cs),
(708,539,o),
(737,484,o),
(737,401,cs),
(736,209,o),
(576,191,o),
(379,170,cs),
(202,149,o),
(97,133,o),
(97,22,cs),
(97,-2,o),
(103,-24,o),
(114,-43,cs),
(138,-83,o),
(176,-103,o),
(229,-103,cs),
(251,-103,o),
(272,-97,o),
(293,-85,c),
(314,-72,o),
(344,-44,o),
(381,0,cs),
(398,21,o),
(412,36,o),
(421,46,cs),
(472,99,o),
(526,126,o),
(583,126,cs),
(610,126,o),
(635,121,o),
(656,110,cs),
(701,87,o),
(724,46,o),
(724,-14,cs),
(724,-78,o),
(678,-157,o),
(574,-154,cs),
(478,-154,l),
(478,-104,l),
(571,-104,ls),
(578,-104,o),
(586,-103,o),
(594,-102,c),
(645,-93,o),
(671,-63,o),
(671,-13,cs),
(671,-3,o),
(670,6,o),
(668,15,c),
(657,56,o),
(627,76,o),
(576,76,cs),
(554,76,o),
(533,70,o),
(512,58,c),
(491,45,o),
(464,17,o),
(430,-26,cs),
(413,-48,o),
(399,-64,o),
(389,-75,cs),
(340,-128,o),
(285,-155,o),
(224,-155,cs)
);
},
{
closed = 1;
nodes = (
(179,280,o),
(192,284,o),
(203,292,c),
(227,308,o),
(239,332,o),
(239,363,cs),
(239,377,o),
(237,390,o),
(233,402,cs),
(222,435,o),
(201,451,o),
(170,451,cs),
(156,451,o),
(143,448,o),
(132,443,cs),
(105,430,o),
(91,405,o),
(90,370,cs),
(90,357,o),
(92,345,o),
(95,334,cs),
(106,298,o),
(129,280,o),
(164,280,cs)
);
}
);
width = 745;
},
{
layerId = "0EF112A6-69F8-47E9-9D72-C545F6D6A613";
width = 600;
}
);
note = tml_Ja;
unicode = 2972;
},
{
glyphname = tml_Nya;
lastChange = "2017-08-07 23:54:18 +0000";
layers = (
{
layerId = "B24528F6-199A-4A7E-931E-F430756048DC";
shapes = (
{
closed = 1;
nodes = (
(332,-24,o),
(309,-15,o),
(288,2,cs),
(239,43,o),
(215,121,o),
(215,235,cs),
(215,399,o),
(282,557,o),
(449,560,cs),
(767,560,l),
(767,512,l),
(635,512,l),
(635,316,l),
(678,368,o),
(752,362,o),
(793,337,cs),
(848,303,o),
(876,231,o),
(876,122,cs),
(876,42,o),
(861,-28,o),
(832,-89,cs),
(771,-214,o),
(657,-276,o),
(492,-275,cs),
(229,-274,o),
(42,-89,o),
(42,227,cs),
(42,360,o),
(75,475,o),
(140,572,c),
(183,547,l),
(124,458,o),
(95,352,o),
(94,227,cs),
(94,-17,o),
(229,-224,o),
(493,-224,cs),
(688,-224,o),
(826,-112,o),
(826,125,cs),
(826,150,o),
(824,174,o),
(821,195,cs),
(808,272,o),
(774,310,o),
(719,310,cs),
(709,310,o),
(699,309,o),
(690,306,cs),
(655,295,o),
(636,265,o),
(635,218,cs),
(635,1,l),
(585,1,l),
(585,512,l),
(453,512,ls),
(422,512,o),
(394,504,o),
(369,488,cs),
(312,453,o),
(278,389,o),
(267,295,c),
(292,332,o),
(325,351,o),
(366,352,cs),
(388,352,o),
(409,345,o),
(428,332,cs),
(473,301,o),
(495,246,o),
(495,168,cs),
(495,83,o),
(462,-24,o),
(359,-24,cs)
);
},
{
closed = 1;
nodes = (
(374,25,o),
(387,29,o),
(398,36,cs),
(431,58,o),
(447,102,o),
(447,169,cs),
(447,221,o),
(435,306,o),
(362,306,cs),
(341,306,o),
(322,298,o),
(306,281,cs),
(278,251,o),
(266,206,o),
(271,147,c),
(285,67,o),
(315,26,o),
(361,25,cs)
);
}
);
width = 918;
},
{
layerId = "0EF112A6-69F8-47E9-9D72-C545F6D6A613";
width = 600;
}
);
note = tml_Nya;
unicode = 2974;
},
{
glyphname = tml_Tta;
lastChange = "2017-08-26 22:03:09 +0000";
layers = (
{
layerId = "B24528F6-199A-4A7E-931E-F430756048DC";
shapes = (
{
closed = 1;
nodes = (
(47,-1,l),
(48,85,l),
(48,477,l),
(166,483,l),
(166,93,l),
(580,93,l),
(578,-1,l)
);
}
);
width = 606;
},
{
layerId = "0EF112A6-69F8-47E9-9D72-C545F6D6A613";
width = 600;
}
);
note = tml_Tta;
unicode = 2975;
},
{
glyphname = tml_Nna;
lastChange = "2017-08-07 23:54:18 +0000";
layers = (
{
layerId = "B24528F6-199A-4A7E-931E-F430756048DC";
shapes = (
{
closed = 1;
nodes = (
(160,-21,o),
(135,-12,o),
(113,7,cs),
(66,49,o),
(42,126,o),
(42,237,cs),
(42,426,o),
(161,572,o),
(340,572,cs),
(403,572,o),
(458,557,o),
(507,528,c),
(556,557,o),
(613,572,o),
(678,572,cs),
(743,572,o),
(801,556,o),
(852,525,c),
(895,549,o),
(945,561,o),
(1001,561,cs),
(1259,561,l),
(1259,511,l),
(1143,511,l),
(1143,1,l),
(1092,1,l),
(1092,511,l),
(1002,511,ls),
(964,511,o),
(929,504,o),
(898,491,c),
(966,427,o),
(1000,336,o),
(1001,217,cs),
(1001,186,o),
(999,157,o),
(995,131,cs),
(978,28,o),
(930,-23,o),
(851,-23,cs),
(824,-23,o),
(801,-16,o),
(780,-3,cs),
(725,32,o),
(698,105,o),
(698,214,cs),
(698,338,o),
(734,431,o),
(806,494,c),
(767,514,o),
(725,524,o),
(678,524,cs),
(631,524,o),
(589,515,o),
(552,496,c),
(623,433,o),
(658,339,o),
(659,216,cs),
(659,179,o),
(656,146,o),
(650,115,cs),
(630,23,o),
(583,-23,o),
(510,-23,cs),
(483,-23,o),
(458,-16,o),
(437,-2,cs),
(330,70,o),
(323,364,o),
(464,495,c),
(425,514,o),
(384,524,o),
(339,524,cs),
(247,523,o),
(125,469,o),
(96,301,c),
(121,336,o),
(154,354,o),
(193,355,cs),
(213,355,o),
(232,349,o),
(250,338,cs),
(295,309,o),
(317,253,o),
(317,171,cs),
(317,91,o),
(292,-21,o),
(187,-21,cs)
);
},
{
closed = 1;
nodes = (
(525,25,o),
(540,30,o),
(553,39,cs),
(590,66,o),
(609,123,o),
(609,211,cs),
(609,325,o),
(575,410,o),
(508,467,c),
(503,463,o),
(498,459,o),
(493,454,cs),
(436,397,o),
(407,316,o),
(407,212,cs),
(407,151,o),
(415,25,o),
(510,25,cs)
);
},
{
closed = 1;
nodes = (
(866,25,o),
(879,29,o),
(892,37,c),
(931,63,o),
(950,122,o),
(950,213,cs),
(950,326,o),
(917,409,o),
(852,464,c),
(849,461,o),
(845,459,o),
(842,456,c),
(780,403,o),
(749,322,o),
(749,213,cs),
(749,150,o),
(759,25,o),
(851,25,cs)
);
},
{
closed = 1;
nodes = (
(201,27,o),
(214,31,o),
(226,39,cs),
(258,61,o),
(274,106,o),
(274,173,cs),
(274,224,o),
(262,310,o),
(189,310,cs),
(168,310,o),
(149,302,o),
(134,285,cs),
(105,254,o),
(93,209,o),
(98,150,c),
(98,148,o),
(98,146,o),
(99,144,c),
(112,66,o),
(142,27,o),
(188,27,cs)
);
}
);
width = 1301;
},
{
layerId = "0EF112A6-69F8-47E9-9D72-C545F6D6A613";
width = 600;
}
);
note = tml_Nna;
unicode = 2979;
},
{
glyphname = tml_Ta;
lastChange = "2017-08-07 23:54:18 +0000";
layers = (
{
layerId = "B24528F6-199A-4A7E-931E-F430756048DC";
shapes = (
{
closed = 1;
nodes = (
(189,-141,o),
(149,-152,o),
(146,-236,c),
(95,-236,l),
(95,-232,o),
(95,-228,o),
(95,-223,c),
(100,-135,o),
(145,-91,o),
(228,-91,cs),
(335,-91,ls),
(374,-90,o),
(410,-81,o),
(445,-64,cs),
(516,-27,o),
(552,31,o),
(552,112,cs),
(552,199,o),
(541,284,o),
(404,291,c),
(404,207,ls),
(404,185,o),
(402,164,o),
(399,144,c),
(380,49,o),
(322,1,o),
(225,1,cs),
(189,1,o),
(157,8,o),
(130,22,cs),
(73,51,o),
(44,102,o),
(42,175,cs),
(41,201,o),
(45,225,o),
(53,247,cs),
(72,297,o),
(107,327,o),
(160,338,c),
(160,560,l),
(525,560,l),
(525,511,l),
(404,511,l),
(404,341,l),
(408,341,o),
(412,341,o),
(416,340,c),
(542,331,o),
(605,256,o),
(605,113,cs),
(605,-27,o),
(502,-139,o),
(343,-140,cs),
(233,-141,ls)
);
},
{
closed = 1;
nodes = (
(355,341,l),
(355,511,l),
(207,511,l),
(207,341,l)
);
},
{
closed = 1;
nodes = (
(236,50,o),
(250,52,o),
(263,56,cs),
(324,73,o),
(354,124,o),
(354,207,cs),
(354,289,l),
(354,292,l),
(212,292,ls),
(194,292,o),
(177,290,o),
(162,285,cs),
(115,269,o),
(92,233,o),
(92,177,cs),
(92,153,o),
(97,132,o),
(107,113,cs),
(129,71,o),
(167,50,o),
(221,50,cs)
);
}
);
width = 647;
},
{
layerId = "0EF112A6-69F8-47E9-9D72-C545F6D6A613";
width = 600;
}
);
note = tml_Ta;
unicode = 2980;
},
{
glyphname = tml_Na;
lastChange = "2017-08-07 23:30:20 +0000";
layers = (
{
layerId = "B24528F6-199A-4A7E-931E-F430756048DC";
shapes = (
{
closed = 1;
nodes = (
(143,-224,l),
(144,-189,o),
(164,-155,o),
(225,-154,cs),
(331,-153,ls),
(523,-151,o),
(622,-29,o),
(622,122,cs),
(622,247,o),
(559,323,o),
(459,324,cs),
(367,325,o),
(331,239,o),
(329,196,c),
(383,169,l),
(383,205,o),
(400,232,o),
(437,232,cs),
(481,232,o),
(505,179,o),
(504,127,cs),
(501,-7,o),
(436,-60,o),
(306,-60,cs),
(200,-60,ls),
(72,-60,o),
(32,-120,o),
(31,-208,c)
);
},
{
closed = 1;
nodes = (
(153,-5,l),
(153,380,l),
(283,380,l),
(283,-5,l),
(393,-5,l),
(393,380,l),
(483,380,l),
(488,481,l),
(37,481,l),
(37,-5,l)
);
}
);
width = 652;
},
{
layerId = "0EF112A6-69F8-47E9-9D72-C545F6D6A613";
width = 600;
}
);
note = tml_Na;
unicode = 2984;
},
{
glyphname = tml_Nnna;
lastChange = "2017-08-07 23:54:18 +0000";
layers = (
{
layerId = "B24528F6-199A-4A7E-931E-F430756048DC";
shapes = (
{
closed = 1;
nodes = (
(287,524,o),
(247,513,o),
(212,492,cs),
(149,454,o),
(110,391,o),
(96,304,c),
(147,372,o),
(216,363,o),
(255,336,cs),
(300,305,o),
(323,250,o),
(323,172,cs),
(323,89,o),
(293,-20,o),
(186,-20,cs),
(159,-20,o),
(135,-11,o),
(114,7,cs),
(66,48,o),
(42,125,o),
(42,238,cs),
(42,413,o),
(135,572,o),
(331,572,cs),
(344,572,ls),
(404,572,o),
(459,557,o),
(509,528,c),
(551,550,o),
(599,561,o),
(652,561,cs),
(921,561,l),
(921,512,l),
(805,512,l),
(805,1,l),
(755,1,l),
(755,512,l),
(651,512,ls),
(615,512,o),
(583,506,o),
(554,494,c),
(625,430,o),
(661,337,o),
(662,214,cs),
(661,57,o),
(612,-22,o),
(514,-23,cs),
(490,-23,o),
(468,-18,o),
(448,-7,cs),
(391,26,o),
(362,100,o),
(362,214,cs),
(362,342,o),
(396,436,o),
(464,497,c),
(427,515,o),
(386,524,o),
(342,524,cs),
(331,524,ls)
);
},
{
closed = 1;
nodes = (
(527,26,o),
(540,29,o),
(552,36,cs),
(592,61,o),
(612,120,o),
(612,214,cs),
(612,328,o),
(578,413,o),
(509,468,c),
(446,419,o),
(414,334,o),
(413,214,cs),
(413,150,o),
(425,26,o),
(514,26,cs)
);
},
{
closed = 1;
nodes = (
(201,29,o),
(212,32,o),
(223,38,c),
(257,59,o),
(274,104,o),
(274,173,cs),
(274,222,o),
(265,309,o),
(189,309,cs),
(168,309,o),
(149,300,o),
(133,283,cs),
(105,252,o),
(93,208,o),
(98,151,c),
(112,71,o),
(142,30,o),
(188,29,cs)
);
}
);
width = 963;
},
{
layerId = "0EF112A6-69F8-47E9-9D72-C545F6D6A613";
width = 600;
}
);
note = tml_Nnna;
unicode = 2985;
},
{
glyphname = tml_Pa;
lastChange = "2017-08-26 22:05:14 +0000";
layers = (
{
layerId = "B24528F6-199A-4A7E-931E-F430756048DC";
shapes = (
{
closed = 1;
nodes = (
(50,-1,l),
(51,85,l),
(51,478,l),
(169,483,l),
(169,93,l),
(423,93,l),
(423,478,l),
(540,483,l),
(540,-1,l)
);
}
);
width = 590;
},
{
layerId = "0EF112A6-69F8-47E9-9D72-C545F6D6A613";
width = 600;
}
);
note = tml_Pa;
unicode = 2986;
},
{
glyphname = tml_Ma;
lastChange = "2017-08-26 22:06:46 +0000";
layers = (
{
layerId = "B24528F6-199A-4A7E-931E-F430756048DC";
shapes = (
{
closed = 1;
nodes = (
(410,3,l),
(415,104,l),
(166,104,l),
(166,486,l),
(46,480,l),
(46,3,l)
);
},
{
closed = 1;
nodes = (
(550,3,o),
(629,95,o),
(628,230,cs),
(627,371,o),
(555,496,o),
(405,494,cs),
(330,493,o),
(277,449,o),
(277,373,cs),
(277,65,l),
(392,65,l),
(392,332,ls),
(392,364,o),
(400,383,o),
(426,383,cs),
(479,383,o),
(520,325,o),
(520,237,cs),
(520,177,o),
(498,103,o),
(408,104,c),
(406,3,l)
);
}
);
width = 663;
},
{
layerId = "0EF112A6-69F8-47E9-9D72-C545F6D6A613";
width = 600;
}
);
note = tml_Ma;
unicode = 2990;
},
{
glyphname = tml_Ya;
lastChange = "2017-08-26 22:05:59 +0000";
layers = (
{
layerId = "B24528F6-199A-4A7E-931E-F430756048DC";
shapes = (
{
closed = 1;
nodes = (
(340,51,o),
(292,-17,o),
(185,-17,cs),
(121,-17,o),
(50,29,o),
(50,121,cs),
(50,473,l),
(168,483,l),
(168,164,ls),
(168,108,o),
(197,82,o),
(230,82,cs),
(269,82,o),
(313,110,o),
(313,163,c),
(365,136,l)
);
},
{
closed = 1;
nodes = (
(330,-1,l),
(303,85,l),
(303,473,l),
(421,483,l),
(421,93,l),
(582,93,l),
(582,473,l),
(699,483,l),
(699,-1,l)
);
}
);
width = 749;
},
{
layerId = "0EF112A6-69F8-47E9-9D72-C545F6D6A613";
width = 600;
}
);
metricLeft = tml_Pa;
metricRight = tml_Pa;
note = tml_Ya;
unicode = 2991;
},
{
glyphname = tml_Ra;
lastChange = "2017-08-08 00:03:57 +0000";
layers = (
{
layerId = "B24528F6-199A-4A7E-931E-F430756048DC";
shapes = (
{
closed = 1;
nodes = (
(426,0,l),
(200,-191,l),
(128,-117,l),
(309,59,l)
);
},
{
ref = tml_Ra.alt;
}
);
width = 597;
},
{
layerId = "0EF112A6-69F8-47E9-9D72-C545F6D6A613";
width = 600;
}
);
note = tml_Ra;
unicode = 2992;
},
{
glyphname = tml_Rra;
lastChange = "2017-08-07 23:54:18 +0000";
layers = (
{
layerId = "B24528F6-199A-4A7E-931E-F430756048DC";
shapes = (
{
closed = 1;
nodes = (
(302,412,o),
(300,431,o),
(296,448,cs),
(285,498,o),
(253,523,o),
(200,523,cs),
(189,523,o),
(177,522,o),
(166,519,cs),
(117,504,o),
(93,462,o),
(93,393,cs),
(93,0,l),
(42,0,l),
(42,405,ls),
(42,474,o),
(72,575,o),
(204,574,cs),
(208,574,o),
(212,574,o),
(216,573,c),
(274,568,o),
(313,540,o),
(333,488,c),
(334,492,o),
(336,496,o),
(339,501,c),
(363,549,o),
(405,573,o),
(465,573,cs),
(519,573,o),
(560,555,o),
(589,520,cs),
(626,473,o),
(645,377,o),
(645,234,cs),
(645,-2,o),
(602,-140,o),
(375,-141,cs),
(184,-142,ls),
(171,-142,o),
(159,-144,o),
(148,-147,c),
(115,-158,o),
(97,-188,o),
(96,-237,c),
(45,-237,l),
(45,-231,o),
(45,-225,o),
(46,-218,c),
(53,-133,o),
(97,-91,o),
(179,-91,cs),
(369,-91,ls),
(534,-91,o),
(594,-10,o),
(594,234,cs),
(594,340,o),
(586,414,o),
(569,456,cs),
(532,549,o),
(369,564,o),
(354,408,c),
(352,0,l),
(302,0,l),
(302,390,ls)
);
}
);
width = 687;
},
{
layerId = "0EF112A6-69F8-47E9-9D72-C545F6D6A613";
width = 600;
}
);
note = tml_Rra;
unicode = 2993;
},
{
glyphname = tml_La;
lastChange = "2017-08-07 23:54:18 +0000";
layers = (
{
layerId = "B24528F6-199A-4A7E-931E-F430756048DC";
shapes = (
{
closed = 1;
nodes = (
(159,-20,o),
(135,-11,o),
(114,7,cs),
(66,48,o),
(42,125,o),
(42,238,cs),
(42,402,o),
(99,571,o),
(263,571,cs),
(308,571,o),
(346,560,o),
(377,537,cs),
(432,496,o),
(458,431,o),
(456,341,cs),
(456,338,o),
(455,314,o),
(454,268,cs),
(453,222,o),
(452,198,o),
(452,196,c),
(449,128,o),
(464,28,o),
(559,28,cs),
(574,28,o),
(589,32,o),
(602,41,cs),
(649,72,o),
(673,141,o),
(673,250,cs),
(673,379,o),
(636,482,o),
(562,557,c),
(606,584,l),
(621,569,o),
(636,550,o),
(651,527,cs),
(700,448,o),
(724,357,o),
(724,253,cs),
(724,210,o),
(720,170,o),
(711,133,cs),
(688,29,o),
(637,-23,o),
(560,-23,cs),
(527,-23,o),
(499,-14,o),
(475,3,cs),
(425,39,o),
(402,102,o),
(405,193,cs),
(405,196,o),
(406,223,o),
(407,276,cs),
(408,323,o),
(408,348,o),
(408,350,cs),
(409,425,o),
(379,524,o),
(264,524,cs),
(244,524,o),
(225,520,o),
(207,513,cs),
(142,486,o),
(104,414,o),
(93,297,c),
(119,335,o),
(152,354,o),
(193,355,cs),
(215,355,o),
(235,349,o),
(254,336,cs),
(299,305,o),
(322,250,o),
(322,172,cs),
(322,88,o),
(290,-20,o),
(186,-20,cs)
);
},
{
closed = 1;
nodes = (
(201,29,o),
(212,32,o),
(223,38,c),
(257,59,o),
(274,104,o),
(274,173,cs),
(274,225,o),
(261,310,o),
(189,310,cs),
(168,310,o),
(150,302,o),
(135,285,cs),
(106,254,o),
(94,210,o),
(98,151,c),
(112,71,o),
(142,30,o),
(188,29,cs)
);
}
);
width = 766;
},
{
layerId = "0EF112A6-69F8-47E9-9D72-C545F6D6A613";
width = 600;
}
);
note = tml_La;
unicode = 2994;
},
{
glyphname = tml_Lla;
lastChange = "2017-08-07 23:54:18 +0000";
layers = (
{
layerId = "B24528F6-199A-4A7E-931E-F430756048DC";
shapes = (
{
closed = 1;
nodes = (
(159,-21,o),
(134,-12,o),
(113,7,cs),
(66,49,o),
(42,126,o),
(42,238,cs),
(42,320,o),
(55,389,o),
(82,445,cs),
(163,613,o),
(357,601,o),
(433,477,c),
(433,560,l),
(863,560,l),
(863,511,l),
(731,511,l),
(731,1,l),
(681,1,l),
(681,511,l),
(482,511,l),
(482,1,l),
(431,1,l),
(431,278,ls),
(431,383,o),
(404,524,o),
(271,524,cs),
(242,524,o),
(215,517,o),
(192,502,cs),
(137,466,o),
(104,398,o),
(94,297,c),
(119,335,o),
(152,354,o),
(193,355,cs),
(215,355,o),
(235,349,o),
(254,336,cs),
(299,305,o),
(322,250,o),
(322,171,cs),
(322,86,o),
(289,-21,o),
(186,-21,cs)
);
},
{
closed = 1;
nodes = (
(201,29,o),
(212,32,o),
(223,38,c),
(257,59,o),
(274,104,o),
(274,173,cs),
(274,221,o),
(266,310,o),
(189,310,cs),
(168,310,o),
(150,302,o),
(134,285,cs),
(105,255,o),
(93,210,o),
(98,150,c),
(112,71,o),
(142,30,o),
(188,29,cs)
);
}
);
width = 872;
},
{
layerId = "0EF112A6-69F8-47E9-9D72-C545F6D6A613";
width = 600;
}
);
note = tml_Lla;
unicode = 2995;
},
{
glyphname = tml_Llla;
lastChange = "2017-08-26 21:58:59 +0000";
layers = (
{
layerId = "B24528F6-199A-4A7E-931E-F430756048DC";
shapes = (
{
closed = 1;
nodes = (
(450,-303,o),
(492,-164,o),
(495,-152,c),
(570,-152,l),
(570,-55,l),
(482,-55,ls),
(430,-55,o),
(406,-43,o),
(397,-10,cs),
(395,-3,o),
(395,3,o),
(395,10,c),
(371,10,l),
(274,10,l),
(271,-70,o),
(296,-129,o),
(376,-148,c),
(357,-188,o),
(301,-193,o),
(264,-193,cs),
(167,-193,o),
(134,-127,o),
(134,-73,c),
(22,-73,l),
(22,-224,o),
(138,-303,o),
(253,-303,cs)
);
},
{
closed = 1;
nodes = (
(410,3,l),
(415,104,l),
(166,104,l),
(166,469,l),
(46,463,l),
(46,3,l)
);
},
{
closed = 1;
nodes = (
(550,3,o),
(629,95,o),
(628,230,cs),
(627,361,o),
(555,486,o),
(405,484,cs),
(330,483,o),
(277,439,o),
(277,363,cs),
(277,65,l),
(392,65,l),
(392,332,ls),
(392,364,o),
(400,383,o),
(426,383,cs),
(479,383,o),
(530,315,o),
(530,237,cs),
(530,177,o),
(508,103,o),
(408,104,c),
(406,3,l)
);
}
);
width = 642;
},
{
layerId = "0EF112A6-69F8-47E9-9D72-C545F6D6A613";
width = 600;
}
);
note = tml_Llla;
unicode = 2996;
},
{
glyphname = tml_Va;
lastChange = "2017-09-05 07:17:53 +0000";
layers = (
{
layerId = "B24528F6-199A-4A7E-931E-F430756048DC";
shapes = (
{
closed = 1;
nodes = (
(554,221,cs),
(554,167,o),
(542,114,o),
(521,58,c),
(471,83,l),
(638,83,l),
(638,463,l),
(755,473,l),
(755,0,l),
(425,0,l),
(396,49,l),
(420,86,o),
(438,138,o),
(438,200,cs),
(438,317,o),
(361,375,o),
(277,374,cs),
(196,373,o),
(133,318,o),
(127,229,cs),
(125,197,o),
(142,84,o),
(226,84,cs),
(254,84,o),
(283,98,o),
(283,134,cs),
(283,159,o),
(263,179,o),
(227,179,cs),
(195,179,o),
(148,152,o),
(138,117,c),
(111,180,l),
(120,220,o),
(169,278,o),
(248,278,cs),
(331,278,o),
(388,217,o),
(388,137,cs),
(388,53,o),
(333,-12,o),
(228,-12,cs),
(96,-12,o),
(23,91,o),
(23,212,cs),
(23,392,o),
(143,489,o),
(289,489,cs),
(441,489,o),
(554,385,o)
);
}
);
width = 805;
},
{
layerId = "0EF112A6-69F8-47E9-9D72-C545F6D6A613";
width = 600;
}
);
metricRight = "=tml_Pa";
note = tml_Va;
unicode = 2997;
},
{
glyphname = tml_Sha;
lastChange = "2017-08-07 23:54:18 +0000";
layers = (
{
layerId = "B24528F6-199A-4A7E-931E-F430756048DC";
shapes = (
{
closed = 1;
nodes = (
(99,156,ls),
(100,75,o),
(131,34,o),
(193,33,cs),
(255,34,o),
(287,75,o),
(288,156,cs),
(288,560,l),
(554,560,ls),
(603,559,o),
(642,550,o),
(669,533,cs),
(722,498,o),
(749,415,o),
(748,284,cs),
(747,156,o),
(720,-15,o),
(579,-15,cs),
(566,-15,o),
(554,-14,o),
(543,-12,cs),
(483,0,o),
(453,52,o),
(453,143,cs),
(453,511,l),
(339,511,l),
(339,156,ls),
(339,131,o),
(336,109,o),
(331,88,cs),
(312,18,o),
(266,-17,o),
(193,-17,cs),
(182,-17,o),
(171,-16,o),
(160,-14,cs),
(86,-1,o),
(49,55,o),
(49,156,cs),
(49,560,l),
(99,560,l)
);
},
{
closed = 1;
nodes = (
(597,35,o),
(612,40,o),
(627,51,cs),
(674,86,o),
(698,163,o),
(698,284,cs),
(698,453,o),
(666,511,o),
(563,511,cs),
(503,511,l),
(503,143,ls),
(503,124,o),
(504,108,o),
(507,94,cs),
(516,55,o),
(540,35,o),
(580,35,cs)
);
}
);
width = 790;
},
{
layerId = "0EF112A6-69F8-47E9-9D72-C545F6D6A613";
width = 600;
}
);
note = tml_Sha;
unicode = 2998;
},
{
glyphname = tml_Ssa;
lastChange = "2017-08-07 23:54:18 +0000";
layers = (
{
layerId = "B24528F6-199A-4A7E-931E-F430756048DC";
shapes = (
{
closed = 1;
nodes = (
(42,402,o),
(102,571,o),
(270,571,cs),
(313,571,o),
(352,558,o),
(385,532,cs),
(449,482,o),
(481,398,o),
(481,280,cs),
(481,209,o),
(466,132,o),
(437,50,c),
(727,50,l),
(727,156,l),
(686,159,o),
(650,172,o),
(617,194,cs),
(551,240,o),
(517,312,o),
(516,410,c),
(516,490,o),
(566,573,o),
(657,573,cs),
(679,573,o),
(699,569,o),
(716,561,cs),
(759,541,o),
(779,499,o),
(777,435,cs),
(777,208,l),
(842,223,o),
(875,280,o),
(877,379,cs),
(877,472,l),
(928,472,l),
(928,1,l),
(777,1,l),
(777,-146,l),
(727,-146,l),
(727,1,l),
(380,1,l),
(380,40,l),
(381,43,o),
(383,47,o),
(385,52,cs),
(416,125,o),
(431,200,o),
(431,279,cs),
(431,392,o),
(391,524,o),
(272,524,cs),
(244,524,o),
(218,517,o),
(195,503,cs),
(139,469,o),
(105,402,o),
(94,303,c),
(145,371,o),
(216,362,o),
(255,335,cs),
(300,304,o),
(323,249,o),
(323,171,cs),
(323,87,o),
(291,-21,o),
(186,-21,cs),
(159,-21,o),
(134,-12,o),
(113,7,cs),
(66,49,o),
(42,126,o),
(42,238,cs)
);
},
{
closed = 1;
nodes = (
(201,29,o),
(212,32,o),
(223,38,c),
(257,59,o),
(274,104,o),
(274,173,cs),
(274,221,o),
(266,310,o),
(189,310,cs),
(168,310,o),
(150,302,o),
(134,285,cs),
(105,255,o),
(93,210,o),
(98,150,c),
(112,71,o),
(142,30,o),
(188,29,cs)
);
},
{
closed = 1;
nodes = (
(566,328,o),
(604,218,o),
(727,206,c),
(727,437,ls),
(727,448,o),
(726,458,o),
(724,467,cs),
(716,505,o),
(696,524,o),
(664,524,cs),
(645,524,o),
(629,520,o),
(615,511,cs),
(582,491,o),
(566,454,o),
(566,400,cs)
);
},
{
closed = 1;
nodes = (
(854,184,o),
(821,164,o),
(777,157,c),
(777,50,l),
(877,50,l),
(877,215,l)
);
}
);
width = 979;
},
{
layerId = "0EF112A6-69F8-47E9-9D72-C545F6D6A613";
width = 600;
}
);
note = tml_Ssa;
unicode = 2999;
},
{
glyphname = tml_Sa;
lastChange = "2017-08-07 23:54:18 +0000";
layers = (
{
layerId = "B24528F6-199A-4A7E-931E-F430756048DC";
shapes = (
{
closed = 1;
nodes = (
(201,29,o),
(212,32,o),
(223,38,c),
(257,59,o),
(274,104,o),
(274,173,cs),
(274,221,o),
(266,310,o),
(189,310,cs),
(168,310,o),
(150,302,o),
(134,285,cs),
(105,255,o),
(93,210,o),
(98,150,c),
(112,71,o),
(142,30,o),
(188,29,cs)
);
},
{
closed = 1;
nodes = (
(761,-23,o),
(735,-16,o),
(714,-1,cs),
(680,24,o),
(663,76,o),
(663,154,cs),
(663,376,ls),
(663,387,o),
(663,396,o),
(662,404,c),
(655,564,o),
(537,537,o),
(504,482,cs),
(488,454,o),
(480,404,o),
(480,331,cs),
(480,323,l),
(480,0,l),
(430,0,l),
(430,323,l),
(429,456,o),
(378,523,o),
(276,524,cs),
(246,524,o),
(218,516,o),
(193,500,cs),
(138,464,o),
(105,397,o),
(94,298,c),
(119,335,o),
(152,354,o),
(193,355,cs),
(215,355,o),
(235,349,o),
(254,336,cs),
(299,305,o),
(322,250,o),
(322,171,cs),
(322,86,o),
(289,-21,o),
(186,-21,cs),
(159,-21,o),
(134,-12,o),
(113,7,cs),
(66,49,o),
(42,126,o),
(42,238,cs),
(42,406,o),
(107,571,o),
(274,571,cs),
(359,571,o),
(418,539,o),
(451,474,c),
(474,540,o),
(516,573,o),
(577,574,cs),
(584,574,o),
(592,574,o),
(599,573,cs),
(675,564,o),
(713,500,o),
(713,382,cs),
(713,145,ls),
(713,134,o),
(713,124,o),
(714,115,cs),
(719,56,o),
(745,26,o),
(793,26,cs),
(859,27,o),
(892,103,o),
(893,255,c),
(892,372,o),
(863,470,o),
(804,547,c),
(848,573,l),
(855,564,o),
(863,554,o),
(870,543,cs),
(919,468,o),
(944,372,o),
(944,255,cs),
(944,251,o),
(944,247,o),
(944,242,cs),
(941,65,o),
(891,-23,o),
(793,-23,cs)
);
}
);
width = 986;
},
{
layerId = "0EF112A6-69F8-47E9-9D72-C545F6D6A613";
width = 600;
}
);
note = tml_Sa;
unicode = 3000;
},
{
glyphname = tml_Ha;
lastChange = "2017-08-07 23:54:18 +0000";
layers = (
{
layerId = "B24528F6-199A-4A7E-931E-F430756048DC";
shapes = (
{
closed = 1;
nodes = (
(201,29,o),
(212,32,o),
(223,38,c),
(257,59,o),
(274,104,o),
(274,173,cs),
(274,221,o),
(266,310,o),
(189,310,cs),
(168,310,o),
(150,302,o),
(134,285,cs),
(105,255,o),
(93,210,o),
(98,150,c),
(112,71,o),
(142,30,o),
(188,29,cs)
);
},
{
closed = 1;
nodes = (
(72,-232,o),
(72,-227,o),
(73,-222,c),
(78,-135,o),
(122,-91,o),
(205,-91,cs),
(951,-91,ls),
(1033,-91,o),
(1091,-67,o),
(1126,-20,cs),
(1194,73,o),
(1184,377,o),
(1151,458,cs),
(1114,546,o),
(949,561,o),
(937,409,c),
(934,0,l),
(884,0,l),
(884,398,ls),
(884,414,o),
(883,429,o),
(880,443,cs),
(870,496,o),
(837,523,o),
(782,523,cs),
(771,523,o),
(761,522,o),
(751,519,c),
(700,506,o),
(675,465,o),
(675,394,cs),
(675,1,l),
(381,1,l),
(381,41,l),
(382,44,o),
(384,47,o),
(385,50,c),
(416,123,o),
(431,200,o),
(431,279,cs),
(431,392,o),
(391,524,o),
(272,524,cs),
(243,524,o),
(217,517,o),
(193,502,cs),
(137,466,o),
(104,398,o),
(94,297,c),
(119,335,o),
(152,354,o),
(193,355,cs),
(215,355,o),
(235,349,o),
(254,336,cs),
(299,305,o),
(322,250,o),
(322,171,cs),
(322,86,o),
(289,-21,o),
(186,-21,cs),
(159,-21,o),
(134,-12,o),
(113,7,cs),
(66,49,o),
(42,126,o),
(42,238,cs),
(42,402,o),
(102,571,o),
(270,571,cs),
(314,571,o),
(353,558,o),
(386,531,cs),
(514,430,o),
(495,219,o),
(438,51,c),
(625,51,l),
(625,407,ls),
(625,440,o),
(631,469,o),
(644,495,cs),
(671,548,o),
(719,575,o),
(786,574,cs),
(793,574,o),
(800,573,o),
(807,572,cs),
(860,565,o),
(897,537,o),
(916,488,c),
(917,490,o),
(918,492,o),
(919,494,c),
(943,547,o),
(986,573,o),
(1047,573,cs),
(1102,573,o),
(1144,555,o),
(1172,519,cs),
(1209,471,o),
(1227,376,o),
(1227,234,cs),
(1227,-1,o),
(1184,-141,o),
(957,-141,cs),
(210,-142,ls),
(194,-142,o),
(180,-144,o),
(167,-149,c),
(139,-161,o),
(124,-190,o),
(123,-237,c),
(72,-237,l)
);
}
);
width = 1269;
},
{
layerId = "0EF112A6-69F8-47E9-9D72-C545F6D6A613";
width = 600;
}
);
note = tml_Ha;
unicode = 3001;
},
{
glyphname = tml_Om;
lastChange = "2017-08-07 23:54:18 +0000";
layers = (
{
layerId = "B24528F6-199A-4A7E-931E-F430756048DC";
shapes = (
{
closed = 1;
nodes = (
(176,-2,o),
(185,-27,o),
(203,-51,cs),
(234,-94,o),
(278,-115,o),
(333,-115,cs),
(394,-115,o),
(487,-82,o),
(496,31,c),
(483,32,o),
(470,36,o),
(457,41,c),
(410,61,o),
(387,104,o),
(387,169,cs),
(387,299,l),
(436,299,l),
(436,290,o),
(437,282,o),
(438,273,c),
(447,224,o),
(472,200,o),
(513,200,cs),
(530,200,o),
(545,204,o),
(559,212,cs),
(598,234,o),
(617,278,o),
(617,345,c),
(616,470,o),
(502,561,o),
(366,561,cs),
(331,561,o),
(297,556,o),
(266,545,cs),
(193,521,o),
(141,474,o),
(112,404,c),
(133,416,o),
(156,422,o),
(182,422,cs),
(206,422,o),
(228,415,o),
(249,401,cs),
(286,376,o),
(304,337,o),
(304,285,cs),
(304,225,o),
(268,146,o),
(177,146,cs),
(154,146,o),
(133,151,o),
(114,160,cs),
(66,184,o),
(42,233,o),
(42,307,cs),
(42,459,o),
(143,610,o),
(366,610,cs),
(527,610,o),
(667,505,o),
(667,341,cs),
(667,252,o),
(621,152,o),
(513,152,cs),
(482,152,o),
(456,161,o),
(435,179,c),
(435,168,ls),
(436,108,o),
(461,77,o),
(510,76,cs),
(631,76,l),
(631,29,l),
(545,29,l),
(541,-62,o),
(469,-164,o),
(333,-164,cs),
(236,-164,o),
(126,-96,o),
(126,23,c),
(176,23,l)
);
},
{
closed = 1;
nodes = (
(301,53,l),
(301,-47,l),
(330,-47,l),
(330,27,l),
(331,46,o),
(340,57,o),
(358,58,c),
(366,58,o),
(374,56,o),
(381,53,c),
(400,42,o),
(410,24,o),
(410,-1,cs),
(410,-12,o),
(408,-23,o),
(404,-33,c),
(395,-58,o),
(379,-71,o),
(356,-71,cs),
(277,-71,l),
(277,53,l)
);
},
{
closed = 1;
nodes = (
(356,-47,o),
(358,-47,o),
(361,-46,c),
(378,-41,o),
(386,-26,o),
(386,-1,c),
(384,18,o),
(377,30,o),
(365,33,c),
(358,32,o),
(354,28,o),
(353,20,c),
(353,-47,l)
);
},
{
closed = 1;
nodes = (
(316,99,o),
(322,106,o),
(333,107,c),
(334,107,o),
(336,107,o),
(338,106,c),
(358,102,o),
(358,71,o),
(333,68,c),
(322,69,o),
(316,75,o),
(315,86,c)
);
},
{
closed = 1;
nodes = (
(188,194,o),
(201,197,o),
(214,204,c),
(243,221,o),
(257,248,o),
(257,286,cs),
(257,299,o),
(255,312,o),
(251,323,cs),
(238,358,o),
(214,375,o),
(177,375,cs),
(164,375,o),
(153,373,o),
(142,369,cs),
(108,357,o),
(91,331,o),
(90,290,c),
(91,277,o),
(93,264,o),
(96,252,c),
(109,213,o),
(134,194,o),
(173,194,cs)
);
}
);
width = 709;
},
{
layerId = "0EF112A6-69F8-47E9-9D72-C545F6D6A613";
width = 600;
}
);
note = tml_Om;
unicode = 3024;
},
{
glyphname = tml_Visarga;
lastChange = "2017-08-07 23:54:18 +0000";
layers = (
{
layerId = "B24528F6-199A-4A7E-931E-F430756048DC";
shapes = (
{
closed = 1;
nodes = (
(512,219,o),
(466,141,o),
(371,141,cs),
(308,141,o),
(229,187,o),
(229,282,cs),
(229,343,o),
(275,423,o),
(371,423,cs),
(434,423,o),
(512,377,o),
(512,282,cs)
);
},
{
closed = 1;
nodes = (
(277,267,o),
(282,250,o),
(291,235,cs),
(310,205,o),
(336,190,o),
(371,190,cs),
(388,190,o),
(405,195,o),
(420,204,c),
(449,223,o),
(463,249,o),
(463,284,cs),
(463,301,o),
(459,318,o),
(450,333,cs),
(432,362,o),
(406,377,o),
(371,377,cs),
(354,377,o),
(337,372,o),
(321,363,c),
(292,345,o),
(277,319,o),
(277,284,cs)
);
},
{
closed = 1;
nodes = (
(711,-132,o),
(665,-210,o),
(570,-210,cs),
(507,-210,o),
(428,-164,o),
(428,-69,cs),
(428,-8,o),
(474,72,o),
(570,72,cs),
(633,72,o),
(711,26,o),
(711,-69,cs)
);
},
{
closed = 1;
nodes = (
(476,-84,o),
(481,-101,o),
(491,-117,cs),
(510,-147,o),
(536,-162,o),
(570,-162,cs),
(587,-162,o),
(604,-157,o),
(619,-147,cs),
(648,-128,o),
(662,-101,o),
(662,-67,cs),
(662,-50,o),
(658,-33,o),
(649,-18,cs),
(631,11,o),
(605,26,o),
(570,26,cs),
(553,26,o),
(536,21,o),
(520,12,c),
(491,-6,o),
(476,-32,o),
(476,-67,cs)
);
},
{
closed = 1;
nodes = (
(332,-132,o),
(286,-210,o),
(191,-210,cs),
(128,-210,o),
(49,-164,o),
(49,-69,cs),
(49,-8,o),
(95,72,o),
(191,72,cs),
(254,72,o),
(332,26,o),
(332,-69,cs)
);
},
{
closed = 1;
nodes = (
(97,-85,o),
(102,-102,o),
(112,-117,cs),
(131,-147,o),
(157,-162,o),
(191,-162,cs),
(208,-162,o),
(225,-157,o),
(240,-147,cs),
(269,-128,o),
(283,-101,o),
(283,-67,cs),
(283,-50,o),
(279,-33,o),
(270,-18,cs),
(252,11,o),
(226,26,o),
(191,26,cs),
(174,26,o),
(157,21,o),
(141,12,c),
(112,-6,o),
(97,-32,o),
(97,-67,cs)
);
}
);
width = 760;
},
{
layerId = "0EF112A6-69F8-47E9-9D72-C545F6D6A613";
width = 600;
}
);
note = tml_Visarga;
unicode = 2947;
},
{
glyphname = tml_Ten;
lastChange = "2017-08-09 10:52:40 +0000";
layers = (
{
layerId = "B24528F6-199A-4A7E-931E-F430756048DC";
shapes = (
{
closed = 1;
nodes = (
(398,275,l),
(403,139,o),
(413,37,o),
(518,40,cs),
(531,40,o),
(544,42,o),
(555,46,c),
(624,68,o),
(658,148,o),
(658,286,cs),
(658,347,o),
(645,401,o),
(619,448,cs),
(558,557,o),
(460,551,o),
(369,463,c),
(337,499,l),
(338,500,o),
(340,502,o),
(342,504,cs),
(388,551,o),
(439,575,o),
(496,575,cs),
(546,575,o),
(588,559,o),
(623,527,cs),
(680,472,o),
(709,384,o),
(709,261,cs),
(709,198,o),
(699,145,o),
(679,100,cs),
(612,-47,o),
(430,-39,o),
(379,80,c),
(378,77,o),
(376,74,o),
(375,70,c),
(351,12,o),
(301,-17,o),
(224,-17,cs),
(192,-17,o),
(164,-10,o),
(139,5,cs),
(74,43,o),
(42,119,o),
(42,234,cs),
(42,266,o),
(45,298,o),
(52,330,cs),
(63,388,o),
(91,461,o),
(135,550,c),
(182,525,l),
(181,522,o),
(178,517,o),
(174,510,cs),
(120,410,o),
(93,320,o),
(93,241,cs),
(93,156,o),
(114,33,o),
(225,33,cs),
(266,33,o),
(297,46,o),
(316,72,cs),
(341,106,o),
(352,179,o),
(349,292,c),
(398,292,l)
);
}
);
width = 751;
},
{
layerId = "0EF112A6-69F8-47E9-9D72-C545F6D6A613";
width = 600;
}
);
note = tml_Ten;
unicode = 3056;
},
{
glyphname = tml_Hundred;
lastChange = "2017-08-09 10:52:40 +0000";
layers = (
{
layerId = "B24528F6-199A-4A7E-931E-F430756048DC";
shapes = (
{
closed = 1;
nodes = (
(230,578,o),
(268,559,o),
(293,521,c),
(303,561,l),
(711,561,l),
(711,511,l),
(602,511,l),
(602,1,l),
(552,1,l),
(552,512,l),
(337,512,l),
(337,1,l),
(286,1,l),
(286,390,ls),
(286,409,o),
(285,425,o),
(282,440,c),
(263,557,o),
(93,565,o),
(92,413,cs),
(92,1,l),
(42,1,l),
(42,424,ls),
(42,449,o),
(46,471,o),
(53,492,cs),
(73,549,o),
(115,578,o),
(179,578,cs)
);
}
);
width = 711;
},
{
layerId = "0EF112A6-69F8-47E9-9D72-C545F6D6A613";
width = 600;
}
);
note = tml_Hundred;
unicode = 3057;
},
{
glyphname = tml_Thousand;
lastChange = "2017-08-09 10:52:40 +0000";
layers = (
{
layerId = "B24528F6-199A-4A7E-931E-F430756048DC";
shapes = (
{
closed = 1;
nodes = (
(357,341,l),
(357,511,l),
(209,511,l),
(209,341,l)
);
},
{
closed = 1;
nodes = (
(239,48,o),
(253,50,o),
(267,54,cs),
(326,72,o),
(355,123,o),
(355,207,cs),
(355,289,l),
(355,292,l),
(216,292,ls),
(196,292,o),
(178,289,o),
(161,283,cs),
(116,266,o),
(93,231,o),
(93,176,cs),
(93,151,o),
(99,129,o),
(110,109,cs),
(133,68,o),
(171,48,o),
(224,48,cs)
);
},
{
closed = 1;
nodes = (
(734,-101,o),
(803,-63,o),
(803,25,cs),
(803,28,o),
(803,32,o),
(803,36,c),
(800,115,o),
(763,158,o),
(690,165,c),
(690,96,ls),
(690,91,o),
(690,85,o),
(690,80,c),
(685,-8,o),
(642,-52,o),
(559,-51,cs),
(479,-51,o),
(417,3,o),
(417,80,cs),
(417,101,o),
(422,121,o),
(432,141,cs),
(456,190,o),
(496,214,o),
(551,214,cs),
(641,214,l),
(641,292,l),
(406,292,l),
(406,207,ls),
(406,180,o),
(403,154,o),
(397,131,cs),
(376,43,o),
(319,-1,o),
(227,-1,cs),
(152,-1,o),
(47,32,o),
(44,175,cs),
(43,199,o),
(47,222,o),
(54,243,cs),
(71,294,o),
(107,326,o),
(161,337,c),
(161,560,l),
(526,560,l),
(526,511,l),
(406,511,l),
(406,341,l),
(795,341,l),
(795,292,l),
(690,292,l),
(690,213,l),
(699,212,o),
(709,211,o),
(718,210,c),
(807,194,o),
(852,132,o),
(852,24,cs),
(852,-49,o),
(807,-150,o),
(676,-150,cs),
(607,-150,ls),
(555,-151,o),
(544,-181,o),
(544,-237,c),
(492,-237,l),
(492,-224,o),
(492,-214,o),
(493,-205,cs),
(499,-138,o),
(539,-103,o),
(613,-102,cs),
(671,-102,ls)
);
},
{
closed = 1;
nodes = (
(570,-3,o),
(579,-2,o),
(588,0,cs),
(623,9,o),
(641,43,o),
(641,102,cs),
(641,166,l),
(554,166,ls),
(541,166,o),
(529,164,o),
(518,160,cs),
(483,148,o),
(466,121,o),
(466,80,cs),
(466,66,o),
(469,53,o),
(476,41,cs),
(493,12,o),
(520,-3,o),
(559,-3,cs)
);
}
);
width = 894;
},
{
layerId = "0EF112A6-69F8-47E9-9D72-C545F6D6A613";
width = 600;
}
);
note = tml_Thousand;
unicode = 3058;
},
{
glyphname = tml_One;
lastChange = "2017-08-09 10:52:40 +0000";
layers = (
{
layerId = "B24528F6-199A-4A7E-931E-F430756048DC";
shapes = (
{
closed = 1;
nodes = (
(453,49,ls),
(457,49,o),
(462,49,o),
(467,49,c),
(538,54,o),
(574,93,o),
(574,167,cs),
(574,171,o),
(574,175,o),
(574,179,c),
(569,254,o),
(522,292,o),
(432,292,cs),
(405,292,l),
(405,207,ls),
(405,180,o),
(402,155,o),
(397,132,cs),
(376,44,o),
(319,0,o),
(226,0,cs),
(189,0,o),
(157,7,o),
(129,22,cs),
(73,51,o),
(44,102,o),
(42,175,cs),
(41,198,o),
(44,220,o),
(51,241,cs),
(68,294,o),
(105,326,o),
(160,337,c),
(160,560,l),
(525,560,l),
(525,511,l),
(405,511,l),
(405,341,l),
(445,341,ls),
(455,341,o),
(465,341,o),
(476,340,cs),
(672,319,o),
(677,3,o),
(458,0,cs),
(437,0,l),
(437,49,l)
);
},
{
closed = 1;
nodes = (
(355,341,l),
(355,511,l),
(207,511,l),
(207,341,l)
);
},
{
closed = 1;
nodes = (
(237,49,o),
(251,51,o),
(265,55,cs),
(324,72,o),
(354,123,o),
(354,207,cs),
(354,289,l),
(354,292,l),
(215,292,ls),
(195,292,o),
(177,289,o),
(160,283,cs),
(115,266,o),
(92,231,o),
(92,176,cs),
(92,151,o),
(97,129,o),
(108,110,cs),
(131,69,o),
(169,49,o),
(222,49,cs)
);
}
);
width = 664;
},
{
layerId = "0EF112A6-69F8-47E9-9D72-C545F6D6A613";
width = 600;
}
);
note = tml_One;
unicode = 3047;
},
{
glyphname = tml_Two;
lastChange = "2017-08-09 10:52:40 +0000";
layers = (
{
layerId = "B24528F6-199A-4A7E-931E-F430756048DC";
shapes = (
{
closed = 1;
nodes = (
(196,287,o),
(211,291,o),
(224,298,c),
(252,315,o),
(266,343,o),
(266,384,cs),
(266,401,o),
(263,416,o),
(257,429,cs),
(242,460,o),
(215,475,o),
(176,475,cs),
(165,475,o),
(154,473,o),
(143,469,cs),
(108,456,o),
(90,425,o),
(90,376,cs),
(90,362,o),
(93,348,o),
(100,335,cs),
(117,303,o),
(144,287,o),
(181,287,cs)
);
},
{
closed = 1;
nodes = (
(153,1,o),
(140,2,o),
(129,4,cs),
(75,15,o),
(48,45,o),
(48,94,cs),
(48,113,o),
(52,129,o),
(61,144,cs),
(80,175,o),
(112,191,o),
(157,191,cs),
(229,191,ls),
(357,192,o),
(422,249,o),
(423,362,cs),
(423,458,o),
(364,542,o),
(244,542,cs),
(209,542,o),
(178,533,o),
(153,516,c),
(164,517,o),
(173,518,o),
(180,518,cs),
(201,518,o),
(222,514,o),
(241,505,cs),
(290,483,o),
(314,442,o),
(314,383,cs),
(314,322,o),
(279,239,o),
(180,239,cs),
(151,239,o),
(126,247,o),
(103,263,cs),
(62,292,o),
(42,337,o),
(42,397,cs),
(42,481,o),
(95,588,o),
(247,589,cs),
(358,589,o),
(474,523,o),
(474,363,cs),
(474,329,o),
(469,298,o),
(458,270,cs),
(427,187,o),
(356,144,o),
(246,142,cs),
(159,141,ls),
(154,141,o),
(149,141,o),
(144,140,c),
(87,131,o),
(80,50,o),
(168,49,cs),
(525,49,l),
(525,0,l),
(166,0,l)
);
}
);
width = 567;
},
{
layerId = "0EF112A6-69F8-47E9-9D72-C545F6D6A613";
width = 600;
}
);
note = tml_Two;
unicode = 3048;
},
{
glyphname = tml_Three;
lastChange = "2017-08-09 10:52:40 +0000";
layers = (
{
layerId = "B24528F6-199A-4A7E-931E-F430756048DC";
shapes = (
{
closed = 1;
nodes = (
(414,560,l),
(414,511,l),
(304,511,l),
(304,366,l),
(349,421,o),
(424,413,o),
(463,392,cs),
(508,366,o),
(530,319,o),
(530,250,cs),
(530,156,o),
(497,89,o),
(430,49,c),
(667,49,l),
(667,0,l),
(253,0,l),
(253,49,l),
(271,49,ls),
(380,49,o),
(480,107,o),
(480,246,cs),
(480,259,o),
(479,271,o),
(477,282,cs),
(467,335,o),
(438,362,o),
(389,362,cs),
(372,362,o),
(357,358,o),
(344,350,cs),
(317,333,o),
(304,306,o),
(304,271,cs),
(304,164,l),
(253,164,l),
(253,511,l),
(102,511,l),
(102,0,l),
(51,0,l),
(51,560,l)
);
}
);
width = 698;
},
{
layerId = "0EF112A6-69F8-47E9-9D72-C545F6D6A613";
width = 600;
}
);
note = tml_Three;
unicode = 3049;
},
{
glyphname = tml_Four;
lastChange = "2017-08-09 10:52:40 +0000";
layers = (
{
layerId = "B24528F6-199A-4A7E-931E-F430756048DC";
shapes = (
{
closed = 1;
nodes = (
(357,341,l),
(357,511,l),
(209,511,l),
(209,341,l)
);
},
{
closed = 1;
nodes = (
(239,48,o),
(253,50,o),
(267,54,cs),
(326,72,o),
(355,123,o),
(355,207,cs),
(355,289,l),
(355,292,l),
(216,292,ls),
(196,292,o),
(178,289,o),
(161,283,cs),
(116,266,o),
(93,231,o),
(93,176,cs),
(93,151,o),
(99,128,o),
(111,107,cs),
(134,68,o),
(172,48,o),
(224,48,cs)
);
},
{
closed = 1;
nodes = (
(636,560,l),
(636,292,l),
(406,292,l),
(406,207,ls),
(406,180,o),
(403,154,o),
(397,131,cs),
(376,43,o),
(319,-1,o),
(227,-1,cs),
(152,-1,o),
(47,32,o),
(44,175,cs),
(43,199,o),
(47,222,o),
(54,243,cs),
(71,294,o),
(107,326,o),
(161,337,c),
(161,560,l),
(526,560,l),
(526,511,l),
(406,511,l),
(406,341,l),
(588,341,l),
(588,560,l)
);
}
);
width = 678;
},
{
layerId = "0EF112A6-69F8-47E9-9D72-C545F6D6A613";
width = 600;
}
);
note = tml_Four;
unicode = 3050;
},
{
glyphname = tml_Five;
lastChange = "2017-08-09 10:52:40 +0000";
layers = (
{
layerId = "B24528F6-199A-4A7E-931E-F430756048DC";
shapes = (
{
closed = 1;
nodes = (
(755,560,l),
(755,511,l),
(638,511,l),
(638,304,l),
(681,352,o),
(755,352,o),
(803,309,cs),
(849,269,o),
(872,203,o),
(872,110,cs),
(872,35,o),
(858,-31,o),
(830,-89,cs),
(771,-207,o),
(663,-266,o),
(505,-265,cs),
(490,-265,o),
(475,-264,o),
(460,-263,c),
(237,-239,o),
(42,-50,o),
(42,253,cs),
(42,572,o),
(226,800,o),
(541,801,cs),
(862,801,o),
(1065,614,o),
(1065,310,cs),
(1065,-1,l),
(1013,-1,l),
(1013,284,ls),
(1013,579,o),
(835,750,o),
(547,750,cs),
(312,750,o),
(94,613,o),
(94,253,cs),
(94,239,o),
(95,225,o),
(96,211,cs),
(113,-38,o),
(291,-216,o),
(515,-215,cs),
(706,-214,o),
(822,-84,o),
(822,111,cs),
(822,208,o),
(789,295,o),
(714,295,cs),
(698,295,o),
(684,290,o),
(671,281,c),
(649,264,o),
(638,238,o),
(638,204,cs),
(638,0,l),
(587,0,l),
(587,511,l),
(393,511,l),
(393,0,l),
(342,0,l),
(342,560,l)
);
}
);
width = 1117;
},
{
layerId = "0EF112A6-69F8-47E9-9D72-C545F6D6A613";
width = 600;
}
);
note = tml_Five;
unicode = 3051;
},
{
glyphname = tml_Six;
lastChange = "2017-08-09 10:52:40 +0000";
layers = (
{
layerId = "B24528F6-199A-4A7E-931E-F430756048DC";
shapes = (
{
closed = 1;
nodes = (
(355,341,l),
(355,511,l),
(207,511,l),
(207,341,l)
);
},
{
closed = 1;
nodes = (
(189,-1,o),
(156,7,o),
(128,22,cs),
(73,51,o),
(44,102,o),
(42,175,cs),
(41,199,o),
(45,222,o),
(52,243,cs),
(69,294,o),
(105,326,o),
(160,337,c),
(160,560,l),
(525,560,l),
(525,511,l),
(404,511,l),
(404,341,l),
(447,341,ls),
(492,340,o),
(527,322,o),
(552,286,c),
(581,322,o),
(623,340,o),
(679,341,cs),
(844,341,l),
(844,292,l),
(762,292,l),
(762,0,l),
(712,0,l),
(712,292,l),
(641,292,o),
(574,288,o),
(574,185,cs),
(574,0,l),
(525,0,l),
(525,209,ls),
(525,215,o),
(524,221,o),
(523,228,c),
(514,271,o),
(486,292,o),
(438,292,cs),
(404,292,l),
(404,207,ls),
(404,181,o),
(402,157,o),
(397,135,cs),
(376,44,o),
(319,-1,o),
(226,-1,cs)
);
},
{
closed = 1;
nodes = (
(238,48,o),
(253,50,o),
(266,54,cs),
(325,73,o),
(354,124,o),
(354,207,cs),
(354,289,l),
(354,292,l),
(214,292,ls),
(194,292,o),
(176,289,o),
(160,283,cs),
(115,266,o),
(92,231,o),
(92,176,cs),
(92,151,o),
(98,129,o),
(109,108,c),
(132,68,o),
(170,48,o),
(222,48,cs)
);
}
);
width = 886;
},
{
layerId = "0EF112A6-69F8-47E9-9D72-C545F6D6A613";
width = 600;
}
);
note = tml_Six;
unicode = 3052;
},
{
glyphname = tml_Seven;
lastChange = "2017-08-09 10:52:40 +0000";
layers = (
{
layerId = "B24528F6-199A-4A7E-931E-F430756048DC";
shapes = (
{
closed = 1;
nodes = (
(159,-24,o),
(136,-15,o),
(115,2,cs),
(66,43,o),
(42,121,o),
(42,235,cs),
(42,391,o),
(97,560,o),
(270,560,cs),
(488,560,l),
(488,0,l),
(437,0,l),
(437,512,l),
(272,512,ls),
(245,512,o),
(221,506,o),
(198,494,cs),
(139,461,o),
(104,395,o),
(94,294,c),
(119,332,o),
(152,351,o),
(193,352,cs),
(215,352,o),
(236,345,o),
(255,332,cs),
(300,301,o),
(322,246,o),
(322,168,cs),
(322,83,o),
(289,-24,o),
(186,-24,cs)
);
},
{
closed = 1;
nodes = (
(201,25,o),
(213,28,o),
(224,35,cs),
(257,56,o),
(274,100,o),
(274,169,cs),
(274,217,o),
(266,306,o),
(189,306,cs),
(168,306,o),
(149,298,o),
(133,281,cs),
(105,251,o),
(93,206,o),
(98,147,c),
(112,67,o),
(142,26,o),
(188,25,cs)
);
}
);
width = 539;
},
{
layerId = "0EF112A6-69F8-47E9-9D72-C545F6D6A613";
width = 600;
}
);
note = tml_Seven;
unicode = 3053;
},
{
glyphname = tml_Eight;
lastChange = "2017-08-09 10:52:40 +0000";
layers = (
{
layerId = "B24528F6-199A-4A7E-931E-F430756048DC";
shapes = (
{
closed = 1;
nodes = (
(670,172,l),
(645,44,o),
(547,-104,o),
(304,-104,cs),
(172,-104,o),
(44,-51,o),
(44,77,cs),
(44,95,o),
(47,112,o),
(53,129,cs),
(76,190,o),
(134,221,o),
(227,221,cs),
(623,221,l),
(624,236,o),
(625,248,o),
(625,257,cs),
(625,357,o),
(590,525,o),
(418,525,cs),
(388,525,o),
(360,519,o),
(335,508,c),
(339,508,ls),
(362,508,o),
(383,502,o),
(404,491,cs),
(445,468,o),
(465,431,o),
(465,380,cs),
(465,355,o),
(459,331,o),
(448,310,cs),
(425,269,o),
(388,249,o),
(337,249,cs),
(314,249,o),
(292,254,o),
(272,264,cs),
(228,287,o),
(206,327,o),
(206,385,cs),
(206,468,o),
(264,573,o),
(419,573,cs),
(564,573,o),
(678,460,o),
(678,257,cs),
(678,242,o),
(678,230,o),
(677,221,c),
(770,221,l),
(770,559,l),
(820,559,l),
(820,-85,l),
(770,-85,l),
(770,172,l)
);
},
{
closed = 1;
nodes = (
(351,296,o),
(363,299,o),
(374,304,c),
(403,319,o),
(417,345,o),
(417,383,cs),
(417,398,o),
(413,412,o),
(406,425,c),
(391,450,o),
(367,463,o),
(335,463,cs),
(320,463,o),
(306,460,o),
(293,453,c),
(268,438,o),
(255,415,o),
(255,384,cs),
(255,369,o),
(258,355,o),
(263,342,cs),
(276,311,o),
(301,296,o),
(338,296,cs)
);
},
{
closed = 1;
nodes = (
(423,-54,o),
(571,-1,o),
(615,172,c),
(234,172,ls),
(142,171,o),
(95,140,o),
(94,79,cs),
(94,55,o),
(101,33,o),
(115,13,c),
(149,-32,o),
(211,-54,o),
(300,-54,cs)
);
}
);
width = 870;
},
{
layerId = "0EF112A6-69F8-47E9-9D72-C545F6D6A613";
width = 600;
}
);
note = tml_Eight;
unicode = 3054;
},
{
glyphname = tml_Nine;
lastChange = "2017-08-09 10:52:40 +0000";
layers = (
{
layerId = "B24528F6-199A-4A7E-931E-F430756048DC";
shapes = (
{
closed = 1;
nodes = (
(357,341,l),
(357,511,l),
(209,511,l),
(209,341,l)
);
},
{
closed = 1;
nodes = (
(239,48,o),
(253,50,o),
(267,54,cs),
(326,72,o),
(355,123,o),
(355,207,cs),
(355,289,l),
(355,292,l),
(216,292,ls),
(196,292,o),
(178,289,o),
(161,283,cs),
(116,266,o),
(93,231,o),
(93,176,cs),
(93,151,o),
(99,129,o),
(110,109,cs),
(133,68,o),
(171,48,o),
(224,48,cs)
);
},
{
closed = 1;
nodes = (
(525,342,o),
(550,341,o),
(570,336,c),
(602,352,o),
(640,360,o),
(683,360,cs),
(780,360,o),
(890,302,o),
(890,165,cs),
(890,146,o),
(888,126,o),
(883,107,cs),
(871,55,o),
(847,15,o),
(812,-14,c),
(776,20,l),
(778,22,o),
(780,24,o),
(782,27,c),
(822,70,o),
(842,117,o),
(842,166,cs),
(842,231,o),
(794,313,o),
(683,313,cs),
(666,313,o),
(650,312,o),
(636,309,c),
(684,275,o),
(708,220,o),
(709,144,cs),
(709,115,o),
(704,90,o),
(694,69,cs),
(673,22,o),
(635,-1,o),
(580,-1,cs),
(557,-1,o),
(537,4,o),
(518,15,cs),
(477,40,o),
(456,82,o),
(456,142,cs),
(456,203,o),
(473,253,o),
(508,292,c),
(406,292,l),
(406,207,ls),
(406,180,o),
(403,154,o),
(397,131,cs),
(376,43,o),
(319,-1,o),
(227,-1,cs),
(152,-1,o),
(47,32,o),
(44,175,cs),
(43,199,o),
(47,222,o),
(54,243,cs),
(71,294,o),
(107,326,o),
(161,337,c),
(161,560,l),
(526,560,l),
(526,511,l),
(406,511,l),
(406,341,l),
(495,341,ls)
);
},
{
closed = 1;
nodes = (
(598,46,o),
(613,51,o),
(627,61,c),
(650,80,o),
(662,107,o),
(662,143,cs),
(662,156,o),
(661,168,o),
(659,180,cs),
(649,234,o),
(621,269,o),
(574,285,c),
(528,255,o),
(505,209,o),
(504,146,cs),
(504,129,o),
(507,114,o),
(512,100,cs),
(525,64,o),
(548,46,o),
(581,46,cs)
);
}
);
width = 932;
},
{
layerId = "0EF112A6-69F8-47E9-9D72-C545F6D6A613";
width = 600;
}
);
note = tml_Nine;
unicode = 3055;
},
{
glyphname = comma;
lastChange = "2017-09-04 10:06:52 +0000";
layers = (
{
layerId = "B24528F6-199A-4A7E-931E-F430756048DC";
shapes = (
{
closed = 1;
nodes = (
(153,-79,o),
(178,24,o),
(167,91,c),
(40,90,l),
(48,39,o),
(49,-47,o),
(40,-95,c),
(134,-110,l)
);
}
);
width = 180;
},
{
layerId = "0EF112A6-69F8-47E9-9D72-C545F6D6A613";
width = 600;
}
);
unicode = 44;
},
{
glyphname = hyphen;
lastChange = "2017-08-06 08:35:16 +0000";
layers = (
{
layerId = "0EF112A6-69F8-47E9-9D72-C545F6D6A613";
shapes = (
{
closed = 1;
nodes = (
(10,203,l),
(404,203,l),
(404,321,l),
(10,321,l)
);
}
);
width = 414;
},
{
layerId = "B24528F6-199A-4A7E-931E-F430756048DC";
shapes = (
{
closed = 1;
nodes = (
(10,203,l),
(404,203,l),
(404,321,l),
(10,321,l)
);
}
);
width = 414;
}
);
unicode = 45;
},
{
glyphname = tml_Day;
lastChange = "2017-08-09 10:52:40 +0000";
layers = (
{
layerId = "B24528F6-199A-4A7E-931E-F430756048DC";
shapes = (
{
closed = 1;
nodes = (
(159,-21,o),
(134,-12,o),
(113,7,cs),
(66,49,o),
(42,126,o),
(42,238,cs),
(42,402,o),
(102,571,o),
(270,571,cs),
(314,571,o),
(353,558,o),
(386,531,cs),
(514,430,o),
(496,214,o),
(437,50,c),
(601,50,l),
(601,1,l),
(381,1,l),
(381,41,l),
(382,44,o),
(384,47,o),
(385,50,c),
(416,123,o),
(431,200,o),
(431,279,cs),
(431,391,o),
(392,523,o),
(272,523,cs),
(243,523,o),
(216,516,o),
(192,501,cs),
(137,465,o),
(104,397,o),
(94,297,c),
(119,335,o),
(152,354,o),
(193,355,cs),
(215,355,o),
(235,349,o),
(254,336,cs),
(299,305,o),
(322,250,o),
(322,171,cs),
(322,86,o),
(289,-21,o),
(186,-21,cs)
);
},
{
closed = 1;
nodes = (
(201,29,o),
(212,32,o),
(223,38,c),
(257,59,o),
(274,104,o),
(274,173,cs),
(274,221,o),
(266,310,o),
(189,310,cs),
(168,310,o),
(150,302,o),
(134,285,cs),
(105,255,o),
(93,210,o),
(98,150,c),
(112,71,o),
(142,30,o),
(188,29,cs)
);
}
);
width = 612;
},
{
layerId = "0EF112A6-69F8-47E9-9D72-C545F6D6A613";
width = 600;
}
);
note = tml_Day;
unicode = 3059;
},
{
glyphname = tml_Month;
lastChange = "2017-08-09 10:52:40 +0000";
layers = (
{
layerId = "B24528F6-199A-4A7E-931E-F430756048DC";
shapes = (
{
closed = 1;
nodes = (
(108,559,l),
(108,49,l),
(285,49,l),
(285,435,ls),
(285,449,o),
(286,463,o),
(288,476,cs),
(299,537,o),
(332,570,o),
(386,575,c),
(357,692,o),
(425,800,o),
(574,800,cs),
(606,800,o),
(634,796,o),
(658,788,c),
(681,796,o),
(707,800,o),
(737,800,cs),
(840,800,o),
(953,725,o),
(904,605,c),
(1035,605,l),
(1035,557,l),
(852,557,l),
(852,593,l),
(905,673,o),
(840,753,o),
(739,753,cs),
(730,753,o),
(724,753,o),
(719,752,c),
(749,723,o),
(764,686,o),
(765,640,cs),
(765,619,o),
(761,601,o),
(752,584,cs),
(733,549,o),
(701,532,o),
(656,532,cs),
(641,532,o),
(626,534,o),
(613,539,cs),
(570,554,o),
(548,588,o),
(548,640,cs),
(548,684,o),
(564,721,o),
(596,752,c),
(591,753,o),
(584,753,o),
(574,753,cs),
(528,753,o),
(491,741,o),
(463,716,cs),
(426,681,o),
(416,633,o),
(435,573,c),
(478,566,o),
(515,546,o),
(544,515,cs),
(639,414,o),
(622,240,o),
(599,159,cs),
(567,53,o),
(498,0,o),
(391,0,cs),
(57,0,l),
(57,559,l)
);
},
{
closed = 1;
nodes = (
(397,49,o),
(416,51,o),
(434,56,cs),
(523,79,o),
(567,160,o),
(567,299,cs),
(567,414,o),
(515,528,o),
(408,528,cs),
(403,528,o),
(399,528,o),
(394,527,cs),
(355,520,o),
(335,488,o),
(335,432,cs),
(335,49,l),
(377,49,ls)
);
},
{
closed = 1;
nodes = (
(665,578,o),
(673,580,o),
(681,583,cs),
(706,593,o),
(718,612,o),
(718,640,c),
(715,678,o),
(694,710,o),
(655,736,c),
(654,735,o),
(653,735,o),
(651,734,c),
(614,713,o),
(595,682,o),
(595,640,cs),
(595,632,o),
(596,624,o),
(599,617,c),
(608,591,o),
(627,578,o),
(656,578,cs)
);
}
);
width = 1031;
},
{
layerId = "0EF112A6-69F8-47E9-9D72-C545F6D6A613";
width = 600;
}
);
note = tml_Month;
unicode = 3060;
},
{
glyphname = tml_Year;
lastChange = "2017-08-09 10:52:40 +0000";
layers = (
{
layerId = "B24528F6-199A-4A7E-931E-F430756048DC";
shapes = (
{
closed = 1;
nodes = (
(261,402,o),
(321,571,o),
(489,571,cs),
(533,571,o),
(572,558,o),
(605,531,cs),
(733,430,o),
(714,219,o),
(657,51,c),
(843,51,l),
(843,560,l),
(1278,560,l),
(1278,511,l),
(1148,511,l),
(1147,305,l),
(1188,352,o),
(1263,352,o),
(1312,309,cs),
(1358,268,o),
(1381,202,o),
(1381,110,cs),
(1381,0,o),
(1347,-93,o),
(1278,-170,cs),
(1174,-285,o),
(1008,-343,o),
(780,-343,cs),
(759,-343,o),
(737,-342,o),
(715,-341,cs),
(315,-320,o),
(42,-100,o),
(42,245,cs),
(42,259,o),
(42,273,o),
(43,287,cs),
(66,634,o),
(358,850,o),
(801,850,cs),
(842,850,o),
(884,848,o),
(926,843,cs),
(1263,806,o),
(1515,629,o),
(1515,396,cs),
(1516,334,o),
(1541,302,o),
(1592,301,cs),
(1601,301,o),
(1609,302,o),
(1617,305,c),
(1650,316,o),
(1666,344,o),
(1666,389,cs),
(1666,560,l),
(1717,560,l),
(1717,383,ls),
(1717,360,o),
(1713,339,o),
(1705,320,cs),
(1685,273,o),
(1647,250,o),
(1592,251,cs),
(1567,252,o),
(1544,258,o),
(1525,270,cs),
(1486,295,o),
(1466,337,o),
(1465,395,cs),
(1464,424,o),
(1460,453,o),
(1451,481,cs),
(1387,670,o),
(1108,800,o),
(801,800,cs),
(366,800,o),
(92,586,o),
(92,245,cs),
(92,233,o),
(92,221,o),
(93,210,cs),
(112,-90,o),
(374,-293,o),
(781,-293,cs),
(1098,-293,o),
(1331,-152,o),
(1331,111,cs),
(1331,208,o),
(1298,295,o),
(1223,295,cs),
(1207,295,o),
(1193,290,o),
(1180,281,c),
(1158,264,o),
(1147,238,o),
(1147,204,cs),
(1146,0,l),
(1093,0,l),
(1095,511,l),
(894,511,l),
(894,1,l),
(600,1,l),
(600,41,l),
(601,44,o),
(603,47,o),
(604,50,c),
(635,123,o),
(650,200,o),
(650,279,cs),
(650,392,o),
(610,524,o),
(491,524,cs),
(462,524,o),
(436,517,o),
(412,502,cs),
(356,466,o),
(323,398,o),
(313,297,c),
(338,335,o),
(371,354,o),
(412,355,cs),
(434,355,o),
(454,349,o),
(473,336,cs),
(518,305,o),
(541,250,o),
(541,171,cs),
(541,86,o),
(508,-21,o),
(405,-21,cs),
(378,-21,o),
(353,-12,o),
(332,7,cs),
(285,49,o),
(261,126,o),
(261,238,cs)
);
},
{
closed = 1;
nodes = (
(420,29,o),
(433,32,o),
(444,39,cs),
(477,60,o),
(494,105,o),
(494,173,cs),
(494,224,o),
(484,310,o),
(408,310,cs),
(387,310,o),
(369,302,o),
(353,285,cs),
(324,255,o),
(312,210,o),
(317,150,c),
(331,71,o),
(361,30,o),
(407,29,cs)
);
}
);
width = 1759;
},
{
layerId = "0EF112A6-69F8-47E9-9D72-C545F6D6A613";
width = 600;
}
);
note = tml_Year;
unicode = 3061;
},
{
glyphname = tml_Debit;
lastChange = "2017-08-09 10:52:40 +0000";
layers = (
{
layerId = "B24528F6-199A-4A7E-931E-F430756048DC";
shapes = (
{
closed = 1;
nodes = (
(226,-343,o),
(175,-333,o),
(132,-313,cs),
(12,-256,o),
(5,-104,o),
(157,-101,cs),
(481,-100,l),
(486,-67,o),
(489,-34,o),
(489,1,c),
(101,1,l),
(101,560,l),
(154,560,l),
(154,49,l),
(499,49,l),
(499,560,l),
(551,560,l),
(551,1,l),
(540,1,l),
(540,-33,o),
(537,-67,o),
(532,-100,c),
(646,-100,l),
(646,560,l),
(696,560,l),
(696,-149,l),
(522,-149,l),
(520,-155,o),
(518,-161,o),
(516,-168,c),
(477,-285,o),
(400,-343,o),
(285,-343,cs)
);
},
{
closed = 1;
nodes = (
(378,-293,o),
(440,-245,o),
(470,-149,c),
(158,-149,ls),
(73,-150,o),
(85,-210,o),
(113,-241,cs),
(146,-276,o),
(203,-294,o),
(284,-294,cs)
);
}
);
width = 740;
},
{
layerId = "0EF112A6-69F8-47E9-9D72-C545F6D6A613";
width = 600;
}
);
note = tml_Debit;
unicode = 3062;
},
{
glyphname = tml_Credit;
lastChange = "2017-08-09 10:52:40 +0000";
layers = (
{
layerId = "B24528F6-199A-4A7E-931E-F430756048DC";
shapes = (
{
closed = 1;
nodes = (
(162,-24,o),
(139,-16,o),
(119,0,cs),
(69,40,o),
(44,118,o),
(44,235,cs),
(44,390,o),
(96,560,o),
(271,560,cs),
(592,560,l),
(592,512,l),
(489,512,l),
(489,305,l),
(580,305,ls),
(593,305,o),
(604,305,o),
(612,304,c),
(654,370,o),
(718,403,o),
(804,404,cs),
(939,404,o),
(1033,312,o),
(1033,183,cs),
(1033,132,o),
(1021,88,o),
(998,49,c),
(1117,49,l),
(1116,0,l),
(931,0,l),
(931,38,l),
(1002,115,o),
(993,220,o),
(960,277,cs),
(928,330,o),
(876,357,o),
(805,357,cs),
(752,357,o),
(709,339,o),
(675,302,c),
(706,300,o),
(732,296,o),
(754,291,cs),
(835,271,o),
(876,219,o),
(875,134,cs),
(874,71,o),
(847,-25,o),
(732,-25,cs),
(663,-25,o),
(571,22,o),
(571,151,cs),
(571,188,o),
(577,223,o),
(589,256,c),
(489,256,l),
(489,0,l),
(439,0,l),
(439,512,l),
(272,512,ls),
(245,512,o),
(219,505,o),
(196,492,cs),
(139,459,o),
(105,393,o),
(95,293,c),
(120,332,o),
(153,351,o),
(195,352,cs),
(217,352,o),
(238,345,o),
(257,332,cs),
(301,301,o),
(323,246,o),
(323,168,cs),
(323,83,o),
(292,-24,o),
(188,-24,cs)
);
},
{
closed = 1;
nodes = (
(203,25,o),
(216,29,o),
(227,36,cs),
(260,58,o),
(276,102,o),
(276,169,cs),
(276,221,o),
(264,306,o),
(191,306,cs),
(170,306,o),
(152,298,o),
(136,282,cs),
(107,252,o),
(95,207,o),
(99,147,c),
(113,67,o),
(143,26,o),
(190,25,cs)
);
},
{
closed = 1;
nodes = (
(749,25,o),
(764,29,o),
(778,37,cs),
(809,55,o),
(824,87,o),
(824,134,cs),
(824,153,o),
(821,170,o),
(815,184,cs),
(794,231,o),
(737,255,o),
(644,256,c),
(629,223,o),
(621,188,o),
(621,150,cs),
(621,129,o),
(625,109,o),
(632,91,cs),
(650,47,o),
(683,25,o),
(732,25,cs)
);
}
);
width = 1128;
},
{
layerId = "0EF112A6-69F8-47E9-9D72-C545F6D6A613";
width = 600;
}
);
note = tml_Credit;
unicode = 3063;
},
{
glyphname = tml_Above;
lastChange = "2017-08-09 10:52:40 +0000";
layers = (
{
layerId = "B24528F6-199A-4A7E-931E-F430756048DC";
shapes = (
{
closed = 1;
nodes = (
(542,754,o),
(667,617,o),
(686,393,c),
(707,386,o),
(727,376,o),
(744,361,cs),
(789,322,o),
(811,268,o),
(809,197,cs),
(809,195,o),
(809,193,o),
(809,191,c),
(806,138,o),
(791,91,o),
(763,49,c),
(932,49,l),
(959,169,l),
(919,194,l),
(861,227,o),
(831,268,o),
(830,316,c),
(830,337,o),
(834,355,o),
(841,371,cs),
(858,407,o),
(890,425,o),
(936,425,cs),
(961,425,o),
(983,418,o),
(1000,403,cs),
(1035,373,o),
(1045,324,o),
(1030,256,cs),
(1015,192,l),
(1060,163,l),
(1095,143,o),
(1134,121,o),
(1134,80,cs),
(1133,28,o),
(1105,1,o),
(1050,0,cs),
(972,0,l),
(938,-148,l),
(887,-148,l),
(921,0,l),
(696,0,l),
(696,37,l),
(738,92,o),
(759,145,o),
(760,195,c),
(759,263,o),
(735,310,o),
(688,337,c),
(687,140,o),
(639,-31,o),
(511,-31,cs),
(505,-31,o),
(499,-31,o),
(492,-30,cs),
(423,-21,o),
(388,30,o),
(388,124,cs),
(388,268,o),
(484,402,o),
(624,402,cs),
(635,402,l),
(620,529,o),
(550,702,o),
(382,702,cs),
(251,701,o),
(108,575,o),
(95,339,c),
(142,418,o),
(229,410,o),
(277,367,cs),
(320,328,o),
(342,268,o),
(342,185,cs),
(342,157,o),
(340,131,o),
(336,106,cs),
(304,-75,o),
(161,-49,o),
(105,32,cs),
(63,95,o),
(42,190,o),
(42,319,cs),
(42,576,o),
(190,755,o),
(386,755,cs)
);
},
{
closed = 1;
nodes = (
(975,239,l),
(990,298,o),
(997,376,o),
(934,376,cs),
(926,376,o),
(918,375,o),
(911,372,cs),
(868,355,o),
(867,287,o),
(918,254,cs),
(971,220,l)
);
},
{
closed = 1;
nodes = (
(525,18,o),
(542,25,o),
(558,38,cs),
(611,83,o),
(638,187,o),
(638,351,cs),
(638,352,l),
(635,353,o),
(630,353,o),
(623,353,cs),
(573,352,o),
(530,330,o),
(494,287,cs),
(418,194,o),
(415,21,o),
(506,18,cs)
);
},
{
closed = 1;
nodes = (
(220,19,o),
(228,20,o),
(235,23,cs),
(274,39,o),
(294,91,o),
(294,180,cs),
(294,210,o),
(290,238,o),
(282,264,cs),
(247,379,o),
(160,364,o),
(125,305,c),
(102,262,o),
(98,208,o),
(114,143,c),
(113,144,l),
(134,62,o),
(167,20,o),
(212,19,cs)
);
},
{
closed = 1;
nodes = (
(1049,49,o),
(1053,49,o),
(1056,49,c),
(1078,50,o),
(1089,58,o),
(1089,73,cs),
(1089,75,o),
(1089,77,o),
(1088,80,c),
(1086,87,o),
(1073,98,o),
(1048,113,cs),
(1004,141,l),
(983,49,l),
(1046,49,ls)
);
}
);
width = 1175;
},
{
layerId = "0EF112A6-69F8-47E9-9D72-C545F6D6A613";
width = 600;
}
);
note = tml_Above;
unicode = 3064;
},
{
glyphname = tml_Number;
lastChange = "2017-08-09 10:52:40 +0000";
layers = (
{
layerId = "B24528F6-199A-4A7E-931E-F430756048DC";
shapes = (
{
closed = 1;
nodes = (
(783,253,o),
(770,427,o),
(734,523,c),
(675,518,o),
(605,469,o),
(605,374,cs),
(605,358,o),
(607,343,o),
(610,328,cs),
(621,277,o),
(646,252,o),
(686,252,cs)
);
},
{
closed = 1;
nodes = (
(334,560,l),
(315,643,o),
(357,755,o),
(494,755,cs),
(527,755,o),
(560,749,o),
(592,737,cs),
(668,708,o),
(726,654,o),
(765,573,c),
(802,570,o),
(835,560,o),
(864,541,cs),
(935,497,o),
(970,419,o),
(971,308,cs),
(971,282,o),
(968,256,o),
(963,230,cs),
(948,158,o),
(917,98,o),
(868,49,c),
(1017,49,l),
(1017,0,l),
(791,0,l),
(790,39,l),
(877,117,o),
(920,206,o),
(921,306,cs),
(921,377,o),
(903,495,o),
(786,520,c),
(801,474,o),
(809,424,o),
(809,369,cs),
(809,347,o),
(807,326,o),
(803,307,cs),
(787,238,o),
(748,204,o),
(686,204,cs),
(663,204,o),
(642,210,o),
(623,221,c),
(579,249,o),
(557,301,o),
(557,376,cs),
(557,451,o),
(591,551,o),
(712,571,c),
(702,588,o),
(691,605,o),
(678,621,cs),
(629,679,o),
(569,708,o),
(500,707,cs),
(427,706,o),
(357,660,o),
(382,560,c),
(407,560,l),
(407,511,l),
(297,511,l),
(297,371,l),
(346,419,o),
(418,416,o),
(461,385,c),
(502,353,o),
(523,301,o),
(523,229,cs),
(523,121,o),
(475,0,o),
(363,0,c),
(363,46,l),
(383,47,o),
(402,56,o),
(421,74,cs),
(456,109,o),
(474,160,o),
(474,225,cs),
(474,244,o),
(472,262,o),
(468,278,cs),
(456,333,o),
(427,360,o),
(380,360,cs),
(364,360,o),
(350,356,o),
(337,349,c),
(310,333,o),
(297,307,o),
(297,271,cs),
(297,0,l),
(246,0,l),
(246,511,l),
(95,511,l),
(95,0,l),
(44,0,l),
(44,560,l)
);
}
);
width = 1028;
},
{
layerId = "0EF112A6-69F8-47E9-9D72-C545F6D6A613";
width = 600;
}
);
note = tml_Number;
unicode = 3066;
},
{
glyphname = tml_Rupee;
lastChange = "2017-08-09 10:52:40 +0000";
layers = (
{
layerId = "B24528F6-199A-4A7E-931E-F430756048DC";
shapes = (
{
closed = 1;
nodes = (
(736,560,l),
(736,511,l),
(604,511,l),
(604,321,l),
(648,369,o),
(712,363,o),
(748,344,cs),
(805,313,o),
(834,237,o),
(834,118,cs),
(834,-93,o),
(701,-267,o),
(468,-267,cs),
(225,-266,o),
(42,-57,o),
(42,323,cs),
(42,346,o),
(43,368,o),
(44,390,cs),
(67,747,o),
(263,954,o),
(492,954,cs),
(656,954,o),
(799,881,o),
(799,734,cs),
(799,708,o),
(793,684,o),
(782,663,cs),
(759,622,o),
(722,601,o),
(671,601,cs),
(618,601,o),
(544,635,o),
(544,728,cs),
(544,783,o),
(575,860,o),
(668,860,cs),
(673,860,o),
(678,860,o),
(682,859,c),
(631,890,o),
(568,905,o),
(492,904,cs),
(491,904,o),
(490,904,o),
(489,904,cs),
(248,897,o),
(93,654,o),
(93,323,cs),
(93,20,o),
(222,-217,o),
(469,-217,cs),
(649,-217,o),
(784,-89,o),
(784,119,cs),
(784,135,o),
(783,151,o),
(782,166,cs),
(773,262,o),
(742,310,o),
(687,310,cs),
(677,310,o),
(667,308,o),
(658,304,cs),
(622,287,o),
(604,245,o),
(604,179,cs),
(604,1,l),
(553,1,l),
(553,511,l),
(357,511,l),
(357,1,l),
(306,1,l),
(306,560,l)
);
},
{
closed = 1;
nodes = (
(686,648,o),
(699,651,o),
(711,657,cs),
(738,671,o),
(752,694,o),
(751,727,c),
(751,734,o),
(751,739,o),
(750,742,c),
(749,747,o),
(749,752,o),
(748,757,cs),
(739,796,o),
(713,815,o),
(670,815,cs),
(657,815,o),
(646,812,o),
(635,807,c),
(606,792,o),
(591,766,o),
(591,729,cs),
(591,714,o),
(594,701,o),
(601,689,cs),
(616,662,o),
(640,648,o),
(672,648,cs)
);
}
);
width = 876;
},
{
layerId = "0EF112A6-69F8-47E9-9D72-C545F6D6A613";
width = 600;
}
);
note = tml_Rupee;
unicode = 3065;
},
{
glyphname = greater;
lastChange = "2017-09-05 11:02:02 +0000";
layers = (
{
layerId = "B24528F6-199A-4A7E-931E-F430756048DC";
shapes = (
{
closed = 1;
nodes = (
(10,203,l),
(404,203,l),
(404,321,l),
(10,321,l)
);
}
);
width = 600;
},
{
layerId = "0EF112A6-69F8-47E9-9D72-C545F6D6A613";
width = 600;
}
);
unicode = 62;
},
{
glyphname = less;
lastChange = "2017-09-05 11:02:32 +0000";
layers = (
{
layerId = "B24528F6-199A-4A7E-931E-F430756048DC";
shapes = (
{
closed = 1;
nodes = (
(10,203,l),
(404,203,l),
(404,321,l),
(10,321,l)
);
}
);
width = 600;
},
{
layerId = "0EF112A6-69F8-47E9-9D72-C545F6D6A613";
width = 600;
}
);
unicode = 60;
},
{
glyphname = "aeMatra-sinhala";
lastChange = "2023-10-18 17:50:23 +0000";
layers = (
{
layerId = "B24528F6-199A-4A7E-931E-F430756048DC";
shapes = (
{
closed = 1;
nodes = (
(299,90,l),
(282,85,o),
(264,80,o),
(242,80,cs),
(182,80,o),
(134,106,o),
(134,178,cs),
(134,252,o),
(196,300,o),
(297,320,c),
(296,442,l),
(35,442,l),
(35,350,l),
(202,350,l),
(153,341,l),
(69,317,o),
(23,238,o),
(23,166,cs),
(23,53,o),
(93,-17,o),
(221,-17,cs),
(248,-17,o),
(292,-9,o),
(317,5,c)
);
}
);
width = 313;
},
{
layerId = "0EF112A6-69F8-47E9-9D72-C545F6D6A613";
width = 600;
},
{
associatedMasterId = "B24528F6-199A-4A7E-931E-F430756048DC";
layerId = "B29EE4E5-2FF5-4765-952A-898607899C38";
name = "18 Oct 23 at 23:15";
shapes = (
{
closed = 1;
nodes = (
(299,90,l),
(282,85,o),
(264,80,o),
(242,80,cs),
(182,80,o),
(134,106,o),
(134,178,cs),
(134,252,o),
(196,300,o),
(297,320,c),
(296,443,l),
(35,443,l),
(35,350,l),
(202,350,l),
(153,341,l),
(69,317,o),
(29,238,o),
(29,166,cs),
(29,53,o),
(93,-17,o),
(227,-17,cs),
(257,-17,o),
(294,-11,o),
(318,-1,c)
);
}
);
width = 313;
}
);
unicode = 3536;
},
{
glyphname = tml_MatraIi;
lastChange = "2017-08-09 10:52:40 +0000";
layers = (
{
layerId = "B24528F6-199A-4A7E-931E-F430756048DC";
shapes = (
{
closed = 1;
nodes = (
(131,636,o),
(141,639,o),
(151,644,c),
(178,660,o),
(191,691,o),
(191,738,cs),
(191,755,o),
(189,772,o),
(185,788,cs),
(174,833,o),
(151,856,o),
(116,856,cs),
(103,856,o),
(90,851,o),
(79,842,c),
(56,821,o),
(44,786,o),
(44,738,cs),
(44,721,o),
(46,706,o),
(50,692,c),
(62,655,o),
(86,636,o),
(121,636,cs)
);
},
{
closed = 1;
nodes = (
(-22,517,o),
(-36,521,o),
(-51,528,cs),
(-102,554,o),
(-127,608,o),
(-127,691,cs),
(-127,800,o),
(-58,903,o),
(97,902,cs),
(124,901,o),
(147,896,o),
(167,886,cs),
(215,861,o),
(239,811,o),
(239,738,cs),
(239,667,o),
(209,590,o),
(121,590,cs),
(102,590,o),
(85,594,o),
(68,601,c),
(21,623,o),
(-3,668,o),
(-3,737,cs),
(-3,780,o),
(7,815,o),
(28,843,c),
(24,842,o),
(20,840,o),
(15,838,cs),
(-46,812,o),
(-77,762,o),
(-77,688,cs),
(-77,613,o),
(-44,560,o),
(0,560,c),
(-9,517,l)
);
}
);
width = 0;
},
{
layerId = "0EF112A6-69F8-47E9-9D72-C545F6D6A613";
width = 600;
}
);
note = tml_MatraIi;
unicode = 3008;
},
{
glyphname = tml_Virama;
lastChange = "2017-08-26 21:59:30 +0000";
layers = (
{
layerId = "B24528F6-199A-4A7E-931E-F430756048DC";
shapes = (
{
closed = 1;
nodes = (
(-108,670,o),
(-105,654,o),
(-98,642,c),
(-80,599,o),
(-47,576,o),
(1,576,cs),
(13,576,o),
(26,579,o),
(39,584,cs),
(84,601,o),
(107,637,o),
(107,685,cs),
(107,697,o),
(104,713,o),
(99,725,cs),
(82,768,o),
(49,791,o),
(1,791,cs),
(-14,791,o),
(-30,788,o),
(-42,783,c),
(-85,763,o),
(-108,730,o),
(-108,685,cs)
);
}
);
width = 0;
},
{
layerId = "0EF112A6-69F8-47E9-9D72-C545F6D6A613";
width = 600;
}
);
note = tml_Virama;
unicode = 3021;
},
{
glyphname = tml_Anusvara;
lastChange = "2017-08-09 10:52:40 +0000";
layers = (
{
layerId = "B24528F6-199A-4A7E-931E-F430756048DC";
shapes = (
{
closed = 1;
nodes = (
(-105,662,o),
(-77,596,o),
(0,596,cs),
(41,596,o),
(106,626,o),
(106,702,cs),
(106,722,o),
(100,741,o),
(89,758,cs),
(68,791,o),
(39,807,o),
(0,807,cs),
(-41,807,o),
(-105,778,o),
(-105,702,cs)
);
},
{
closed = 1;
nodes = (
(62,693,o),
(60,683,o),
(55,674,cs),
(43,651,o),
(24,640,o),
(-2,640,cs),
(-11,640,o),
(-20,642,o),
(-29,647,c),
(-51,658,o),
(-62,677,o),
(-62,702,cs),
(-62,711,o),
(-60,719,o),
(-57,728,c),
(-47,751,o),
(-29,763,o),
(-2,763,cs),
(7,763,o),
(17,761,o),
(26,757,cs),
(50,747,o),
(62,729,o),
(62,702,cs)
);
}
);
width = 1;
},
{
layerId = "0EF112A6-69F8-47E9-9D72-C545F6D6A613";
width = 600;
}
);
note = tml_Anusvara;
unicode = 2946;
},
{
glyphname = tml_MatraAa;
lastChange = "2017-08-09 10:52:40 +0000";
layers = (
{
layerId = "B24528F6-199A-4A7E-931E-F430756048DC";
shapes = (
{
closed = 1;
nodes = (
(95,511,l),
(315,511,l),
(312,0,l),
(366,0,l),
(368,511,l),
(497,511,l),
(497,560,l),
(44,560,l),
(44,0,l),
(95,0,l)
);
}
);
width = 497;
},
{
layerId = "0EF112A6-69F8-47E9-9D72-C545F6D6A613";
width = 600;
}
);
note = tml_MatraAa;
unicode = 3006;
},
{
glyphname = tml_MatraI;
lastChange = "2017-08-07 23:30:13 +0000";
layers = (
{
layerId = "B24528F6-199A-4A7E-931E-F430756048DC";
shapes = (
{
closed = 1;
nodes = (
(194,-6,l),
(192,406,ls),
(191,594,o),
(72,694,o),
(-88,692,cs),
(-188,691,o),
(-298,637,o),
(-298,526,cs),
(-298,462,o),
(-261,417,o),
(-215,417,c),
(-167,460,l),
(-183,460,o),
(-207,482,o),
(-207,505,cs),
(-207,550,o),
(-158,572,o),
(-92,572,cs),
(6,572,o),
(92,505,o),
(92,389,cs),
(93,-6,l)
);
}
);
width = 244;
},
{
layerId = "0EF112A6-69F8-47E9-9D72-C545F6D6A613";
width = 600;
}
);
note = tml_MatraI;
unicode = 3007;
},
{
glyphname = tml_MatraU;
lastChange = "2017-08-09 10:52:40 +0000";
layers = (
{
layerId = "B24528F6-199A-4A7E-931E-F430756048DC";
shapes = (
{
closed = 1;
nodes = (
(145,211,o),
(119,220,o),
(96,237,cs),
(56,267,o),
(36,312,o),
(36,373,cs),
(36,434,o),
(52,480,o),
(83,511,c),
(-196,511,l),
(-196,560,l),
(149,560,ls),
(155,560,o),
(161,560,o),
(167,559,c),
(265,552,o),
(314,494,o),
(314,385,cs),
(314,312,o),
(288,211,o),
(176,211,cs)
);
},
{
closed = 1;
nodes = (
(188,260,o),
(203,264,o),
(216,272,c),
(247,293,o),
(263,330,o),
(263,385,cs),
(263,394,o),
(263,402,o),
(262,411,cs),
(255,478,o),
(225,511,o),
(171,511,cs),
(157,511,o),
(144,507,o),
(132,499,cs),
(101,478,o),
(86,438,o),
(86,379,cs),
(86,334,o),
(101,260,o),
(172,260,cs)
);
}
);
width = 356;
},
{
layerId = "0EF112A6-69F8-47E9-9D72-C545F6D6A613";
width = 600;
}
);
note = tml_MatraU;
unicode = 3009;
},
{
glyphname = tml_MatraUu;
lastChange = "2017-08-09 10:52:40 +0000";
layers = (
{
layerId = "B24528F6-199A-4A7E-931E-F430756048DC";
shapes = (
{
closed = 1;
nodes = (
(377,215,o),
(377,216,o),
(378,217,c),
(413,270,o),
(431,333,o),
(431,404,cs),
(431,481,o),
(401,598,o),
(257,598,cs),
(211,598,o),
(171,584,o),
(137,557,c),
(152,556,o),
(166,553,o),
(179,549,c),
(261,527,o),
(302,469,o),
(302,376,cs),
(302,346,o),
(297,319,o),
(287,296,cs),
(265,244,o),
(224,218,o),
(165,218,cs),
(135,218,o),
(108,226,o),
(85,242,cs),
(41,274,o),
(19,326,o),
(19,397,cs),
(19,439,o),
(27,477,o),
(43,511,c),
(-198,511,l),
(-198,560,l),
(72,560,l),
(117,616,o),
(178,644,o),
(257,645,cs),
(385,645,o),
(480,557,o),
(480,414,cs),
(480,350,o),
(467,290,o),
(442,235,c),
(428,209,o),
(421,196,o),
(421,196,c),
(376,214,l)
);
},
{
closed = 1;
nodes = (
(177,267,o),
(187,269,o),
(196,272,c),
(233,286,o),
(251,324,o),
(251,385,cs),
(251,398,o),
(250,411,o),
(247,422,cs),
(232,480,o),
(182,510,o),
(98,511,c),
(78,478,o),
(68,439,o),
(68,396,cs),
(68,340,o),
(95,267,o),
(168,267,cs)
);
}
);
width = 520;
},
{
layerId = "0EF112A6-69F8-47E9-9D72-C545F6D6A613";
width = 600;
}
);
note = tml_MatraUu;
unicode = 3010;
},
{
glyphname = tml_MatraE;
lastChange = "2017-08-09 10:52:40 +0000";
layers = (
{
layerId = "B24528F6-199A-4A7E-931E-F430756048DC";
shapes = (
{
closed = 1;
nodes = (
(172,-30,o),
(150,-23,o),
(131,-10,cs),
(65,37,o),
(32,157,o),
(32,350,cs),
(32,578,o),
(124,807,o),
(340,807,cs),
(487,806,o),
(544,682,o),
(544,403,cs),
(544,0,l),
(493,0,l),
(492,393,l),
(492,481,o),
(487,549,o),
(478,598,cs),
(439,807,o),
(265,779,o),
(177,680,cs),
(114,606,o),
(82,495,o),
(82,348,cs),
(82,327,l),
(107,374,o),
(143,398,o),
(192,399,cs),
(219,399,o),
(243,391,o),
(264,375,cs),
(309,340,o),
(332,276,o),
(332,185,cs),
(332,100,o),
(307,-30,o),
(195,-30,cs)
);
},
{
closed = 1;
nodes = (
(208,19,o),
(219,22,o),
(230,28,cs),
(266,49,o),
(284,99,o),
(284,180,cs),
(284,205,o),
(282,228,o),
(278,249,cs),
(265,317,o),
(236,351,o),
(191,351,c),
(168,350,o),
(148,341,o),
(131,322,c),
(101,285,o),
(90,230,o),
(98,157,c),
(98,154,o),
(99,150,o),
(100,143,c),
(118,62,o),
(150,20,o),
(196,19,cs)
);
}
);
width = 604;
},
{
layerId = "0EF112A6-69F8-47E9-9D72-C545F6D6A613";
width = 600;
}
);
note = tml_MatraE;
unicode = 3014;
},
{
glyphname = tml_MatraEe;
lastChange = "2017-08-09 10:52:40 +0000";
layers = (
{
layerId = "B24528F6-199A-4A7E-931E-F430756048DC";
shapes = (
{
closed = 1;
nodes = (
(309,490,o),
(317,492,o),
(325,496,cs),
(360,513,o),
(377,559,o),
(377,632,cs),
(377,646,o),
(376,660,o),
(374,673,cs),
(365,730,o),
(340,759,o),
(299,759,cs),
(287,759,o),
(276,756,o),
(266,749,c),
(236,730,o),
(221,691,o),
(220,632,cs),
(219,575,o),
(231,490,o),
(300,490,cs)
);
},
{
closed = 1;
nodes = (
(237,-18,o),
(188,-1,o),
(146,34,cs),
(64,102,o),
(23,221,o),
(23,392,cs),
(23,651,o),
(147,806,o),
(292,806,cs),
(307,806,o),
(322,804,o),
(336,799,cs),
(395,780,o),
(425,722,o),
(425,626,cs),
(425,541,o),
(395,441,o),
(299,441,cs),
(273,441,o),
(250,449,o),
(229,465,cs),
(150,528,o),
(170,673,o),
(195,722,c),
(178,709,o),
(163,692,o),
(148,672,cs),
(98,601,o),
(73,508,o),
(73,392,cs),
(73,363,o),
(75,334,o),
(78,306,cs),
(92,181,o),
(134,96,o),
(203,53,c),
(185,82,o),
(175,118,o),
(174,160,cs),
(171,241,o),
(198,346,o),
(299,346,cs),
(320,346,o),
(339,340,o),
(357,329,cs),
(402,300,o),
(425,243,o),
(425,160,cs),
(425,144,o),
(424,129,o),
(422,114,cs),
(410,26,o),
(367,-18,o),
(292,-18,cs)
);
},
{
closed = 1;
nodes = (
(314,27,o),
(328,32,o),
(340,43,cs),
(364,66,o),
(376,103,o),
(376,154,cs),
(376,211,o),
(364,297,o),
(299,297,cs),
(295,297,o),
(291,297,o),
(286,296,cs),
(241,287,o),
(219,240,o),
(220,154,cs),
(221,109,o),
(238,27,o),
(298,27,cs),
(299,27,ls)
);
}
);
width = 491;
},
{
layerId = "0EF112A6-69F8-47E9-9D72-C545F6D6A613";
width = 600;
}
);
note = tml_MatraEe;
unicode = 3015;
},
{
glyphname = tml_MatraAi;
lastChange = "2017-08-09 10:52:40 +0000";
layers = (
{
layerId = "B24528F6-199A-4A7E-931E-F430756048DC";
shapes = (
{
closed = 1;
nodes = (
(160,-21,o),
(135,-12,o),
(113,7,cs),
(66,49,o),
(42,126,o),
(42,237,cs),
(42,425,o),
(158,569,o),
(342,569,cs),
(401,569,o),
(455,556,o),
(505,529,c),
(589,581,o),
(712,578,o),
(789,542,cs),
(888,496,o),
(936,401,o),
(933,256,cs),
(932,163,o),
(912,8,o),
(756,-16,c),
(748,32,l),
(765,35,o),
(782,43,o),
(799,55,cs),
(854,96,o),
(882,165,o),
(882,264,cs),
(882,377,o),
(842,521,o),
(657,521,cs),
(616,521,o),
(581,513,o),
(551,498,c),
(630,435,o),
(669,339,o),
(670,212,cs),
(670,179,o),
(668,150,o),
(663,124,cs),
(645,26,o),
(598,-23,o),
(521,-23,cs),
(494,-23,o),
(469,-16,o),
(448,-2,cs),
(395,34,o),
(368,106,o),
(368,213,cs),
(368,338,o),
(399,432,o),
(462,495,c),
(424,512,o),
(383,521,o),
(339,521,cs),
(248,521,o),
(126,463,o),
(97,302,c),
(146,371,o),
(217,361,o),
(254,336,cs),
(299,305,o),
(322,250,o),
(322,171,cs),
(322,86,o),
(290,-21,o),
(187,-21,cs)
);
},
{
closed = 1;
nodes = (
(536,25,o),
(549,29,o),
(561,36,c),
(640,87,o),
(656,361,o),
(507,469,c),
(448,415,o),
(419,329,o),
(418,212,cs),
(418,151,o),
(426,25,o),
(521,25,cs)
);
},
{
closed = 1;
nodes = (
(201,27,o),
(214,31,o),
(226,39,cs),
(258,61,o),
(274,106,o),
(274,173,cs),
(274,224,o),
(262,310,o),
(189,310,cs),
(168,310,o),
(150,302,o),
(133,285,cs),
(105,255,o),
(93,211,o),
(97,154,c),
(110,71,o),
(140,28,o),
(188,27,cs)
);
}
);
width = 975;
},
{
layerId = "0EF112A6-69F8-47E9-9D72-C545F6D6A613";
width = 600;
}
);
note = tml_MatraAi;
unicode = 3016;
},
{
glyphname = tml_MatraO;
lastChange = "2017-08-09 10:52:40 +0000";
layers = (
{
layerId = "B24528F6-199A-4A7E-931E-F430756048DC";
shapes = (
{
closed = 1;
nodes = (
(1100,560,l),
(1100,511,l),
(971,511,l),
(969,0,l),
(916,0,l),
(918,511,l),
(698,511,l),
(698,0,l),
(648,0,l),
(648,560,l)
);
},
{
closed = 1;
nodes = (
(169,-30,o),
(144,-21,o),
(123,-2,cs),
(63,51,o),
(33,168,o),
(33,350,cs),
(33,579,o),
(126,807,o),
(342,807,cs),
(495,806,o),
(545,670,o),
(546,403,cs),
(546,0,l),
(495,0,l),
(494,393,l),
(494,481,o),
(489,549,o),
(480,598,cs),
(441,807,o),
(267,779,o),
(179,680,cs),
(116,606,o),
(84,495,o),
(84,348,cs),
(84,327,l),
(109,374,o),
(145,398,o),
(194,399,cs),
(221,399,o),
(245,391,o),
(266,375,cs),
(311,340,o),
(334,276,o),
(334,185,cs),
(334,101,o),
(311,-30,o),
(196,-30,cs)
);
},
{
closed = 1;
nodes = (
(210,19,o),
(221,22,o),
(232,28,cs),
(268,49,o),
(286,99,o),
(286,180,cs),
(286,205,o),
(284,228,o),
(280,249,cs),
(267,317,o),
(238,351,o),
(193,351,c),
(168,350,o),
(146,339,o),
(129,317,cs),
(100,277,o),
(90,220,o),
(101,145,c),
(101,143,l),
(119,62,o),
(151,20,o),
(198,19,cs)
);
}
);
width = 1198;
},
{
layerId = "0EF112A6-69F8-47E9-9D72-C545F6D6A613";
width = 600;
}
);
note = tml_MatraO;
unicode = 3018;
},
{
glyphname = tml_MatraOo;
lastChange = "2017-08-09 10:52:40 +0000";
layers = (
{
layerId = "B24528F6-199A-4A7E-931E-F430756048DC";
shapes = (
{
closed = 1;
nodes = (
(988,560,l),
(988,511,l),
(859,511,l),
(856,0,l),
(803,0,l),
(806,511,l),
(586,511,l),
(586,0,l),
(535,0,l),
(535,560,l)
);
},
{
closed = 1;
nodes = (
(312,490,o),
(320,492,o),
(328,496,cs),
(363,513,o),
(380,559,o),
(380,632,cs),
(380,646,o),
(379,660,o),
(377,673,cs),
(368,730,o),
(343,759,o),
(302,759,cs),
(291,759,o),
(281,756,o),
(271,751,c),
(240,733,o),
(224,693,o),
(223,632,cs),
(222,575,o),
(234,490,o),
(303,490,cs)
);
},
{
closed = 1;
nodes = (
(240,-18,o),
(191,-1,o),
(149,34,cs),
(67,102,o),
(26,221,o),
(26,392,cs),
(26,651,o),
(150,806,o),
(295,806,cs),
(310,806,o),
(325,804,o),
(339,799,cs),
(398,780,o),
(428,722,o),
(428,626,cs),
(428,541,o),
(398,441,o),
(302,441,cs),
(275,441,o),
(251,449,o),
(230,466,cs),
(153,531,o),
(172,665,o),
(197,722,c),
(181,709,o),
(166,693,o),
(152,674,cs),
(101,603,o),
(76,509,o),
(76,392,cs),
(76,359,o),
(78,328,o),
(82,298,cs),
(97,176,o),
(138,94,o),
(206,53,c),
(188,81,o),
(178,117,o),
(177,160,cs),
(174,241,o),
(201,346,o),
(302,346,cs),
(323,346,o),
(342,340,o),
(360,329,cs),
(405,300,o),
(428,243,o),
(428,160,cs),
(428,144,o),
(427,129,o),
(425,114,cs),
(413,26,o),
(370,-18,o),
(295,-18,cs)
);
},
{
closed = 1;
nodes = (
(316,27,o),
(330,32,o),
(342,43,cs),
(367,65,o),
(379,102,o),
(379,154,cs),
(379,211,o),
(367,297,o),
(302,297,cs),
(297,297,o),
(291,296,o),
(285,295,c),
(242,284,o),
(222,237,o),
(223,154,cs),
(224,109,o),
(241,27,o),
(301,27,cs)
);
}
);
width = 1086;
},
{
layerId = "0EF112A6-69F8-47E9-9D72-C545F6D6A613";
width = 600;
}
);
note = tml_MatraOo;
unicode = 3019;
},
{
glyphname = tml_MatraAu;
lastChange = "2017-08-09 10:52:40 +0000";
layers = (
{
layerId = "B24528F6-199A-4A7E-931E-F430756048DC";
shapes = (
{
closed = 1;
nodes = (
(766,-21,o),
(743,-12,o),
(722,5,cs),
(673,46,o),
(649,123,o),
(649,238,cs),
(649,319,o),
(662,388,o),
(689,445,cs),
(769,613,o),
(963,601,o),
(1039,477,c),
(1039,560,l),
(1470,560,l),
(1470,511,l),
(1338,511,l),
(1338,1,l),
(1287,1,l),
(1287,511,l),
(1089,511,l),
(1089,1,l),
(1037,1,l),
(1037,278,ls),
(1037,379,o),
(1014,524,o),
(877,524,cs),
(848,524,o),
(822,516,o),
(798,501,cs),
(743,465,o),
(710,397,o),
(700,296,c),
(725,335,o),
(758,354,o),
(799,355,cs),
(822,355,o),
(843,348,o),
(862,335,cs),
(907,304,o),
(929,249,o),
(929,171,cs),
(929,86,o),
(896,-21,o),
(793,-21,cs)
);
},
{
closed = 1;
nodes = (
(808,29,o),
(820,32,o),
(831,39,cs),
(864,60,o),
(881,105,o),
(881,173,cs),
(881,225,o),
(869,310,o),
(796,310,cs),
(775,310,o),
(757,302,o),
(741,286,cs),
(712,256,o),
(700,211,o),
(704,150,c),
(718,71,o),
(748,30,o),
(795,29,cs)
);
},
{
closed = 1;
nodes = (
(169,-30,o),
(144,-21,o),
(123,-2,cs),
(63,51,o),
(33,168,o),
(33,350,cs),
(33,579,o),
(126,807,o),
(342,807,cs),
(495,806,o),
(545,670,o),
(546,403,cs),
(546,0,l),
(495,0,l),
(494,393,l),
(494,481,o),
(489,549,o),
(480,598,cs),
(441,807,o),
(267,779,o),
(179,680,cs),
(116,606,o),
(84,495,o),
(84,348,cs),
(84,327,l),
(109,374,o),
(145,398,o),
(194,399,cs),
(221,399,o),
(245,391,o),
(266,375,cs),
(311,340,o),
(334,276,o),
(334,185,cs),
(334,101,o),
(311,-30,o),
(196,-30,cs)
);
},
{
closed = 1;
nodes = (
(210,19,o),
(221,22,o),
(232,28,cs),
(268,49,o),
(286,99,o),
(286,180,cs),
(286,205,o),
(284,228,o),
(280,249,cs),
(267,317,o),
(238,351,o),
(193,351,c),
(168,350,o),
(146,339,o),
(129,317,cs),
(100,277,o),
(90,220,o),
(101,145,c),
(101,143,l),
(119,62,o),
(151,20,o),
(198,19,cs)
);
}
);
width = 1489;
},
{
layerId = "0EF112A6-69F8-47E9-9D72-C545F6D6A613";
width = 600;
}
);
note = tml_MatraAu;
unicode = 3020;
},
{
glyphname = tml_AuLengthmark;
lastChange = "2017-08-09 10:52:40 +0000";
layers = (
{
layerId = "B24528F6-199A-4A7E-931E-F430756048DC";
shapes = (
{
closed = 1;
nodes = (
(163,-21,o),
(138,-12,o),
(117,6,cs),
(69,47,o),
(45,125,o),
(45,238,cs),
(45,320,o),
(58,389,o),
(85,445,cs),
(166,613,o),
(360,601,o),
(436,477,c),
(436,560,l),
(866,560,l),
(866,511,l),
(735,511,l),
(735,1,l),
(684,1,l),
(684,511,l),
(485,511,l),
(485,1,l),
(434,1,l),
(434,278,ls),
(434,379,o),
(411,524,o),
(274,524,cs),
(244,524,o),
(217,516,o),
(193,500,cs),
(139,464,o),
(107,396,o),
(97,297,c),
(122,335,o),
(155,354,o),
(196,355,cs),
(218,355,o),
(238,349,o),
(257,336,cs),
(302,305,o),
(325,250,o),
(325,171,cs),
(325,86,o),
(294,-21,o),
(190,-21,cs)
);
},
{
closed = 1;
nodes = (
(204,29,o),
(217,32,o),
(228,39,cs),
(261,60,o),
(278,105,o),
(278,173,cs),
(278,224,o),
(268,310,o),
(192,310,cs),
(172,310,o),
(154,302,o),
(139,287,cs),
(110,257,o),
(97,211,o),
(101,150,c),
(115,71,o),
(145,30,o),
(191,29,cs)
);
}
);
width = 864;
},
{
layerId = "0EF112A6-69F8-47E9-9D72-C545F6D6A613";
width = 600;
}
);
note = tml_AuLengthmark;
unicode = 3031;
},
{
glyphname = logo.mooniakplanets;
lastChange = "2017-08-06 08:35:16 +0000";
layers = (
{
layerId = "0EF112A6-69F8-47E9-9D72-C545F6D6A613";
shapes = (
{
closed = 1;
nodes = (
(604,647,cs),
(604,712,o),
(656,764,o),
(721,764,cs),
(786,764,o),
(838,712,o),
(838,647,cs),
(838,582,o),
(786,530,o),
(721,530,cs),
(656,530,o),
(604,582,o)
);
},
{
closed = 1;
nodes = (
(124,242,cs),
(124,398,o),
(250,524,o),
(406,524,cs),
(562,524,o),
(688,398,o),
(688,242,cs),
(688,86,o),
(562,-40,o),
(406,-40,cs),
(250,-40,o),
(124,86,o)
);
}
);
width = 848;
},
{
layerId = "B24528F6-199A-4A7E-931E-F430756048DC";
shapes = (
{
closed = 1;
nodes = (
(604,647,cs),
(604,712,o),
(656,764,o),
(721,764,cs),
(786,764,o),
(838,712,o),
(838,647,cs),
(838,582,o),
(786,530,o),
(721,530,cs),
(656,530,o),
(604,582,o)
);
},
{
closed = 1;
nodes = (
(124,242,cs),
(124,398,o),
(250,524,o),
(406,524,cs),
(562,524,o),
(688,398,o),
(688,242,cs),
(688,86,o),
(562,-40,o),
(406,-40,cs),
(250,-40,o),
(124,86,o)
);
}
);
width = 848;
}
);
unicode = 57346;
},
{
glyphname = logo.scribbletext;
lastChange = "2018-06-19 04:16:20 +0000";
layers = (
{
layerId = "0EF112A6-69F8-47E9-9D72-C545F6D6A613";
shapes = (
{
closed = 1;
nodes = (
(1514,3,o),
(1546,104,o),
(1546,194,cs),
(1546,290,o),
(1498,367,o),
(1404,367,cs),
(1374,367,o),
(1344,355,o),
(1326,341,c),
(1326,509,l),
(1237,509,l),
(1237,13,l),
(1300,13,l),
(1310,50,l),
(1331,13,o),
(1369,3,o),
(1401,3,cs)
);
},
{
closed = 1;
nodes = (
(279,2,o),
(316,53,o),
(316,107,cs),
(316,148,o),
(290,178,o),
(257,197,cs),
(231,212,o),
(196,222,o),
(172,230,cs),
(147,238,o),
(121,247,o),
(121,267,cs),
(121,283,o),
(135,292,o),
(164,292,cs),
(211,292,o),
(252,272,o),
(273,249,c),
(315,313,l),
(288,344,o),
(235,366,o),
(171,366,cs),
(103,366,o),
(41,332,o),
(41,264,cs),
(41,211,o),
(87,186,o),
(131,169,cs),
(154,160,o),
(185,151,o),
(210,137,cs),
(224,129,o),
(231,121,o),
(231,108,cs),
(231,85,o),
(205,78,o),
(184,78,cs),
(132,78,o),
(83,109,o),
(58,132,c),
(19,56,l),
(64,24,o),
(115,0,o),
(188,1,cs)
);
},
{
closed = 1;
nodes = (
(599,3,o),
(646,26,o),
(675,65,c),
(624,124,l),
(601,98,o),
(576,84,o),
(545,84,cs),
(484,84,o),
(451,132,o),
(451,187,cs),
(451,242,o),
(483,287,o),
(542,287,cs),
(579,287,o),
(608,265,o),
(629,238,c),
(680,299,l),
(654,338,o),
(606,366,o),
(542,366,cs),
(437,366,o),
(363,294,o),
(363,180,cs),
(363,73,o),
(427,3,o),
(542,3,cs)
);
},
{
closed = 1;
nodes = (
(824,13,l),
(824,194,ls),
(824,244,o),
(871,283,o),
(920,283,cs),
(936,283,o),
(953,278,o),
(965,270,c),
(989,358,l),
(972,365,o),
(955,366,o),
(942,366,cs),
(891,366,o),
(850,346,o),
(825,316,c),
(825,363,l),
(735,363,l),
(735,13,l)
);
},
{
closed = 1;
nodes = (
(1133,13,l),
(1133,359,l),
(1041,359,l),
(1041,13,l)
);
},
{
closed = 1;
nodes = (
(1122,407,o),
(1144,433,o),
(1144,464,cs),
(1144,496,o),
(1121,521,o),
(1087,521,cs),
(1055,521,o),
(1031,497,o),
(1031,464,cs),
(1031,433,o),
(1053,407,o),
(1087,407,cs)
);
},
{
closed = 1;
nodes = (
(1336,79,o),
(1324,130,o),
(1324,188,cs),
(1324,244,o),
(1341,294,o),
(1391,293,cs),
(1437,292,o),
(1455,248,o),
(1455,180,cs),
(1455,129,o),
(1437,79,o),
(1392,79,cs)
);
},
{
closed = 1;
nodes = (
(1724,79,o),
(1713,130,o),
(1713,188,cs),
(1713,244,o),
(1727,294,o),
(1778,293,cs),
(1825,292,o),
(1843,248,o),
(1843,180,cs),
(1843,129,o),
(1825,79,o),
(1779,79,cs)
);
},
{
closed = 1;
nodes = (
(1901,3,o),
(1934,104,o),
(1934,194,cs),
(1934,290,o),
(1886,367,o),
(1791,367,cs),
(1761,367,o),
(1732,355,o),
(1713,341,c),
(1713,509,l),
(1626,509,l),
(1626,13,l),
(1687,13,l),
(1697,50,l),
(1717,13,o),
(1755,3,o),
(1788,3,cs)
);
},
{
closed = 1;
nodes = (
(2095,13,l),
(2095,509,l),
(2003,509,l),
(2003,13,l)
);
},
{
closed = 1;
nodes = (
(2396,3,o),
(2444,24,o),
(2476,66,c),
(2431,123,l),
(2411,100,o),
(2382,84,o),
(2343,84,cs),
(2291,84,o),
(2265,118,o),
(2258,160,c),
(2481,160,l),
(2482,175,o),
(2483,189,o),
(2483,197,cs),
(2483,295,o),
(2428,366,o),
(2336,366,cs),
(2232,366,o),
(2171,288,o),
(2171,180,cs),
(2171,73,o),
(2236,3,o),
(2344,3,cs)
);
},
{
closed = 1;
nodes = (
(2262,244,o),
(2272,266,o),
(2284,278,cs),
(2300,294,o),
(2332,308,o),
(2358,294,cs),
(2381,282,o),
(2395,259,o),
(2396,226,c),
(2262,226,l)
);
},
{
closed = 1;
nodes = (
(2646,-4,o),
(2667,21,o),
(2667,53,cs),
(2667,84,o),
(2643,109,o),
(2611,109,cs),
(2579,109,o),
(2554,86,o),
(2554,53,cs),
(2554,21,o),
(2577,-4,o),
(2611,-4,cs)
);
},
{
closed = 1;
nodes = (
(2646,157,l),
(2652,236,o),
(2658,317,o),
(2663,395,cs),
(2665,428,o),
(2665,449,o),
(2665,458,cs),
(2665,487,o),
(2647,503,o),
(2614,503,cs),
(2574,503,o),
(2559,484,o),
(2559,457,cs),
(2559,445,o),
(2561,426,o),
(2562,399,cs),
(2565,325,o),
(2574,236,o),
(2574,157,c)
);
}
);
width = 2697;
},
{
layerId = "B24528F6-199A-4A7E-931E-F430756048DC";
shapes = (
{
closed = 1;
nodes = (
(1527,3,o),
(1559,104,o),
(1559,194,cs),
(1559,290,o),
(1511,367,o),
(1420,367,cs),
(1386,367,o),
(1357,355,o),
(1339,341,c),
(1339,501,l),
(1250,501,l),
(1250,13,l),
(1313,13,l),
(1323,50,l),
(1344,13,o),
(1382,3,o),
(1414,3,cs)
);
},
{
closed = 1;
nodes = (
(279,2,o),
(316,53,o),
(316,107,cs),
(316,148,o),
(290,178,o),
(257,197,cs),
(231,212,o),
(196,222,o),
(172,230,cs),
(147,238,o),
(121,247,o),
(121,267,cs),
(121,282,o),
(135,292,o),
(166,292,cs),
(211,292,o),
(251,271,o),
(273,249,c),
(315,313,l),
(288,344,o),
(235,366,o),
(171,366,cs),
(103,366,o),
(41,332,o),
(41,264,cs),
(41,211,o),
(87,186,o),
(131,169,cs),
(154,160,o),
(185,151,o),
(210,137,cs),
(224,129,o),
(231,121,o),
(231,108,cs),
(231,85,o),
(205,78,o),
(184,78,cs),
(132,78,o),
(83,109,o),
(58,132,c),
(19,56,l),
(64,24,o),
(115,0,o),
(188,1,cs)
);
},
{
closed = 1;
nodes = (
(603,3,o),
(650,26,o),
(679,65,c),
(628,124,l),
(605,98,o),
(580,84,o),
(549,84,cs),
(488,84,o),
(455,132,o),
(455,187,cs),
(455,242,o),
(487,287,o),
(546,287,cs),
(583,287,o),
(612,265,o),
(633,238,c),
(684,299,l),
(658,338,o),
(610,366,o),
(546,366,cs),
(441,366,o),
(367,294,o),
(367,180,cs),
(367,73,o),
(431,3,o),
(546,3,cs)
);
},
{
closed = 1;
nodes = (
(828,13,l),
(828,194,ls),
(828,244,o),
(865,280,o),
(914,280,cs),
(930,280,o),
(947,276,o),
(959,270,c),
(983,358,l),
(966,365,o),
(949,366,o),
(936,366,cs),
(883,366,o),
(836,336,o),
(814,294,c),
(838,272,l),
(819,363,l),
(739,363,l),
(739,13,l)
);
},
{
closed = 1;
nodes = (
(1137,13,l),
(1137,359,l),
(1045,359,l),
(1045,13,l)
);
},
{
closed = 1;
nodes = (
(1126,407,o),
(1148,433,o),
(1148,464,cs),
(1148,496,o),
(1125,521,o),
(1091,521,cs),
(1059,521,o),
(1035,497,o),
(1035,464,cs),
(1035,433,o),
(1057,407,o),
(1091,407,cs)
);
},
{
closed = 1;
nodes = (
(1350,79,o),
(1337,130,o),
(1337,188,cs),
(1337,244,o),
(1355,294,o),
(1401,293,cs),
(1448,292,o),
(1468,247,o),
(1468,186,cs),
(1468,129,o),
(1450,79,o),
(1401,79,cs)
);
},
{
closed = 1;
nodes = (
(1737,79,o),
(1726,130,o),
(1726,188,cs),
(1726,244,o),
(1740,294,o),
(1791,293,cs),
(1838,292,o),
(1856,248,o),
(1856,180,cs),
(1856,129,o),
(1838,79,o),
(1792,79,cs)
);
},
{
closed = 1;
nodes = (
(1914,3,o),
(1947,104,o),
(1947,194,cs),
(1947,290,o),
(1899,367,o),
(1804,367,cs),
(1774,367,o),
(1745,355,o),
(1726,341,c),
(1726,501,l),
(1639,501,l),
(1639,13,l),
(1700,13,l),
(1710,50,l),
(1730,13,o),
(1768,3,o),
(1801,3,cs)
);
},
{
closed = 1;
nodes = (
(2115,13,l),
(2115,501,l),
(2023,501,l),
(2023,13,l)
);
},
{
closed = 1;
nodes = (
(2416,3,o),
(2464,24,o),
(2496,66,c),
(2451,123,l),
(2431,100,o),
(2402,84,o),
(2363,84,cs),
(2311,84,o),
(2285,118,o),
(2278,160,c),
(2501,160,l),
(2502,175,o),
(2503,189,o),
(2503,197,cs),
(2503,295,o),
(2448,366,o),
(2356,366,cs),
(2252,366,o),
(2191,288,o),
(2191,180,cs),
(2191,73,o),
(2256,3,o),
(2364,3,cs)
);
},
{
closed = 1;
nodes = (
(2282,244,o),
(2292,266,o),
(2304,278,cs),
(2320,294,o),
(2352,308,o),
(2378,294,cs),
(2401,282,o),
(2415,259,o),
(2416,226,c),
(2282,226,l)
);
},
{
closed = 1;
nodes = (
(2666,-4,o),
(2687,21,o),
(2687,53,cs),
(2687,84,o),
(2663,109,o),
(2631,109,cs),
(2599,109,o),
(2574,86,o),
(2574,53,cs),
(2574,21,o),
(2597,-4,o),
(2631,-4,cs)
);
},
{
closed = 1;
nodes = (
(2664,157,l),
(2670,235,o),
(2683,439,o),
(2683,490,c),
(2581,489,l),
(2581,440,o),
(2592,245,o),
(2596,157,c)
);
}
);
width = 2697;
},
{
associatedMasterId = "B24528F6-199A-4A7E-931E-F430756048DC";
layerId = "4E7536EE-5272-4A04-941A-2078644F32B0";
name = "Aug 9 17, 21:08";
shapes = (
{
closed = 1;
nodes = (
(1514,3,o),
(1546,104,o),
(1546,194,cs),
(1546,290,o),
(1498,367,o),
(1404,367,cs),
(1374,367,o),
(1344,355,o),
(1326,341,c),
(1326,509,l),
(1237,509,l),
(1237,13,l),
(1300,13,l),
(1310,50,l),
(1331,13,o),
(1369,3,o),
(1401,3,cs)
);
},
{
closed = 1;
nodes = (
(279,2,o),
(316,53,o),
(316,107,cs),
(316,148,o),
(290,178,o),
(257,197,cs),
(231,212,o),
(196,222,o),
(172,230,cs),
(147,238,o),
(121,247,o),
(121,267,cs),
(121,283,o),
(135,292,o),
(164,292,cs),
(211,292,o),
(252,272,o),
(273,249,c),
(315,313,l),
(288,344,o),
(235,366,o),
(171,366,cs),
(103,366,o),
(41,332,o),
(41,264,cs),
(41,211,o),
(87,186,o),
(131,169,cs),
(154,160,o),
(185,151,o),
(210,137,cs),
(224,129,o),
(231,121,o),
(231,108,cs),
(231,85,o),
(205,78,o),
(184,78,cs),
(132,78,o),
(83,109,o),
(58,132,c),
(19,56,l),
(64,24,o),
(115,0,o),
(188,1,cs)
);
},
{
closed = 1;
nodes = (
(599,3,o),
(646,26,o),
(675,65,c),
(624,124,l),
(601,98,o),
(576,84,o),
(545,84,cs),
(484,84,o),
(451,132,o),
(451,187,cs),
(451,242,o),
(483,287,o),
(542,287,cs),
(579,287,o),
(608,265,o),
(629,238,c),
(680,299,l),
(654,338,o),
(606,366,o),
(542,366,cs),
(437,366,o),
(363,294,o),
(363,180,cs),
(363,73,o),
(427,3,o),
(542,3,cs)
);
},
{
closed = 1;
nodes = (
(824,13,l),
(824,194,ls),
(824,244,o),
(871,283,o),
(920,283,cs),
(936,283,o),
(953,278,o),
(965,270,c),
(989,358,l),
(972,365,o),
(955,366,o),
(942,366,cs),
(891,366,o),
(850,346,o),
(825,316,c),
(825,363,l),
(735,363,l),
(735,13,l)
);
},
{
closed = 1;
nodes = (
(1133,13,l),
(1133,359,l),
(1041,359,l),
(1041,13,l)
);
},
{
closed = 1;
nodes = (
(1122,407,o),
(1144,433,o),
(1144,464,cs),
(1144,496,o),
(1121,521,o),
(1087,521,cs),
(1055,521,o),
(1031,497,o),
(1031,464,cs),
(1031,433,o),
(1053,407,o),
(1087,407,cs)
);
},
{
closed = 1;
nodes = (
(1336,79,o),
(1324,130,o),
(1324,188,cs),
(1324,244,o),
(1341,294,o),
(1391,293,cs),
(1437,292,o),
(1455,248,o),
(1455,180,cs),
(1455,129,o),
(1437,79,o),
(1392,79,cs)
);
},
{
closed = 1;
nodes = (
(1724,79,o),
(1713,130,o),
(1713,188,cs),
(1713,244,o),
(1727,294,o),
(1778,293,cs),
(1825,292,o),
(1843,248,o),
(1843,180,cs),
(1843,129,o),
(1825,79,o),
(1779,79,cs)
);
},
{
closed = 1;
nodes = (
(1901,3,o),
(1934,104,o),
(1934,194,cs),
(1934,290,o),
(1886,367,o),
(1791,367,cs),
(1761,367,o),
(1732,355,o),
(1713,341,c),
(1713,509,l),
(1626,509,l),
(1626,13,l),
(1687,13,l),
(1697,50,l),
(1717,13,o),
(1755,3,o),
(1788,3,cs)
);
},
{
closed = 1;
nodes = (
(2095,13,l),
(2095,509,l),
(2003,509,l),
(2003,13,l)
);
},
{
closed = 1;
nodes = (
(2396,3,o),
(2444,24,o),
(2476,66,c),
(2431,123,l),
(2411,100,o),
(2382,84,o),
(2343,84,cs),
(2291,84,o),
(2265,118,o),
(2258,160,c),
(2481,160,l),
(2482,175,o),
(2483,189,o),
(2483,197,cs),
(2483,295,o),
(2428,366,o),
(2336,366,cs),
(2232,366,o),
(2171,288,o),
(2171,180,cs),
(2171,73,o),
(2236,3,o),
(2344,3,cs)
);
},
{
closed = 1;
nodes = (
(2262,244,o),
(2272,266,o),
(2284,278,cs),
(2300,294,o),
(2332,308,o),
(2358,294,cs),
(2381,282,o),
(2395,259,o),
(2396,226,c),
(2262,226,l)
);
},
{
closed = 1;
nodes = (
(2646,-4,o),
(2667,21,o),
(2667,53,cs),
(2667,84,o),
(2643,109,o),
(2611,109,cs),
(2579,109,o),
(2554,86,o),
(2554,53,cs),
(2554,21,o),
(2577,-4,o),
(2611,-4,cs)
);
},
{
closed = 1;
nodes = (
(2646,157,l),
(2652,235,o),
(2665,407,o),
(2665,458,cs),
(2665,487,o),
(2647,503,o),
(2614,503,cs),
(2574,503,o),
(2559,484,o),
(2559,457,c),
(2559,428,o),
(2570,245,o),
(2574,157,c)
);
}
);
width = 2697;
}
);
unicode = 57348;
},
{
glyphname = logo.colombore;
lastChange = "2017-08-06 08:35:16 +0000";
layers = (
{
layerId = "0EF112A6-69F8-47E9-9D72-C545F6D6A613";
shapes = (
{
closed = 1;
nodes = (
(2054,-8,l),
(2054,303,l),
(2142,345,o),
(2209,333,o),
(2209,196,cs),
(2209,-8,l),
(2345,-8,l),
(2345,302,ls),
(2345,349,o),
(2325,451,o),
(2204,451,cs),
(2131,451,o),
(2084,412,o),
(2041,370,c),
(2049,451,l),
(1832,421,l),
(1822,340,l),
(1914,322,l),
(1914,-8,l)
);
},
{
closed = 1;
nodes = (
(450,-21,o),
(507,18,o),
(507,18,c),
(491,95,l),
(470,88,o),
(434,77,o),
(395,77,cs),
(294,77,o),
(253,161,o),
(253,231,cs),
(253,298,o),
(290,355,o),
(350,355,cs),
(390,355,o),
(403,331,o),
(403,331,c),
(421,273,l),
(504,273,l),
(505,405,l),
(505,405,o),
(455,451,o),
(350,451,cs),
(197,451,o),
(100,342,o),
(100,204,cs),
(100,87,o),
(173,-21,o),
(348,-21,cs)
);
},
{
closed = 1;
nodes = (
(2100,-8,l),
(2109,53,l),
(2084,54,o),
(2054,62,o),
(2054,75,c),
(1914,113,l),
(1913,72,o),
(1864,57,o),
(1836,52,c),
(1826,-8,l)
);
},
{
closed = 1;
nodes = (
(2391,-8,l),
(2401,53,l),
(2375,54,o),
(2345,57,o),
(2345,75,c),
(2210,113,l),
(2210,72,o),
(2174,57,o),
(2148,52,c),
(2138,-8,l)
);
},
{
closed = 1;
nodes = (
(2687,-8,l),
(2697,53,l),
(2664,54,o),
(2627,57,o),
(2627,75,c),
(2491,113,l),
(2491,72,o),
(2459,57,o),
(2436,52,c),
(2425,-8,l)
);
},
{
closed = 1;
nodes = (
(2627,-8,l),
(2627,312,ls),
(2627,354,o),
(2605,455,o),
(2482,451,cs),
(2404,448,o),
(2355,412,o),
(2309,369,c),
(2322,303,l),
(2418,335,o),
(2491,325,o),
(2491,221,cs),
(2491,-8,l)
);
},
{
closed = 1;
nodes = (
(2886,25,l),
(2886,368,l),
(2871,379,l),
(2886,446,l),
(2889,521,l),
(2901,629,l),
(2672,613,l),
(2655,542,l),
(2741,516,l),
(2741,12,l)
);
},
{
closed = 1;
nodes = (
(3644,-23,o),
(3721,87,o),
(3721,220,cs),
(3721,342,o),
(3660,444,o),
(3503,444,cs),
(3340,444,o),
(3244,330,o),
(3244,196,cs),
(3244,77,o),
(3323,-23,o),
(3480,-23,cs)
);
},
{
closed = 1;
nodes = (
(3430,62,o),
(3393,150,o),
(3393,229,cs),
(3393,300,o),
(3421,358,o),
(3464,358,cs),
(3528,358,o),
(3568,273,o),
(3568,190,cs),
(3568,103,o),
(3530,62,o),
(3491,62,cs)
);
},
{
closed = 1;
nodes = (
(4054,-6,l),
(4064,54,l),
(4018,56,o),
(3969,61,o),
(3968,86,c),
(3967,87,l),
(3831,115,l),
(3831,73,o),
(3803,59,o),
(3780,54,c),
(3770,-6,l)
);
},
{
closed = 1;
nodes = (
(3968,-5,l),
(3968,313,l),
(3947,358,l),
(3953,441,l),
(3754,420,l),
(3737,345,l),
(3832,318,l),
(3828,191,o),
(3832,110,o),
(3832,-5,c)
);
},
{
closed = 1;
nodes = (
(4143,255,l),
(4177,431,l),
(4177,431,o),
(4156,441,o),
(4113,440,cs),
(3995,437,o),
(3911,321,o),
(3911,321,c),
(3927,282,l),
(4043,315,l),
(4060,292,o),
(4075,271,o),
(4089,243,c)
);
},
{
closed = 1;
nodes = (
(4494,-19,o),
(4556,4,o),
(4604,45,c),
(4579,104,l),
(4549,92,o),
(4509,80,o),
(4463,80,cs),
(4347,80,o),
(4324,178,o),
(4324,251,cs),
(4324,307,o),
(4340,372,o),
(4400,372,cs),
(4455,372,o),
(4478,315,o),
(4478,263,c),
(4276,265,l),
(4273,200,o),
(4269,185,o),
(4269,185,c),
(4604,185,l),
(4623,282,o),
(4600,451,o),
(4409,451,cs),
(4264,451,o),
(4186,339,o),
(4186,208,cs),
(4186,92,o),
(4244,-19,o),
(4414,-19,cs)
);
},
{
closed = 1;
nodes = (
(1246,518,l),
(1261,626,l),
(1028,610,l),
(1011,540,l),
(1097,514,l),
(1097,113,ls),
(1097,70,o),
(1054,57,o),
(1029,52,c),
(1019,-8,l),
(1308,-8,l),
(1319,53,l),
(1286,54,o),
(1246,66,o),
(1246,86,cs)
);
},
{
closed = 1;
nodes = (
(2741,12,l),
(2751,6,o),
(2824,-20,o),
(2955,-20,cs),
(3080,-20,o),
(3200,46,o),
(3200,223,cs),
(3200,385,o),
(3106,451,o),
(2998,451,cs),
(2924,451,o),
(2845,400,o),
(2814,358,c),
(2821,301,l),
(2853,316,o),
(2896,341,o),
(2946,341,cs),
(3031,341,o),
(3047,255,o),
(3047,208,cs),
(3047,172,o),
(3044,62,o),
(2955,62,cs),
(2868,62,o),
(2841,140,o),
(2814,179,c)
);
},
{
closed = 1;
nodes = (
(1721,-23,o),
(1796,87,o),
(1796,220,cs),
(1796,342,o),
(1735,444,o),
(1578,444,cs),
(1415,444,o),
(1323,330,o),
(1323,196,cs),
(1323,77,o),
(1400,-23,o),
(1557,-23,cs)
);
},
{
closed = 1;
nodes = (
(1505,62,o),
(1472,150,o),
(1472,229,cs),
(1472,300,o),
(1500,358,o),
(1543,358,cs),
(1603,358,o),
(1643,273,o),
(1643,190,cs),
(1643,103,o),
(1605,62,o),
(1566,62,cs)
);
},
{
closed = 1;
nodes = (
(947,-23,o),
(1022,87,o),
(1022,220,cs),
(1022,342,o),
(961,444,o),
(804,444,cs),
(641,444,o),
(549,330,o),
(549,196,cs),
(549,77,o),
(626,-23,o),
(783,-23,cs)
);
},
{
closed = 1;
nodes = (
(731,62,o),
(698,150,o),
(698,229,cs),
(698,300,o),
(726,358,o),
(769,358,cs),
(829,358,o),
(869,273,o),
(869,190,cs),
(869,103,o),
(831,62,o),
(792,62,cs)
);
}
);
width = 4710;
},
{
layerId = "B24528F6-199A-4A7E-931E-F430756048DC";
shapes = (
{
closed = 1;
nodes = (
(2054,-8,l),
(2054,303,l),
(2142,345,o),
(2209,333,o),
(2209,196,cs),
(2209,-8,l),
(2345,-8,l),
(2345,302,ls),
(2345,349,o),
(2325,451,o),
(2204,451,cs),
(2131,451,o),
(2084,412,o),
(2041,370,c),
(2049,451,l),
(1832,421,l),
(1822,340,l),
(1914,322,l),
(1914,-8,l)
);
},
{
closed = 1;
nodes = (
(450,-21,o),
(507,18,o),
(507,18,c),
(491,95,l),
(470,88,o),
(434,77,o),
(395,77,cs),
(294,77,o),
(253,161,o),
(253,231,cs),
(253,298,o),
(290,355,o),
(350,355,cs),
(390,355,o),
(403,331,o),
(403,331,c),
(421,273,l),
(504,273,l),
(505,405,l),
(505,405,o),
(455,451,o),
(350,451,cs),
(197,451,o),
(100,342,o),
(100,204,cs),
(100,87,o),
(173,-21,o),
(348,-21,cs)
);
},
{
closed = 1;
nodes = (
(2100,-8,l),
(2109,53,l),
(2084,54,o),
(2054,62,o),
(2054,75,c),
(1914,113,l),
(1913,72,o),
(1864,57,o),
(1836,52,c),
(1826,-8,l)
);
},
{
closed = 1;
nodes = (
(2391,-8,l),
(2401,53,l),
(2375,54,o),
(2345,57,o),
(2345,75,c),
(2210,113,l),
(2210,72,o),
(2174,57,o),
(2148,52,c),
(2138,-8,l)
);
},
{
closed = 1;
nodes = (
(2687,-8,l),
(2697,53,l),
(2664,54,o),
(2627,57,o),
(2627,75,c),
(2491,113,l),
(2491,72,o),
(2459,57,o),
(2436,52,c),
(2425,-8,l)
);
},
{
closed = 1;
nodes = (
(2627,-8,l),
(2627,312,ls),
(2627,354,o),
(2605,455,o),
(2482,451,cs),
(2404,448,o),
(2355,412,o),
(2309,369,c),
(2322,303,l),
(2418,335,o),
(2491,325,o),
(2491,221,cs),
(2491,-8,l)
);
},
{
closed = 1;
nodes = (
(2886,25,l),
(2886,368,l),
(2871,379,l),
(2886,446,l),
(2889,521,l),
(2901,629,l),
(2672,613,l),
(2655,542,l),
(2741,516,l),
(2741,12,l)
);
},
{
closed = 1;
nodes = (
(3644,-23,o),
(3721,87,o),
(3721,220,cs),
(3721,342,o),
(3660,444,o),
(3503,444,cs),
(3340,444,o),
(3244,330,o),
(3244,196,cs),
(3244,77,o),
(3323,-23,o),
(3480,-23,cs)
);
},
{
closed = 1;
nodes = (
(3430,62,o),
(3393,150,o),
(3393,229,cs),
(3393,300,o),
(3421,358,o),
(3464,358,cs),
(3528,358,o),
(3568,273,o),
(3568,190,cs),
(3568,103,o),
(3530,62,o),
(3491,62,cs)
);
},
{
closed = 1;
nodes = (
(4054,-6,l),
(4064,54,l),
(4018,56,o),
(3969,61,o),
(3968,86,c),
(3967,87,l),
(3831,115,l),
(3831,73,o),
(3803,59,o),
(3780,54,c),
(3770,-6,l)
);
},
{
closed = 1;
nodes = (
(3968,-5,l),
(3968,313,l),
(3947,358,l),
(3953,441,l),
(3754,420,l),
(3737,345,l),
(3832,318,l),
(3828,191,o),
(3832,110,o),
(3832,-5,c)
);
},
{
closed = 1;
nodes = (
(4143,255,l),
(4177,431,l),
(4177,431,o),
(4156,441,o),
(4113,440,cs),
(3995,437,o),
(3911,321,o),
(3911,321,c),
(3927,282,l),
(4043,315,l),
(4060,292,o),
(4075,271,o),
(4089,243,c)
);
},
{
closed = 1;
nodes = (
(4494,-19,o),
(4556,4,o),
(4604,45,c),
(4579,104,l),
(4549,92,o),
(4509,80,o),
(4463,80,cs),
(4347,80,o),
(4324,178,o),
(4324,251,cs),
(4324,307,o),
(4340,372,o),
(4400,372,cs),
(4455,372,o),
(4478,315,o),
(4478,263,c),
(4276,265,l),
(4273,200,o),
(4269,185,o),
(4269,185,c),
(4604,185,l),
(4623,282,o),
(4600,451,o),
(4409,451,cs),
(4264,451,o),
(4186,339,o),
(4186,208,cs),
(4186,92,o),
(4244,-19,o),
(4414,-19,cs)
);
},
{
closed = 1;
nodes = (
(1246,518,l),
(1261,626,l),
(1028,610,l),
(1011,540,l),
(1097,514,l),
(1097,113,ls),
(1097,70,o),
(1054,57,o),
(1029,52,c),
(1019,-8,l),
(1308,-8,l),
(1319,53,l),
(1286,54,o),
(1246,66,o),
(1246,86,cs)
);
},
{
closed = 1;
nodes = (
(2741,12,l),
(2751,6,o),
(2824,-20,o),
(2955,-20,cs),
(3080,-20,o),
(3200,46,o),
(3200,223,cs),
(3200,385,o),
(3106,451,o),
(2998,451,cs),
(2924,451,o),
(2845,400,o),
(2814,358,c),
(2821,301,l),
(2853,316,o),
(2896,341,o),
(2946,341,cs),
(3031,341,o),
(3047,255,o),
(3047,208,cs),
(3047,172,o),
(3044,62,o),
(2955,62,cs),
(2868,62,o),
(2841,140,o),
(2814,179,c)
);
},
{
closed = 1;
nodes = (
(1721,-23,o),
(1796,87,o),
(1796,220,cs),
(1796,342,o),
(1735,444,o),
(1578,444,cs),
(1415,444,o),
(1323,330,o),
(1323,196,cs),
(1323,77,o),
(1400,-23,o),
(1557,-23,cs)
);
},
{
closed = 1;
nodes = (
(1505,62,o),
(1472,150,o),
(1472,229,cs),
(1472,300,o),
(1500,358,o),
(1543,358,cs),
(1603,358,o),
(1643,273,o),
(1643,190,cs),
(1643,103,o),
(1605,62,o),
(1566,62,cs)
);
},
{
closed = 1;
nodes = (
(947,-23,o),
(1022,87,o),
(1022,220,cs),
(1022,342,o),
(961,444,o),
(804,444,cs),
(641,444,o),
(549,330,o),
(549,196,cs),
(549,77,o),
(626,-23,o),
(783,-23,cs)
);
},
{
closed = 1;
nodes = (
(731,62,o),
(698,150,o),
(698,229,cs),
(698,300,o),
(726,358,o),
(769,358,cs),
(829,358,o),
(869,273,o),
(869,190,cs),
(869,103,o),
(831,62,o),
(792,62,cs)
);
}
);
width = 4710;
}
);
unicode = 57349;
},
{
glyphname = logo.sense;
lastChange = "2018-06-19 04:16:58 +0000";
layers = (
{
layerId = "0EF112A6-69F8-47E9-9D72-C545F6D6A613";
shapes = (
{
closed = 1;
nodes = (
(289,488,o),
(262,521,o),
(262,573,c),
(262,595,l),
(262,676,o),
(315,720,o),
(377,720,c),
(442,720,o),
(493,667,o),
(493,603,c),
(493,559,l),
(446,559,l),
(446,603,l),
(446,641,o),
(417,673,o),
(377,673,c),
(339,673,o),
(309,649,o),
(309,593,c),
(309,573,l),
(309,538,o),
(325,519,o),
(325,519,c),
(464,353,l),
(464,353,o),
(493,319,o),
(493,264,c),
(493,228,l),
(493,153,o),
(442,102,o),
(377,102,c),
(305,102,o),
(262,153,o),
(262,228,c),
(262,275,l),
(309,275,l),
(309,228,l),
(309,180,o),
(339,148,o),
(377,148,c),
(417,148,o),
(446,180,o),
(446,228,c),
(446,264,l),
(446,302,o),
(420,330,o),
(420,330,c),
(289,488,l)
);
},
{
closed = 1;
nodes = (
(693,434,l),
(812,434,l),
(812,386,l),
(693,386,l),
(693,157,l),
(846,157,l),
(846,110,l),
(646,110,l),
(646,710,l),
(839,710,l),
(839,664,l),
(693,664,l)
);
},
{
closed = 1;
nodes = (
(1060,652,l),
(1195,50,l),
(1195,50,l),
(1194,588,l),
(1236,563,l),
(1235,-46,l),
(1168,4,l),
(1024,629,l),
(1023,629,l),
(1022,78,l),
(983,106,l),
(985,693,l)
);
},
{
closed = 1;
nodes = (
(1798,245,l),
(1918,245,l),
(1918,199,l),
(1798,199,l),
(1798,-33,l),
(1949,-33,l),
(1949,-77,l),
(1751,-77,l),
(1751,522,l),
(1943,522,l),
(1943,476,l),
(1798,476,l)
);
},
{
closed = 1;
nodes = (
(1987,683,l),
(1297,686,l),
(984,887,l),
(202,891,l),
(202,856,l),
(969,858,l),
(1285,651,l),
(1987,650,l)
);
},
{
closed = 1;
nodes = (
(1974,-209,l),
(1230,-206,l),
(918,-5,l),
(219,-2,l),
(219,-37,l),
(902,-35,l),
(1217,-242,l),
(1974,-242,l)
);
},
{
closed = 1;
nodes = (
(1405,300,o),
(1378,333,o),
(1378,385,c),
(1378,407,l),
(1378,488,o),
(1431,532,o),
(1493,532,c),
(1558,532,o),
(1609,479,o),
(1609,415,c),
(1609,371,l),
(1562,371,l),
(1562,415,l),
(1562,453,o),
(1533,485,o),
(1493,485,c),
(1455,485,o),
(1425,461,o),
(1425,405,c),
(1425,385,l),
(1425,350,o),
(1441,331,o),
(1441,331,c),
(1582,164,l),
(1582,164,o),
(1609,131,o),
(1609,76,c),
(1609,40,l),
(1609,-35,o),
(1558,-86,o),
(1493,-86,c),
(1421,-86,o),
(1378,-35,o),
(1378,40,c),
(1378,87,l),
(1425,87,l),
(1425,40,l),
(1425,-8,o),
(1455,-40,o),
(1493,-40,c),
(1533,-40,o),
(1562,-8,o),
(1562,40,c),
(1562,76,l),
(1562,114,o),
(1546,132,o),
(1546,132,c),
(1405,300,l)
);
}
);
width = 2338;
},
{
layerId = "B24528F6-199A-4A7E-931E-F430756048DC";
shapes = (
{
closed = 1;
nodes = (
(289,488,o),
(262,521,o),
(262,573,c),
(262,595,l),
(262,676,o),
(315,720,o),
(377,720,c),
(442,720,o),
(493,667,o),
(493,603,c),
(493,559,l),
(446,559,l),
(446,603,l),
(446,641,o),
(417,673,o),
(377,673,c),
(339,673,o),
(309,649,o),
(309,593,c),
(309,573,l),
(309,538,o),
(325,519,o),
(325,519,c),
(464,353,l),
(464,353,o),
(493,319,o),
(493,264,c),
(493,228,l),
(493,153,o),
(442,102,o),
(377,102,c),
(305,102,o),
(262,153,o),
(262,228,c),
(262,275,l),
(309,275,l),
(309,228,l),
(309,180,o),
(339,148,o),
(377,148,c),
(417,148,o),
(446,180,o),
(446,228,c),
(446,264,l),
(446,302,o),
(420,330,o),
(420,330,c),
(289,488,l)
);
},
{
closed = 1;
nodes = (
(693,434,l),
(812,434,l),
(812,386,l),
(693,386,l),
(693,157,l),
(846,157,l),
(846,110,l),
(646,110,l),
(646,710,l),
(839,710,l),
(839,664,l),
(693,664,l)
);
},
{
closed = 1;
nodes = (
(1060,652,l),
(1195,50,l),
(1195,50,l),
(1194,588,l),
(1236,563,l),
(1235,-46,l),
(1168,4,l),
(1024,629,l),
(1023,629,l),
(1022,78,l),
(983,106,l),
(985,693,l)
);
},
{
closed = 1;
nodes = (
(1798,245,l),
(1918,245,l),
(1918,199,l),
(1798,199,l),
(1798,-33,l),
(1949,-33,l),
(1949,-77,l),
(1751,-77,l),
(1751,522,l),
(1943,522,l),
(1943,476,l),
(1798,476,l)
);
},
{
closed = 1;
nodes = (
(1987,683,l),
(1297,686,l),
(984,887,l),
(202,891,l),
(202,856,l),
(969,858,l),
(1285,651,l),
(1987,650,l)
);
},
{
closed = 1;
nodes = (
(1974,-209,l),
(1230,-206,l),
(918,-5,l),
(219,-2,l),
(219,-37,l),
(902,-35,l),
(1217,-242,l),
(1974,-242,l)
);
},
{
closed = 1;
nodes = (
(1405,300,o),
(1378,333,o),
(1378,385,c),
(1378,407,l),
(1378,488,o),
(1431,532,o),
(1493,532,c),
(1558,532,o),
(1609,479,o),
(1609,415,c),
(1609,371,l),
(1562,371,l),
(1562,415,l),
(1562,453,o),
(1533,485,o),
(1493,485,c),
(1455,485,o),
(1425,461,o),
(1425,405,c),
(1425,385,l),
(1425,350,o),
(1441,331,o),
(1441,331,c),
(1582,164,l),
(1582,164,o),
(1609,131,o),
(1609,76,c),
(1609,40,l),
(1609,-35,o),
(1558,-86,o),
(1493,-86,c),
(1421,-86,o),
(1378,-35,o),
(1378,40,c),
(1378,87,l),
(1425,87,l),
(1425,40,l),
(1425,-8,o),
(1455,-40,o),
(1493,-40,c),
(1533,-40,o),
(1562,-8,o),
(1562,40,c),
(1562,76,l),
(1562,114,o),
(1546,132,o),
(1546,132,c),
(1405,300,l)
);
}
);
width = 2338;
}
);
unicode = 57350;
},
{
glyphname = logo.scribble;
lastChange = "2017-08-06 08:35:16 +0000";
layers = (
{
layerId = "0EF112A6-69F8-47E9-9D72-C545F6D6A613";
shapes = (
{
closed = 1;
nodes = (
(50,-304,l),
(4270,-304,l),
(4270,810,l),
(50,810,l)
);
},
{
closed = 1;
nodes = (
(4169,710,l),
(4169,-201,l),
(149,-201,l),
(149,710,l)
);
},
{
pos = (1305,0);
ref = logo.scribbletext;
},
{
pos = (105,-42);
ref = logo.scribblehand;
scale = (0.983,0.983);
}
);
width = 4320;
},
{
layerId = "B24528F6-199A-4A7E-931E-F430756048DC";
shapes = (
{
closed = 1;
nodes = (
(50,-304,l),
(4270,-304,l),
(4270,810,l),
(50,810,l)
);
},
{
closed = 1;
nodes = (
(4169,710,l),
(4169,-201,l),
(149,-201,l),
(149,710,l)
);
},
{
pos = (1305,0);
ref = logo.scribbletext;
},
{
pos = (105,-42);
ref = logo.scribblehand;
scale = (0.983,0.983);
}
);
width = 4320;
}
);
unicode = 57351;
},
{
glyphname = mush;
lastChange = "2017-08-06 08:35:16 +0000";
layers = (
{
layerId = "0EF112A6-69F8-47E9-9D72-C545F6D6A613";
shapes = (
{
closed = 1;
nodes = (
(489,577,l),
(481,577,o),
(472,571,o),
(472,556,c),
(472,380,l),
(472,376,o),
(468,372,o),
(464,372,c),
(459,372,o),
(456,376,o),
(456,380,c),
(456,554,l),
(456,569,o),
(450,577,o),
(439,577,c),
(346,577,l),
(333,577,o),
(323,568,o),
(323,554,c),
(323,318,l),
(323,306,o),
(333,295,o),
(346,295,c),
(581,295,l),
(594,295,o),
(605,306,o),
(605,318,c),
(605,554,l),
(605,568,o),
(594,577,o),
(581,577,c)
);
},
{
closed = 1;
nodes = (
(200,577,l),
(186,577,o),
(183,571,o),
(173,554,c),
(164,569,o),
(160,577,o),
(149,577,c),
(51,577,l),
(39,577,o),
(29,568,o),
(29,554,c),
(29,318,l),
(29,306,o),
(39,295,o),
(51,295,c),
(91,295,l),
(105,295,o),
(109,303,o),
(109,315,c),
(109,464,l),
(109,469,o),
(113,472,o),
(117,472,c),
(121,472,o),
(125,469,o),
(125,464,c),
(125,315,l),
(125,305,o),
(132,295,o),
(142,295,c),
(198,295,l),
(213,295,o),
(217,302,o),
(217,315,c),
(217,464,l),
(217,469,o),
(220,472,o),
(225,472,c),
(229,472,o),
(233,469,o),
(233,464,c),
(233,315,l),
(233,305,o),
(242,295,o),
(252,295,c),
(290,295,l),
(303,295,o),
(310,306,o),
(310,318,c),
(310,554,l),
(310,568,o),
(300,577,o),
(287,577,c)
);
},
{
closed = 1;
nodes = (
(489,281,l),
(475,281,o),
(472,271,o),
(472,261,c),
(472,188,l),
(472,183,o),
(468,180,o),
(464,180,c),
(459,180,o),
(456,183,o),
(456,188,c),
(456,261,l),
(456,271,o),
(450,281,o),
(441,281,c),
(346,281,l),
(333,281,o),
(323,271,o),
(323,258,c),
(323,23,l),
(323,10,o),
(333,0,o),
(346,0,c),
(438,0,l),
(454,0,o),
(456,9,o),
(456,18,c),
(456,87,l),
(456,91,o),
(459,95,o),
(464,95,c),
(468,95,o),
(472,91,o),
(472,87,c),
(472,19,l),
(472,4,o),
(480,0,o),
(492,0,c),
(581,0,l),
(594,0,o),
(605,10,o),
(605,23,c),
(605,258,l),
(605,271,o),
(594,281,o),
(581,281,c)
);
},
{
closed = 1;
nodes = (
(174,203,l),
(171,206,o),
(169,212,o),
(173,216,c),
(176,219,o),
(182,218,o),
(185,215,c),
(254,145,l),
(265,134,o),
(272,125,o),
(282,125,c),
(301,125,l),
(309,125,o),
(310,131,o),
(310,138,c),
(310,258,l),
(310,271,o),
(300,281,o),
(287,281,c),
(51,281,l),
(39,281,o),
(29,271,o),
(29,258,c),
(29,222,l),
(29,210,o),
(36,205,o),
(39,202,c),
(160,78,l),
(163,75,o),
(164,69,o),
(161,66,c),
(158,63,o),
(152,64,o),
(149,67,c),
(79,137,l),
(69,147,o),
(63,154,o),
(54,154,c),
(39,154,l),
(31,154,o),
(29,150,o),
(29,143,c),
(29,23,l),
(29,10,o),
(39,0,o),
(51,0,c),
(287,0,l),
(300,0,o),
(310,10,o),
(310,23,c),
(310,51,l),
(310,65,o),
(303,72,o),
(296,80,c)
);
}
);
width = 635;
},
{
layerId = "B24528F6-199A-4A7E-931E-F430756048DC";
shapes = (
{
closed = 1;
nodes = (
(489,577,l),
(481,577,o),
(472,571,o),
(472,556,c),
(472,380,l),
(472,376,o),
(468,372,o),
(464,372,c),
(459,372,o),
(456,376,o),
(456,380,c),
(456,554,l),
(456,569,o),
(450,577,o),
(439,577,c),
(346,577,l),
(333,577,o),
(323,568,o),
(323,554,c),
(323,318,l),
(323,306,o),
(333,295,o),
(346,295,c),
(581,295,l),
(594,295,o),
(605,306,o),
(605,318,c),
(605,554,l),
(605,568,o),
(594,577,o),
(581,577,c)
);
},
{
closed = 1;
nodes = (
(200,577,l),
(186,577,o),
(183,571,o),
(173,554,c),
(164,569,o),
(160,577,o),
(149,577,c),
(51,577,l),
(39,577,o),
(29,568,o),
(29,554,c),
(29,318,l),
(29,306,o),
(39,295,o),
(51,295,c),
(91,295,l),
(105,295,o),
(109,303,o),
(109,315,c),
(109,464,l),
(109,469,o),
(113,472,o),
(117,472,c),
(121,472,o),
(125,469,o),
(125,464,c),
(125,315,l),
(125,305,o),
(132,295,o),
(142,295,c),
(198,295,l),
(213,295,o),
(217,302,o),
(217,315,c),
(217,464,l),
(217,469,o),
(220,472,o),
(225,472,c),
(229,472,o),
(233,469,o),
(233,464,c),
(233,315,l),
(233,305,o),
(242,295,o),
(252,295,c),
(290,295,l),
(303,295,o),
(310,306,o),
(310,318,c),
(310,554,l),
(310,568,o),
(300,577,o),
(287,577,c)
);
},
{
closed = 1;
nodes = (
(489,281,l),
(475,281,o),
(472,271,o),
(472,261,c),
(472,188,l),
(472,183,o),
(468,180,o),
(464,180,c),
(459,180,o),
(456,183,o),
(456,188,c),
(456,261,l),
(456,271,o),
(450,281,o),
(441,281,c),
(346,281,l),
(333,281,o),
(323,271,o),
(323,258,c),
(323,23,l),
(323,10,o),
(333,0,o),
(346,0,c),
(438,0,l),
(454,0,o),
(456,9,o),
(456,18,c),
(456,87,l),
(456,91,o),
(459,95,o),
(464,95,c),
(468,95,o),
(472,91,o),
(472,87,c),
(472,19,l),
(472,4,o),
(480,0,o),
(492,0,c),
(581,0,l),
(594,0,o),
(605,10,o),
(605,23,c),
(605,258,l),
(605,271,o),
(594,281,o),
(581,281,c)
);
},
{
closed = 1;
nodes = (
(174,203,l),
(171,206,o),
(169,212,o),
(173,216,c),
(176,219,o),
(182,218,o),
(185,215,c),
(254,145,l),
(265,134,o),
(272,125,o),
(282,125,c),
(301,125,l),
(309,125,o),
(310,131,o),
(310,138,c),
(310,258,l),
(310,271,o),
(300,281,o),
(287,281,c),
(51,281,l),
(39,281,o),
(29,271,o),
(29,258,c),
(29,222,l),
(29,210,o),
(36,205,o),
(39,202,c),
(160,78,l),
(163,75,o),
(164,69,o),
(161,66,c),
(158,63,o),
(152,64,o),
(149,67,c),
(79,137,l),
(69,147,o),
(63,154,o),
(54,154,c),
(39,154,l),
(31,154,o),
(29,150,o),
(29,143,c),
(29,23,l),
(29,10,o),
(39,0,o),
(51,0,c),
(287,0,l),
(300,0,o),
(310,10,o),
(310,23,c),
(310,51,l),
(310,65,o),
(303,72,o),
(296,80,c)
);
}
);
width = 635;
}
);
},
{
glyphname = sin_K;
lastChange = "2023-10-18 21:06:05 +0000";
layers = (
{
layerId = "B24528F6-199A-4A7E-931E-F430756048DC";
shapes = (
{
pos = (-2,0);
ref = sin_KA;
},
{
closed = 1;
nodes = (
(592,476,l),
(704,384,l),
(704,670,l),
(592,670,l)
);
}
);
width = 808;
},
{
layerId = "0EF112A6-69F8-47E9-9D72-C545F6D6A613";
width = 600;
}
);
},
{
glyphname = sin_KA;
lastChange = "2023-10-18 21:03:05 +0000";
layers = (
{
background = {
shapes = (
{
closed = 0;
nodes = (
(504,390,ls),
(601,390,o),
(647,318,o),
(647,230,cs),
(647,121,o),
(604,104,o),
(539,83,c),
(570,-2,l),
(642,4,o),
(761,35,o),
(761,230,cs),
(761,395,o),
(674,497,o),
(512,497,cs)
);
},
{
closed = 1;
nodes = (
(102,367,l),
(129,383,o),
(159,403,o),
(192,403,cs),
(227,403,o),
(242,375,o),
(286,296,c),
(295,276,l),
(339,182,l),
(410,223,l),
(362,332,l),
(342,362,l),
(300,464,o),
(271,495,o),
(201,495,cs),
(140,495,o),
(88,455,o),
(61,436,c)
);
}
);
};
layerId = "B24528F6-199A-4A7E-931E-F430756048DC";
shapes = (
{
closed = 1;
nodes = (
(492,-8,o),
(540,43,o),
(540,137,cs),
(540,264,o),
(457,289,o),
(353,290,c),
(320,222,l),
(389,215,o),
(440,213,o),
(440,150,cs),
(440,117,o),
(428,96,o),
(396,96,cs),
(355,96,o),
(342,130,o),
(342,171,c),
(263,171,l),
(264,135,o),
(260,96,o),
(220,96,cs),
(180,96,o),
(163,127,o),
(178,226,c),
(102,171,l),
(101,158,o),
(91,143,o),
(91,129,c),
(85,67,o),
(118,-8,o),
(215,-8,cs),
(280,-8,o),
(310,29,o),
(312,72,c),
(297,72,l),
(298,43,o),
(334,-8,o),
(413,-8,cs)
);
},
{
closed = 1;
nodes = (
(326,317,o),
(327,318,o),
(353,332,cs),
(400,357,o),
(442,390,o),
(513,390,cs),
(599,390,o),
(657,341,o),
(657,213,cs),
(657,138,o),
(637,99,o),
(569,83,c),
(595,-1,l),
(678,3,o),
(771,42,o),
(771,219,cs),
(771,405,o),
(669,497,o),
(530,497,cs),
(431,497,o),
(365,451,o),
(289,391,c),
(257,377,l),
(35,202,l),
(42,134,l),
(98,134,l),
(129,164,l),
(306,302,l)
);
},
{
closed = 1;
nodes = (
(102,367,l),
(129,383,o),
(159,403,o),
(192,403,cs),
(227,403,o),
(242,375,o),
(270,326,c),
(285,297,l),
(320,222,l),
(402,243,l),
(353,352,l),
(342,362,l),
(302,460,o),
(271,495,o),
(205,495,cs),
(143,495,o),
(101,464,o),
(61,436,c)
);
}
);
width = 795;
},
{
layerId = "0EF112A6-69F8-47E9-9D72-C545F6D6A613";
width = 600;
},
{
associatedMasterId = "B24528F6-199A-4A7E-931E-F430756048DC";
background = {
shapes = (
{
closed = 1;
nodes = (
(542,-1,o),
(584,86,o),
(584,161,cs),
(584,261,o),
(509,317,o),
(419,317,c),
(395,318,l),
(344,240,l),
(390,240,l),
(458,240,o),
(490,199,o),
(490,159,cs),
(490,117,o),
(472,95,o),
(444,95,cs),
(396,95,o),
(385,135,o),
(384,184,c),
(305,184,l),
(305,135,o),
(295,93,o),
(263,93,cs),
(235,93,o),
(219,111,o),
(219,157,c),
(220,203,l),
(126,205,l),
(125,144,l),
(125,60,o),
(160,-2,o),
(249,-2,cs),
(317,-2,o),
(358,47,o),
(359,96,c),
(334,96,l),
(334,47,o),
(377,-1,o),
(448,-1,cs)
);
},
{
closed = 1;
nodes = (
(120,362,l),
(147,381,o),
(175,400,o),
(210,400,cs),
(255,400,o),
(273,359,o),
(300,316,c),
(344,240,l),
(435,264,l),
(380,352,l),
(350,372,l),
(350,447,o),
(294,496,o),
(222,496,cs),
(151,496,o),
(101,459,o),
(75,441,c)
);
},
{
closed = 1;
nodes = (
(638,-2,l),
(736,28,o),
(815,115,o),
(815,257,cs),
(815,396,o),
(715,493,o),
(555,493,cs),
(469,493,o),
(400,454,o),
(351,423,c),
(307,395,l),
(18,201,l),
(75,117,l),
(341,298,l),
(372,320,l),
(436,364,o),
(490,389,o),
(559,389,cs),
(637,389,o),
(707,334,o),
(707,253,cs),
(707,182,o),
(686,126,o),
(605,96,c)
);
}
);
};
layerId = "A6815B8C-EDC8-46EC-9603-111E5A9C15C9";
name = "18 Oct 23 at 23:24";
shapes = (
{
closed = 1;
nodes = (
(121,364,l),
(148,377,o),
(174,394,o),
(212,394,cs),
(246,394,o),
(302,373,o),
(302,303,c),
(343,222,l),
(427,228,l),
(381,351,l),
(374,361,l),
(374,437,o),
(306,496,o),
(226,496,cs),
(171,496,o),
(117,463,o),
(84,436,c)
);
},
{
closed = 1;
nodes = (
(467,-8,o),
(520,61,o),
(520,151,cs),
(520,267,o),
(421,308,o),
(353,300,c),
(343,222,l),
(391,223,o),
(420,183,o),
(420,148,cs),
(420,116,o),
(407,96,o),
(380,96,cs),
(335,96,o),
(329,136,o),
(328,171,c),
(253,171,l),
(253,133,o),
(247,95,o),
(214,96,cs),
(172,97,o),
(174,146,o),
(176,206,c),
(102,171,l),
(101,158,o),
(91,143,o),
(91,129,c),
(95,64,o),
(115,-8,o),
(209,-8,cs),
(273,-8,o),
(301,32,o),
(302,72,c),
(287,72,l),
(287,39,o),
(317,-8,o),
(392,-8,cs)
);
},
{
closed = 1;
nodes = (
(326,317,o),
(327,318,o),
(353,332,cs),
(406,360,o),
(447,386,o),
(511,386,cs),
(602,386,o),
(643,311,o),
(643,236,cs),
(643,122,o),
(588,92,o),
(524,88,c),
(540,-11,l),
(663,-4,o),
(765,84,o),
(765,245,cs),
(765,372,o),
(669,496,o),
(521,496,cs),
(403,496,o),
(300,410,o),
(228,360,c),
(35,202,l),
(42,134,l),
(98,134,l),
(306,302,l)
);
}
);
width = 795;
}
);
},
{
glyphname = sin_MA;
lastChange = "2023-10-18 16:32:00 +0000";
layers = (
{
layerId = "B24528F6-199A-4A7E-931E-F430756048DC";
shapes = (
{
closed = 1;
nodes = (
(233,540,o),
(177,521,o),
(122,496,c),
(85,578,l),
(133,606,o),
(215,644,o),
(303,644,cs),
(522,644,o),
(617,496,o),
(617,320,cs),
(617,113,o),
(502,-10,o),
(321,-10,cs),
(187,-10,o),
(39,66,o),
(39,262,cs),
(39,381,o),
(108,471,o),
(224,432,cs),
(248,424,o),
(289,408,o),
(302,398,c),
(299,364,o),
(280,269,o),
(318,269,cs),
(366,269,o),
(358,359,o),
(336,423,c),
(430,433,l),
(446,398,o),
(455,359,o),
(454,322,cs),
(452,242,o),
(414,169,o),
(325,169,cs),
(224,169,o),
(184,249,o),
(206,372,c),
(230,343,l),
(220,349,o),
(204,359,o),
(185,359,cs),
(157,359,o),
(146,314,o),
(146,268,cs),
(146,172,o),
(223,102,o),
(326,102,cs),
(423,102,o),
(510,160,o),
(510,322,cs),
(510,471,o),
(425,540,o),
(293,540,cs)
);
}
);
width = 656;
},
{
layerId = "0EF112A6-69F8-47E9-9D72-C545F6D6A613";
width = 600;
}
);
},
{
glyphname = sin_MUu;
lastChange = "2023-10-18 16:32:07 +0000";
layers = (
{
layerId = "B24528F6-199A-4A7E-931E-F430756048DC";
shapes = (
{
closed = 1;
nodes = (
(611,103,o),
(611,-52,o),
(614,-207,c),
(508,-207,l),
(508,-88,o),
(505,32,o),
(505,151,c),
(611,258,l)
);
},
{
closed = 1;
nodes = (
(488,-178,o),
(449,-158,o),
(401,-158,cs),
(328,-158,o),
(306,-214,o),
(212,-214,cs),
(144,-214,o),
(82,-166,o),
(64,-108,c),
(130,-63,l),
(152,-97,o),
(182,-112,o),
(213,-112,cs),
(263,-112,o),
(314,-55,o),
(394,-55,cs),
(450,-55,o),
(507,-82,o),
(529,-109,c),
(566,-142,l),
(508,-207,l)
);
},
{
ref = sin_MA;
}
);
width = 656;
},
{
layerId = "0EF112A6-69F8-47E9-9D72-C545F6D6A613";
width = 600;
}
);
metricLeft = sin_MA;
metricRight = sin_MA;
},
{
glyphname = sin_NA;
lastChange = "2023-10-18 21:04:10 +0000";
layers = (
{
layerId = "B24528F6-199A-4A7E-931E-F430756048DC";
shapes = (
{
closed = 1;
nodes = (
(323,192,l),
(362,186,o),
(392,178,o),
(392,148,cs),
(392,103,o),
(338,93,o),
(297,93,cs),
(205,93,o),
(155,121,o),
(140,170,c),
(134,223,l),
(131,239,o),
(129,270,o),
(128,305,c),
(43,300,l),
(42,285,o),
(40,270,o),
(39,245,cs),
(32,115,o),
(107,-7,o),
(307,-7,cs),
(437,-7,o),
(506,61,o),
(506,147,cs),
(506,220,o),
(457,253,o),
(365,262,c)
);
},
{
closed = 1;
nodes = (
(89,367,l),
(116,383,o),
(146,403,o),
(179,403,cs),
(214,403,o),
(229,375,o),
(273,296,c),
(282,276,l),
(323,192,l),
(387,233,l),
(349,332,l),
(329,362,l),
(287,464,o),
(258,495,o),
(188,495,cs),
(127,495,o),
(75,455,o),
(48,436,c)
);
},
{
closed = 1;
nodes = (
(546,-2,l),
(660,-2,o),
(760,42,o),
(760,240,cs),
(760,386,o),
(668,497,o),
(513,497,cs),
(413,497,o),
(336,455,o),
(278,361,c),
(265,350,l),
(229,304,o),
(206,250,o),
(165,241,c),
(146,236,o),
(123,238,o),
(102,240,c),
(102,166,l),
(125,160,o),
(160,157,o),
(178,159,cs),
(256,168,o),
(289,234,o),
(320,275,c),
(335,292,l),
(375,347,o),
(421,390,o),
(495,390,cs),
(606,390,o),
(646,324,o),
(646,231,cs),
(646,141,o),
(612,93,o),
(528,83,c)
);
}
);
width = 796;
},
{
layerId = "0EF112A6-69F8-47E9-9D72-C545F6D6A613";
width = 600;
},
{
associatedMasterId = "B24528F6-199A-4A7E-931E-F430756048DC";
layerId = "D4171AB7-E75F-40D3-A607-831C64CE2E9F";
name = "17 Oct 23 at 18:13";
shapes = (
{
closed = 1;
nodes = (
(342,222,l),
(395,224,o),
(429,206,o),
(429,171,cs),
(429,117,o),
(382,92,o),
(324,92,cs),
(240,92,o),
(156,143,o),
(156,197,c),
(149,223,l),
(139,239,o),
(137,269,o),
(134,304,c),
(43,290,l),
(48,101,o),
(145,-7,o),
(324,-7,cs),
(457,-7,o),
(532,73,o),
(532,167,cs),
(532,258,o),
(468,298,o),
(393,298,c)
);
},
{
closed = 1;
nodes = (
(103,367,l),
(130,383,o),
(160,403,o),
(193,403,cs),
(228,403,o),
(266,375,o),
(273,296,c),
(342,222,l),
(435,243,l),
(353,352,l),
(333,362,l),
(333,437,o),
(272,495,o),
(195,495,cs),
(141,495,o),
(89,464,o),
(62,446,c)
);
},
{
closed = 1;
nodes = (
(583,2,l),
(656,6,o),
(774,41,o),
(774,255,cs),
(774,410,o),
(673,496,o),
(545,496,cs),
(418,496,o),
(344,411,o),
(269,336,cs),
(239,306,o),
(182,246,o),
(131,241,c),
(122,171,l),
(170,171,l),
(180,165,o),
(197,163,o),
(209,166,c),
(252,186,o),
(331,272,o),
(342,282,cs),
(413,347,o),
(463,390,o),
(534,390,cs),
(629,390,o),
(664,332,o),
(664,245,cs),
(664,155,o),
(609,108,o),
(552,97,c)
);
}
);
width = 817;
},
{
associatedMasterId = "B24528F6-199A-4A7E-931E-F430756048DC";
layerId = "6FF1C901-8116-4583-B3E0-C3C1EFE1F620";
name = "18 Oct 23 at 23:37";
shapes = (
{
closed = 1;
nodes = (
(327,182,l),
(336,183,o),
(350,183,o),
(359,183,cs),
(386,183,o),
(403,175,o),
(403,148,cs),
(403,100,o),
(339,93,o),
(292,93,cs),
(234,93,o),
(145,115,o),
(145,204,c),
(142,223,l),
(141,239,o),
(139,270,o),
(138,305,c),
(39,300,l),
(39,274,o),
(40,227,o),
(41,201,c),
(49,82,o),
(141,-7,o),
(299,-7,cs),
(444,-7,o),
(509,61,o),
(509,153,cs),
(509,219,o),
(464,255,o),
(414,255,cs),
(387,255,o),
(356,247,o),
(337,242,c)
);
},
{
closed = 1;
nodes = (
(90,367,l),
(117,383,o),
(147,403,o),
(180,403,cs),
(215,403,o),
(230,375,o),
(274,296,c),
(283,276,l),
(327,182,l),
(398,223,l),
(350,332,l),
(330,362,l),
(288,464,o),
(259,495,o),
(189,495,cs),
(128,495,o),
(76,455,o),
(49,436,c)
);
},
{
closed = 1;
nodes = (
(547,-2,l),
(661,-2,o),
(761,42,o),
(761,240,cs),
(761,383,o),
(669,497,o),
(514,497,cs),
(424,497,o),
(337,455,o),
(279,361,c),
(266,350,l),
(230,304,o),
(200,256,o),
(166,245,c),
(142,238,o),
(128,240,o),
(103,240,c),
(103,158,l),
(126,154,o),
(161,153,o),
(189,159,c),
(247,168,o),
(289,234,o),
(320,275,c),
(336,292,l),
(376,347,o),
(432,390,o),
(496,390,cs),
(607,390,o),
(647,321,o),
(647,231,cs),
(647,141,o),
(613,93,o),
(529,83,c)
);
}
);
width = 800;
},
{
associatedMasterId = "B24528F6-199A-4A7E-931E-F430756048DC";
layerId = "68101D60-005D-4BAA-A8B8-19BCC2A476EC";
name = "18 Oct 23 at 23:51";
shapes = (
{
closed = 1;
nodes = (
(318,192,l),
(364,192,o),
(393,180,o),
(393,148,cs),
(393,103,o),
(339,93,o),
(298,93,cs),
(226,93,o),
(138,125,o),
(136,184,c),
(135,223,l),
(132,239,o),
(130,270,o),
(129,305,c),
(41,300,l),
(41,274,o),
(36,227,o),
(39,171,c),
(47,92,o),
(121,-7,o),
(308,-7,cs),
(438,-7,o),
(507,61,o),
(507,147,cs),
(507,220,o),
(453,265,o),
(347,265,c)
);
},
{
closed = 1;
nodes = (
(90,367,l),
(117,383,o),
(147,403,o),
(180,403,cs),
(215,403,o),
(230,375,o),
(274,296,c),
(283,276,l),
(318,192,l),
(388,233,l),
(350,332,l),
(330,362,l),
(288,464,o),
(259,495,o),
(189,495,cs),
(128,495,o),
(76,455,o),
(49,436,c)
);
},
{
closed = 1;
nodes = (
(547,-2,l),
(661,-2,o),
(761,42,o),
(761,240,cs),
(761,356,o),
(669,497,o),
(514,497,cs),
(414,497,o),
(337,455,o),
(279,361,c),
(266,350,l),
(230,304,o),
(207,250,o),
(166,241,c),
(147,236,o),
(124,238,o),
(103,240,c),
(103,166,l),
(126,162,o),
(161,158,o),
(189,159,c),
(257,168,o),
(290,234,o),
(321,275,c),
(336,292,l),
(376,347,o),
(422,390,o),
(496,390,cs),
(607,390,o),
(647,294,o),
(647,231,cs),
(647,141,o),
(613,93,o),
(529,83,c)
);
}
);
visible = 1;
width = 800;
}
);
},
{
glyphname = sin_NI;
lastChange = "2023-10-18 21:04:54 +0000";
layers = (
{
background = {
shapes = (
{
closed = 1;
nodes = (
(456,436,l),
(447,452,o),
(424,481,o),
(424,519,cs),
(424,571,o),
(466,599,o),
(533,599,cs),
(613,599,o),
(636,558,o),
(636,521,cs),
(636,490,o),
(619,459,o),
(603,435,c),
(691,405,l),
(724,446,o),
(748,494,o),
(748,537,cs),
(748,600,o),
(695,699,o),
(531,699,cs),
(383,699,o),
(312,618,o),
(312,526,cs),
(312,481,o),
(329,445,o),
(367,386,c)
);
}
);
};
layerId = "B24528F6-199A-4A7E-931E-F430756048DC";
shapes = (
{
closed = 1;
nodes = (
(731,445,o),
(748,481,o),
(748,526,cs),
(748,618,o),
(677,699,o),
(529,699,cs),
(365,699,o),
(312,600,o),
(312,537,cs),
(312,484,o),
(336,446,o),
(369,405,c),
(457,435,l),
(441,459,o),
(424,490,o),
(424,521,cs),
(424,558,o),
(447,599,o),
(527,599,cs),
(594,599,o),
(636,571,o),
(636,521,cs),
(636,491,o),
(619,459,o),
(603,435,c),
(693,386,l)
);
},
{
locked = 1;
ref = sin_NA;
}
);
width = 796;
},
{
layerId = "0EF112A6-69F8-47E9-9D72-C545F6D6A613";
width = 600;
}
);
metricLeft = sin_NA;
metricRight = sin_NA;
},
{
glyphname = sin_ThA;
lastChange = "2023-10-17 12:16:53 +0000";
layers = (
{
layerId = "B24528F6-199A-4A7E-931E-F430756048DC";
shapes = (
{
closed = 1;
nodes = (
(121,364,l),
(148,377,o),
(174,394,o),
(212,394,cs),
(246,394,o),
(302,373,o),
(302,303,c),
(343,222,l),
(427,228,l),
(381,351,l),
(374,361,l),
(374,437,o),
(306,496,o),
(226,496,cs),
(171,496,o),
(117,463,o),
(84,436,c)
);
},
{
closed = 1;
nodes = (
(520,36,o),
(520,151,cs),
(520,267,o),
(421,308,o),
(353,300,c),
(343,222,l),
(391,223,o),
(420,193,o),
(420,158,cs),
(420,114,o),
(357,93,o),
(309,94,cs),
(223,97,o),
(174,146,o),
(176,206,c),
(102,171,l),
(101,158,o),
(91,153,o),
(91,139,c),
(95,74,o),
(156,-8,o),
(320,-8,cs),
(420,-8,o)
);
},
{
closed = 1;
nodes = (
(326,317,o),
(327,318,o),
(353,332,cs),
(406,360,o),
(447,386,o),
(511,386,cs),
(602,386,o),
(643,311,o),
(643,236,cs),
(643,122,o),
(588,92,o),
(524,88,c),
(540,-11,l),
(663,-4,o),
(765,84,o),
(765,245,cs),
(765,372,o),
(669,496,o),
(521,496,cs),
(403,496,o),
(300,410,o),
(228,360,c),
(35,202,l),
(42,134,l),
(98,134,l),
(306,302,l)
);
}
);
width = 600;
},
{
layerId = "0EF112A6-69F8-47E9-9D72-C545F6D6A613";
width = 600;
}
);
},
{
glyphname = sin_YA;
lastChange = "2023-10-18 21:04:18 +0000";
layers = (
{
layerId = "B24528F6-199A-4A7E-931E-F430756048DC";
shapes = (
{
closed = 1;
nodes = (
(270,434,o),
(247,438,o),
(224,438,cs),
(114,438,o),
(36,345,o),
(36,212,cs),
(36,68,o),
(127,-6,o),
(235,-6,cs),
(348,-6,o),
(374,75,o),
(374,125,c),
(341,125,l),
(341,66,o),
(391,-6,o),
(496,-6,cs),
(609,-6,o),
(678,78,o),
(678,182,cs),
(678,306,o),
(580,351,o),
(467,351,cs),
(443,351,o),
(427,349,o),
(380,343,c),
(421,301,l),
(410,365,o),
(416,409,o),
(482,409,cs),
(519,409,o),
(554,397,o),
(594,378,c),
(627,456,l),
(565,489,o),
(521,501,o),
(475,501,cs),
(331,501,o),
(308,381,o),
(338,259,c),
(366,262,o),
(397,264,o),
(431,265,cs),
(527,267,o),
(569,239,o),
(569,184,cs),
(569,140,o),
(541,103,o),
(487,103,cs),
(414,103,o),
(401,162,o),
(401,207,c),
(312,207,l),
(312,163,o),
(306,103,o),
(237,103,cs),
(185,103,o),
(148,136,o),
(148,218,cs),
(148,291,o),
(178,337,o),
(249,337,cs),
(258,337,o),
(268,337,o),
(279,335,c),
(294,427,l)
);
}
);
width = 714;
},
{
layerId = "0EF112A6-69F8-47E9-9D72-C545F6D6A613";
width = 600;
},
{
associatedMasterId = "B24528F6-199A-4A7E-931E-F430756048DC";
layerId = "EC86DFDA-6D38-4FE0-A4C0-9A0D9DD0C2E6";
name = "18 Oct 23 at 22:02";
shapes = (
{
closed = 1;
nodes = (
(162,472,o),
(43,375,o),
(43,213,cs),
(43,85,o),
(120,-6,o),
(239,-6,cs),
(353,-6,o),
(384,75,o),
(384,125,c),
(351,125,l),
(351,66,o),
(394,-6,o),
(493,-6,cs),
(601,-6,o),
(662,78,o),
(662,181,cs),
(662,322,o),
(533,387,o),
(404,356,c),
(431,330,l),
(428,376,o),
(444,403,o),
(496,403,cs),
(530,403,o),
(558,391,o),
(598,372,c),
(631,461,l),
(573,491,o),
(537,501,o),
(491,501,cs),
(386,501,o),
(315,432,o),
(334,264,c),
(366,270,o),
(401,273,o),
(427,273,cs),
(512,273,o),
(553,239,o),
(553,178,cs),
(553,140,o),
(531,107,o),
(488,107,cs),
(433,107,o),
(410,142,o),
(408,207,c),
(330,207,l),
(328,142,o),
(307,107,o),
(251,107,cs),
(190,107,o),
(152,144,o),
(152,220,cs),
(152,293,o),
(198,349,o),
(293,335,c),
(308,437,l)
);
}
);
visible = 1;
width = 705;
}
);
},
{
glyphname = tml_CU;
lastChange = "2017-08-09 10:52:40 +0000";
layers = (
{
layerId = "B24528F6-199A-4A7E-931E-F430756048DC";
shapes = (
{
closed = 1;
nodes = (
(357,341,l),
(357,511,l),
(209,511,l),
(209,341,l)
);
},
{
closed = 1;
nodes = (
(239,48,o),
(253,50,o),
(267,54,cs),
(326,72,o),
(355,123,o),
(355,207,cs),
(355,289,l),
(355,292,l),
(216,292,ls),
(196,292,o),
(178,289,o),
(161,283,cs),
(116,266,o),
(93,231,o),
(93,176,cs),
(93,151,o),
(99,128,o),
(111,107,cs),
(134,68,o),
(172,48,o),
(224,48,cs)
);
},
{
closed = 1;
nodes = (
(530,292,l),
(530,0,l),
(481,0,l),
(481,292,l),
(406,292,l),
(406,207,ls),
(406,180,o),
(403,154,o),
(397,131,cs),
(376,43,o),
(319,-1,o),
(227,-1,cs),
(152,-1,o),
(47,32,o),
(44,175,cs),
(43,199,o),
(47,222,o),
(54,243,cs),
(71,294,o),
(107,326,o),
(161,337,c),
(161,560,l),
(526,560,l),
(526,511,l),
(406,511,l),
(406,341,l),
(610,341,l),
(610,292,l)
);
}
);
width = 652;
},
{
layerId = "0EF112A6-69F8-47E9-9D72-C545F6D6A613";
width = 600;
}
);
note = tml_CU;
},
{
glyphname = tml_CUu;
lastChange = "2017-08-09 10:52:40 +0000";
layers = (
{
layerId = "B24528F6-199A-4A7E-931E-F430756048DC";
shapes = (
{
closed = 1;
nodes = (
(545,341,l),
(545,511,l),
(397,511,l),
(397,341,l)
);
},
{
closed = 1;
nodes = (
(428,48,o),
(443,50,o),
(456,54,cs),
(515,73,o),
(544,124,o),
(544,207,cs),
(544,289,l),
(544,292,l),
(404,292,ls),
(384,292,o),
(366,289,o),
(349,283,cs),
(304,266,o),
(281,231,o),
(281,176,cs),
(281,151,o),
(287,128,o),
(299,107,cs),
(322,68,o),
(360,48,o),
(412,48,cs)
);
},
{
closed = 1;
nodes = (
(259,-273,o),
(43,-126,o),
(42,218,c),
(42,227,o),
(42,236,o),
(42,245,c),
(47,368,o),
(82,475,o),
(147,565,c),
(191,543,l),
(186,536,o),
(180,527,o),
(174,518,cs),
(120,431,o),
(93,332,o),
(93,219,cs),
(93,-8,o),
(211,-224,o),
(512,-224,cs),
(732,-224,o),
(845,-93,o),
(845,24,cs),
(845,39,o),
(844,53,o),
(841,66,cs),
(822,153,o),
(721,161,o),
(718,37,cs),
(718,0,l),
(669,0,l),
(669,292,l),
(594,292,l),
(594,207,ls),
(594,180,o),
(591,154,o),
(585,131,cs),
(564,43,o),
(507,-1,o),
(415,-1,cs),
(340,-1,o),
(235,32,o),
(232,175,cs),
(231,199,o),
(235,222,o),
(242,243,cs),
(259,294,o),
(295,326,o),
(349,337,c),
(349,560,l),
(714,560,l),
(714,511,l),
(594,511,l),
(594,341,l),
(798,341,l),
(798,292,l),
(718,292,l),
(718,153,l),
(753,186,o),
(801,183,o),
(833,166,c),
(874,141,o),
(895,93,o),
(895,21,cs),
(895,-119,o),
(768,-275,o),
(512,-274,cs)
);
}
);
width = 914;
},
{
layerId = "0EF112A6-69F8-47E9-9D72-C545F6D6A613";
width = 600;
}
);
note = tml_CUu;
},
{
glyphname = tml_KSsU;
lastChange = "2017-08-09 10:52:40 +0000";
layers = (
{
layerId = "B24528F6-199A-4A7E-931E-F430756048DC";
shapes = (
{
closed = 1;
nodes = (
(852,96,o),
(871,155,o),
(872,218,cs),
(872,257,o),
(866,291,o),
(855,322,cs),
(800,463,o),
(621,456,o),
(549,341,c),
(582,340,o),
(613,334,o),
(641,323,cs),
(718,293,o),
(757,235,o),
(757,150,cs),
(757,119,o),
(753,92,o),
(744,67,cs),
(723,8,o),
(684,-21,o),
(625,-21,cs),
(600,-21,o),
(577,-16,o),
(556,-5,cs),
(495,26,o),
(464,93,o),
(464,196,cs),
(464,229,o),
(468,261,o),
(475,292,c),
(398,292,l),
(398,207,ls),
(398,180,o),
(395,154,o),
(389,131,cs),
(368,43,o),
(311,-1,o),
(219,-1,cs),
(182,-1,o),
(149,7,o),
(121,22,cs),
(66,51,o),
(37,102,o),
(35,175,cs),
(34,198,o),
(37,220,o),
(44,241,cs),
(61,294,o),
(98,326,o),
(153,337,c),
(153,560,l),
(518,560,l),
(518,511,l),
(398,511,l),
(398,341,l),
(492,341,l),
(499,355,o),
(506,368,o),
(515,381,cs),
(559,444,o),
(621,475,o),
(700,475,cs),
(744,475,o),
(782,466,o),
(815,447,cs),
(885,406,o),
(920,330,o),
(920,218,cs),
(920,159,o),
(906,103,o),
(878,50,c),
(1161,50,l),
(1161,156,l),
(1120,159,o),
(1084,172,o),
(1051,194,cs),
(985,240,o),
(951,312,o),
(950,410,c),
(950,490,o),
(1000,573,o),
(1091,573,cs),
(1099,573,o),
(1107,572,o),
(1115,571,cs),
(1180,562,o),
(1212,517,o),
(1212,435,cs),
(1212,208,l),
(1276,223,o),
(1309,280,o),
(1311,379,cs),
(1311,560,l),
(1542,560,ls),
(1548,560,o),
(1554,560,o),
(1560,559,c),
(1658,552,o),
(1707,494,o),
(1707,385,cs),
(1707,313,o),
(1684,211,o),
(1569,211,cs),
(1540,211,o),
(1513,219,o),
(1490,236,cs),
(1450,266,o),
(1430,312,o),
(1430,373,cs),
(1430,434,o),
(1445,480,o),
(1476,511,c),
(1362,511,l),
(1362,1,l),
(1212,1,l),
(1212,-146,l),
(1161,-146,l),
(1161,1,l),
(815,1,l),
(815,41,l)
);
},
{
closed = 1;
nodes = (
(1288,184,o),
(1255,164,o),
(1212,157,c),
(1212,50,l),
(1311,50,l),
(1311,215,l)
);
},
{
closed = 1;
nodes = (
(1000,328,o),
(1038,218,o),
(1161,206,c),
(1161,437,ls),
(1161,448,o),
(1160,458,o),
(1158,467,cs),
(1150,505,o),
(1130,524,o),
(1098,524,cs),
(1079,524,o),
(1063,520,o),
(1049,511,cs),
(1016,491,o),
(1000,454,o),
(1000,400,cs)
);
},
{
closed = 1;
nodes = (
(638,29,o),
(649,31,o),
(658,36,c),
(693,51,o),
(710,89,o),
(710,150,cs),
(710,179,o),
(703,204,o),
(690,225,cs),
(662,270,o),
(609,292,o),
(531,292,cs),
(527,292,l),
(518,263,o),
(513,232,o),
(513,197,cs),
(513,140,o),
(527,29,o),
(627,29,cs)
);
},
{
closed = 1;
nodes = (
(348,341,l),
(348,511,l),
(200,511,l),
(200,341,l)
);
},
{
closed = 1;
nodes = (
(231,48,o),
(246,50,o),
(259,54,cs),
(318,73,o),
(347,124,o),
(347,207,cs),
(347,289,l),
(347,292,l),
(208,292,ls),
(188,292,o),
(170,289,o),
(153,283,cs),
(108,266,o),
(85,231,o),
(85,176,cs),
(85,151,o),
(91,129,o),
(102,108,c),
(125,68,o),
(163,48,o),
(215,48,cs)
);
},
{
closed = 1;
nodes = (
(1581,260,o),
(1596,264,o),
(1609,272,c),
(1640,293,o),
(1656,330,o),
(1656,385,cs),
(1656,394,o),
(1656,402,o),
(1655,411,cs),
(1648,478,o),
(1618,511,o),
(1564,511,cs),
(1549,511,o),
(1536,507,o),
(1524,498,cs),
(1494,476,o),
(1479,436,o),
(1479,379,cs),
(1479,334,o),
(1494,260,o),
(1565,260,cs)
);
}
);
width = 1717;
},
{
layerId = "0EF112A6-69F8-47E9-9D72-C545F6D6A613";
width = 600;
}
);
note = tml_KSsU;
},
{
glyphname = tml_KSsUu;
lastChange = "2017-08-09 10:52:40 +0000";
layers = (
{
layerId = "B24528F6-199A-4A7E-931E-F430756048DC";
shapes = (
{
closed = 1;
nodes = (
(852,96,o),
(871,155,o),
(872,218,cs),
(872,257,o),
(866,291,o),
(855,322,cs),
(800,463,o),
(621,456,o),
(549,341,c),
(582,340,o),
(613,334,o),
(641,323,cs),
(718,293,o),
(757,235,o),
(757,150,cs),
(757,119,o),
(753,92,o),
(744,67,cs),
(723,8,o),
(684,-21,o),
(625,-21,cs),
(600,-21,o),
(577,-16,o),
(556,-5,cs),
(495,26,o),
(464,93,o),
(464,196,cs),
(464,229,o),
(468,261,o),
(475,292,c),
(398,292,l),
(398,207,ls),
(398,180,o),
(395,154,o),
(389,131,cs),
(368,43,o),
(311,-1,o),
(219,-1,cs),
(182,-1,o),
(149,7,o),
(121,22,cs),
(66,51,o),
(37,102,o),
(35,175,cs),
(34,198,o),
(37,220,o),
(44,241,cs),
(61,294,o),
(98,326,o),
(153,337,c),
(153,560,l),
(518,560,l),
(518,511,l),
(398,511,l),
(398,341,l),
(492,341,l),
(499,355,o),
(506,368,o),
(515,381,cs),
(559,444,o),
(621,475,o),
(700,475,cs),
(744,475,o),
(782,466,o),
(815,447,cs),
(885,406,o),
(920,330,o),
(920,218,cs),
(920,159,o),
(906,103,o),
(878,50,c),
(1161,50,l),
(1161,156,l),
(1120,159,o),
(1084,172,o),
(1051,194,cs),
(985,240,o),
(951,312,o),
(950,410,c),
(950,490,o),
(1000,573,o),
(1091,573,cs),
(1099,573,o),
(1107,572,o),
(1115,571,cs),
(1180,562,o),
(1212,517,o),
(1212,435,cs),
(1212,208,l),
(1276,223,o),
(1309,280,o),
(1311,379,cs),
(1311,560,l),
(1474,560,l),
(1519,616,o),
(1580,644,o),
(1659,645,cs),
(1787,645,o),
(1882,557,o),
(1882,414,cs),
(1882,350,o),
(1869,290,o),
(1844,235,c),
(1830,209,o),
(1823,196,o),
(1823,196,c),
(1778,214,l),
(1815,268,o),
(1833,331,o),
(1834,404,cs),
(1834,481,o),
(1804,598,o),
(1659,598,cs),
(1613,598,o),
(1573,584,o),
(1539,557,c),
(1554,556,o),
(1568,553,o),
(1581,549,c),
(1663,527,o),
(1704,469,o),
(1704,376,cs),
(1704,347,o),
(1700,321,o),
(1691,298,cs),
(1669,245,o),
(1628,218,o),
(1567,218,cs),
(1537,218,o),
(1510,226,o),
(1487,242,cs),
(1443,274,o),
(1421,326,o),
(1421,397,cs),
(1421,439,o),
(1429,477,o),
(1445,511,c),
(1362,511,l),
(1362,1,l),
(1212,1,l),
(1212,-146,l),
(1161,-146,l),
(1161,1,l),
(815,1,l),
(815,41,l)
);
},
{
closed = 1;
nodes = (
(1288,184,o),
(1255,164,o),
(1212,157,c),
(1212,50,l),
(1311,50,l),
(1311,215,l)
);
},
{
closed = 1;
nodes = (
(1000,328,o),
(1038,218,o),
(1161,206,c),
(1161,437,ls),
(1161,448,o),
(1160,458,o),
(1158,467,cs),
(1150,505,o),
(1130,524,o),
(1098,524,cs),
(1079,524,o),
(1063,520,o),
(1049,511,cs),
(1016,491,o),
(1000,454,o),
(1000,400,cs)
);
},
{
closed = 1;
nodes = (
(638,29,o),
(649,31,o),
(658,36,c),
(693,51,o),
(710,89,o),
(710,150,cs),
(710,179,o),
(703,204,o),
(690,225,cs),
(662,270,o),
(609,292,o),
(531,292,cs),
(527,292,l),
(518,263,o),
(513,232,o),
(513,197,cs),
(513,140,o),
(527,29,o),
(627,29,cs)
);
},
{
closed = 1;
nodes = (
(348,341,l),
(348,511,l),
(200,511,l),
(200,341,l)
);
},
{
closed = 1;
nodes = (
(231,48,o),
(246,50,o),
(259,54,cs),
(318,73,o),
(347,124,o),
(347,207,cs),
(347,289,l),
(347,292,l),
(208,292,ls),
(188,292,o),
(170,289,o),
(153,283,cs),
(108,266,o),
(85,231,o),
(85,176,cs),
(85,151,o),
(91,129,o),
(102,108,c),
(125,68,o),
(163,48,o),
(215,48,cs)
);
},
{
closed = 1;
nodes = (
(1579,267,o),
(1589,269,o),
(1598,272,c),
(1635,286,o),
(1653,324,o),
(1653,385,cs),
(1653,398,o),
(1652,411,o),
(1649,422,cs),
(1634,480,o),
(1584,510,o),
(1500,511,c),
(1480,478,o),
(1470,439,o),
(1470,396,cs),
(1470,339,o),
(1498,267,o),
(1570,267,cs)
);
}
);
width = 1892;
},
{
layerId = "0EF112A6-69F8-47E9-9D72-C545F6D6A613";
width = 600;
}
);
note = tml_KSsUu;
},
{
glyphname = tml_KSsa;
lastChange = "2017-08-09 10:52:40 +0000";
layers = (
{
layerId = "B24528F6-199A-4A7E-931E-F430756048DC";
shapes = (
{
closed = 1;
nodes = (
(357,341,l),
(357,511,l),
(209,511,l),
(209,341,l)
);
},
{
closed = 1;
nodes = (
(240,48,o),
(255,50,o),
(268,54,cs),
(327,73,o),
(356,124,o),
(356,207,cs),
(356,289,l),
(356,292,l),
(216,292,ls),
(195,292,o),
(176,289,o),
(159,282,cs),
(115,265,o),
(93,229,o),
(93,176,cs),
(93,151,o),
(99,128,o),
(111,107,cs),
(134,68,o),
(172,48,o),
(224,48,cs)
);
},
{
closed = 1;
nodes = (
(860,96,o),
(879,155,o),
(880,218,cs),
(880,257,o),
(874,291,o),
(863,322,cs),
(808,463,o),
(629,456,o),
(557,341,c),
(590,340,o),
(621,334,o),
(649,323,cs),
(727,294,o),
(766,236,o),
(766,150,cs),
(766,86,o),
(749,-21,o),
(634,-21,cs),
(609,-21,o),
(586,-16,o),
(565,-5,cs),
(504,26,o),
(473,93,o),
(473,196,cs),
(473,229,o),
(477,261,o),
(484,292,c),
(406,292,l),
(406,207,ls),
(406,180,o),
(403,154,o),
(397,131,cs),
(376,43,o),
(319,-1,o),
(227,-1,cs),
(152,-1,o),
(47,32,o),
(44,175,cs),
(43,199,o),
(47,222,o),
(54,243,cs),
(71,294,o),
(107,326,o),
(161,337,c),
(161,560,l),
(526,560,l),
(526,511,l),
(406,511,l),
(406,341,l),
(501,341,l),
(508,356,o),
(516,370,o),
(525,384,c),
(569,445,o),
(630,475,o),
(708,475,cs),
(753,475,o),
(791,465,o),
(824,446,cs),
(894,405,o),
(929,329,o),
(929,218,cs),
(929,159,o),
(915,103,o),
(887,50,c),
(1170,50,l),
(1170,156,l),
(1129,159,o),
(1093,172,o),
(1060,194,cs),
(994,240,o),
(960,312,o),
(959,410,c),
(959,490,o),
(1009,573,o),
(1100,573,c),
(1173,569,o),
(1213,523,o),
(1220,435,c),
(1220,208,l),
(1221,208,o),
(1222,208,o),
(1223,209,c),
(1286,224,o),
(1319,280,o),
(1320,379,cs),
(1320,472,l),
(1370,472,l),
(1370,1,l),
(1220,1,l),
(1220,-146,l),
(1170,-146,l),
(1170,1,l),
(823,1,l),
(823,41,l)
);
},
{
closed = 1;
nodes = (
(1297,184,o),
(1264,164,o),
(1220,157,c),
(1220,50,l),
(1320,50,l),
(1320,215,l)
);
},
{
closed = 1;
nodes = (
(1009,328,o),
(1047,218,o),
(1170,206,c),
(1170,437,ls),
(1170,448,o),
(1169,458,o),
(1167,467,cs),
(1159,505,o),
(1139,524,o),
(1107,524,cs),
(1090,524,o),
(1074,520,o),
(1060,512,cs),
(1026,493,o),
(1009,455,o),
(1009,400,cs)
);
},
{
closed = 1;
nodes = (
(647,29,o),
(656,31,o),
(665,35,cs),
(700,50,o),
(718,88,o),
(718,150,cs),
(718,179,o),
(711,205,o),
(697,226,cs),
(668,270,o),
(616,292,o),
(540,292,cs),
(535,292,l),
(526,263,o),
(521,232,o),
(521,197,cs),
(521,138,o),
(536,29,o),
(636,29,cs)
);
}
);
width = 1416;
},
{
layerId = "0EF112A6-69F8-47E9-9D72-C545F6D6A613";
width = 600;
}
);
note = tml_KSsa;
},
{
glyphname = tml_KU;
lastChange = "2017-08-09 10:52:40 +0000";
layers = (
{
layerId = "B24528F6-199A-4A7E-931E-F430756048DC";
shapes = (
{
closed = 1;
nodes = (
(540,341,l),
(540,511,l),
(392,511,l),
(392,341,l)
);
},
{
closed = 1;
nodes = (
(333,-273,o),
(237,-237,o),
(160,-164,cs),
(3,-12,o),
(3,266,o),
(155,458,c),
(199,436,l),
(54,251,o),
(60,9,o),
(197,-127,cs),
(265,-192,o),
(348,-225,o),
(446,-225,cs),
(610,-225,o),
(773,-133,o),
(773,75,cs),
(773,110,o),
(770,142,o),
(763,169,cs),
(743,250,o),
(688,291,o),
(599,292,cs),
(589,292,l),
(589,207,ls),
(589,180,o),
(586,155,o),
(581,132,cs),
(560,44,o),
(503,0,o),
(410,0,cs),
(335,0,o),
(230,31,o),
(227,175,cs),
(226,199,o),
(229,221,o),
(236,242,cs),
(253,294,o),
(289,326,o),
(344,337,c),
(344,560,l),
(709,560,l),
(709,511,l),
(589,511,l),
(589,341,l),
(609,341,ls),
(652,341,o),
(692,329,o),
(727,305,cs),
(795,258,o),
(827,182,o),
(822,75,cs),
(814,-102,o),
(721,-274,o),
(446,-274,cs)
);
},
{
closed = 1;
nodes = (
(421,49,o),
(436,51,o),
(450,55,cs),
(509,74,o),
(539,124,o),
(539,207,cs),
(539,289,l),
(539,292,l),
(399,292,ls),
(378,292,o),
(359,289,o),
(342,282,cs),
(298,265,o),
(276,229,o),
(276,176,cs),
(276,151,o),
(281,129,o),
(292,110,cs),
(315,69,o),
(353,49,o),
(406,49,cs)
);
}
);
width = 845;
},
{
layerId = "0EF112A6-69F8-47E9-9D72-C545F6D6A613";
width = 600;
}
);
note = tml_KU;
},
{
glyphname = tml_KUu;
lastChange = "2017-08-09 10:52:40 +0000";
layers = (
{
layerId = "B24528F6-199A-4A7E-931E-F430756048DC";
shapes = (
{
closed = 1;
nodes = (
(357,341,l),
(357,511,l),
(209,511,l),
(209,341,l)
);
},
{
closed = 1;
nodes = (
(239,48,o),
(253,50,o),
(267,54,cs),
(326,72,o),
(355,123,o),
(355,207,cs),
(355,289,l),
(355,292,l),
(216,292,ls),
(196,292,o),
(178,289,o),
(161,283,cs),
(116,266,o),
(93,231,o),
(93,176,cs),
(93,151,o),
(99,129,o),
(110,109,cs),
(133,68,o),
(171,48,o),
(224,48,cs)
);
},
{
closed = 1;
nodes = (
(463,229,o),
(467,261,o),
(474,292,c),
(406,292,l),
(406,207,ls),
(406,180,o),
(403,154,o),
(397,131,cs),
(376,43,o),
(319,-1,o),
(227,-1,cs),
(152,-1,o),
(47,32,o),
(44,175,cs),
(43,199,o),
(47,222,o),
(54,243,cs),
(71,294,o),
(107,326,o),
(161,337,c),
(161,560,l),
(526,560,l),
(526,511,l),
(406,511,l),
(406,341,l),
(491,341,l),
(498,356,o),
(506,370,o),
(515,384,c),
(559,445,o),
(620,475,o),
(698,475,cs),
(742,475,o),
(780,466,o),
(813,447,cs),
(883,406,o),
(918,330,o),
(918,218,cs),
(918,157,o),
(904,101,o),
(876,50,c),
(1037,50,l),
(1037,1,l),
(813,1,l),
(813,41,l),
(850,96,o),
(869,155,o),
(870,218,cs),
(870,257,o),
(864,291,o),
(853,322,cs),
(798,463,o),
(619,456,o),
(547,341,c),
(580,340,o),
(611,334,o),
(639,323,cs),
(717,294,o),
(756,236,o),
(756,150,cs),
(756,86,o),
(739,-21,o),
(624,-21,cs),
(599,-21,o),
(576,-16,o),
(555,-5,cs),
(494,26,o),
(463,93,o),
(463,196,cs)
);
},
{
closed = 1;
nodes = (
(637,29,o),
(646,31,o),
(655,35,cs),
(690,50,o),
(708,88,o),
(708,150,cs),
(708,179,o),
(701,204,o),
(688,225,cs),
(660,270,o),
(607,292,o),
(529,292,cs),
(525,292,l),
(516,263,o),
(511,232,o),
(511,197,cs),
(511,138,o),
(526,29,o),
(626,29,cs)
);
}
);
width = 1049;
},
{
layerId = "0EF112A6-69F8-47E9-9D72-C545F6D6A613";
width = 600;
}
);
note = tml_KUu;
},
{
glyphname = tml_LU;
lastChange = "2017-08-09 10:52:40 +0000";
layers = (
{
layerId = "B24528F6-199A-4A7E-931E-F430756048DC";
shapes = (
{
closed = 1;
nodes = (
(161,-20,o),
(137,-11,o),
(116,7,cs),
(68,48,o),
(44,125,o),
(44,238,cs),
(44,402,o),
(101,571,o),
(265,571,cs),
(310,571,o),
(348,560,o),
(379,537,cs),
(434,496,o),
(460,431,o),
(458,341,cs),
(458,338,o),
(457,314,o),
(456,268,cs),
(455,222,o),
(454,198,o),
(454,196,c),
(451,128,o),
(466,28,o),
(561,28,cs),
(576,28,o),
(591,32,o),
(604,41,cs),
(651,72,o),
(675,141,o),
(675,250,cs),
(675,379,o),
(638,482,o),
(564,557,c),
(608,584,l),
(623,569,o),
(638,550,o),
(653,527,cs),
(702,448,o),
(726,357,o),
(726,253,cs),
(726,222,o),
(724,193,o),
(719,164,cs),
(702,53,o),
(658,-8,o),
(588,-21,c),
(587,-46,o),
(585,-73,o),
(580,-102,c),
(802,-102,l),
(802,573,l),
(852,573,l),
(852,-151,l),
(568,-151,l),
(529,-278,o),
(442,-342,o),
(305,-343,cs),
(177,-343,o),
(59,-298,o),
(59,-193,cs),
(59,-177,o),
(62,-162,o),
(69,-149,cs),
(85,-118,o),
(115,-102,o),
(159,-102,cs),
(529,-102,l),
(534,-77,o),
(537,-50,o),
(538,-21,c),
(515,-18,o),
(494,-9,o),
(475,4,c),
(426,41,o),
(403,104,o),
(407,193,c),
(407,196,o),
(408,223,o),
(409,276,cs),
(410,323,o),
(410,348,o),
(410,350,cs),
(411,425,o),
(381,524,o),
(266,524,cs),
(246,524,o),
(227,520,o),
(209,513,cs),
(144,486,o),
(106,414,o),
(95,297,c),
(121,335,o),
(154,354,o),
(195,355,cs),
(217,355,o),
(237,349,o),
(256,336,cs),
(301,305,o),
(324,250,o),
(324,172,cs),
(324,88,o),
(292,-20,o),
(188,-20,cs)
);
},
{
closed = 1;
nodes = (
(203,29,o),
(214,32,o),
(225,38,c),
(259,59,o),
(276,104,o),
(276,173,cs),
(276,225,o),
(263,310,o),
(191,310,cs),
(170,310,o),
(152,302,o),
(137,285,cs),
(108,254,o),
(96,210,o),
(100,151,c),
(114,71,o),
(144,30,o),
(190,29,cs)
);
},
{
closed = 1;
nodes = (
(408,-293,o),
(479,-246,o),
(515,-151,c),
(167,-151,ls),
(160,-151,o),
(154,-151,o),
(148,-152,c),
(123,-155,o),
(110,-171,o),
(110,-198,cs),
(110,-212,o),
(116,-226,o),
(127,-239,cs),
(159,-276,o),
(217,-294,o),
(302,-294,cs)
);
}
);
width = 904;
},
{
layerId = "0EF112A6-69F8-47E9-9D72-C545F6D6A613";
width = 600;
}
);
note = tml_LU;
},
